<?xml version="1.0" encoding="utf-8"?>
<!-- Generator: Adobe Illustrator 22.1.0, SVG Export Plug-In . SVG Version: 6.00 Build 0)  -->
<svg version="1.1" id="Layer_1" xmlns="http://www.w3.org/2000/svg" xmlns:xlink="http://www.w3.org/1999/xlink" x="0px" y="0px"
	 viewBox="0 0 788.5 178.7" style="enable-background:new 0 0 788.5 178.7;" xml:space="preserve">
<style type="text/css">
	.st0{fill:none;}
	.st1{fill:#00AAB2;}
	.st2{fill:#FFFFFF;}
	.st3{fill:#00797F;}
	.st4{fill:#3ACCC5;}
</style>
<title>KubeVirt_logo_color</title>
<g id="Layer_2_1_">
	<g id="svg10488">
		<path d="M305.7,47.5c-3,3.2-6.3,6.8-10,10.8c-3.7,4-7.6,8-11.7,12.2c-4,4.1-8,8.2-12,12.2s-7.8,7.7-11.3,11.2
			c4.6,3.2,8.9,6.8,13,10.6c4.6,4.2,9.1,8.7,13.4,13.4c4.4,4.8,8.5,9.6,12.4,14.6c3.5,4.5,6.8,9.2,9.6,14.2h-16.3
			c-3-4.7-6.3-9.2-9.9-13.5c-3.7-4.5-7.7-8.9-11.8-13s-8.3-8-12.6-11.5c-3.9-3.3-8-6.3-12.4-9v47h-13.9V47.5h13.9v43.8
			c3.3-3.1,7-6.7,11-10.7c4-4,8-7.9,11.9-11.9c3.9-4,7.6-7.8,11.1-11.5c3.5-3.7,6.4-6.9,8.8-9.7H305.7z"/>
		<path d="M377.9,144.5c-3.1,0.8-7.1,1.6-12.1,2.4c-5.7,0.9-11.6,1.3-17.4,1.3c-4.9,0.1-9.8-0.7-14.4-2.5c-3.7-1.5-7-3.9-9.4-7.1
			c-2.5-3.2-4.2-6.9-5.1-10.8c-1.1-4.5-1.6-9.2-1.6-13.8V72.3h13.3v38.9c0,9.1,1.4,15.5,4.3,19.5c2.9,3.9,7.7,5.9,14.4,5.9
			c1.4,0,2.9,0,4.4-0.1c1.5-0.1,3-0.2,4.3-0.4c1.3-0.1,2.6-0.3,3.6-0.4c0.8-0.1,1.6-0.2,2.4-0.5V72.3h13.3L377.9,144.5z"/>
		<path d="M413.2,75.6c2.3-1.4,4.8-2.5,7.4-3.3c3.7-1.2,7.5-1.8,11.4-1.7c4.9-0.1,9.8,0.9,14.2,2.9c4.1,1.8,7.7,4.6,10.5,8
			c3,3.6,5.2,7.8,6.5,12.3c1.5,5.1,2.3,10.4,2.2,15.7c0.1,5.5-0.8,11-2.6,16.2c-1.6,4.6-4.2,8.7-7.5,12.2c-3.3,3.4-7.3,6-11.7,7.7
			c-4.9,1.9-10.2,2.8-15.4,2.7c-5.5,0.1-11-0.4-16.5-1.3c-4.8-0.9-8.7-1.7-11.7-2.6V38l13.3-2.3L413.2,75.6z M413.2,135.1
			c1.9,0.5,3.7,0.8,5.6,1.1c3,0.4,6,0.5,9.1,0.5c7.2,0,12.9-2.4,17.2-7.1c4.3-4.7,6.4-11.4,6.4-20.1c0-3.6-0.4-7.2-1.1-10.7
			c-0.7-3.1-1.9-6-3.7-8.7c-1.7-2.4-4-4.4-6.6-5.7c-3.1-1.5-6.4-2.2-9.8-2.1c-3.4,0-6.8,0.6-10,1.9c-2.5,0.9-4.9,2.2-7,3.9
			L413.2,135.1z"/>
		<path d="M479.2,109.6c-0.1-5.9,0.8-11.7,2.8-17.2c1.7-4.5,4.3-8.7,7.6-12.2c3.1-3.2,6.8-5.7,10.9-7.3c4-1.6,8.3-2.4,12.6-2.4
			c10,0,17.7,3.1,23,9.4c5.3,6.2,8,15.8,8,28.5v2.2c0,0.8,0,1.6,0,2.5h-51c0.6,7.7,2.8,13.6,6.7,17.6c3.9,4,10,6,18.3,6
			c4,0.1,7.9-0.3,11.8-1.2c2.5-0.6,4.9-1.4,7.2-2.4l1.9,11.1c-2.7,1.2-5.6,2.1-8.5,2.7c-4.5,1-9.2,1.5-13.8,1.4
			c-5.7,0.1-11.4-0.9-16.8-2.9c-4.4-1.8-8.4-4.5-11.6-8.1c-3.1-3.5-5.4-7.7-6.8-12.2C479.8,120.1,479.1,114.8,479.2,109.6z
			 M530.2,102.3c0.1-6-1.4-10.9-4.5-14.8s-7.4-5.8-12.8-5.8c-2.8-0.1-5.6,0.6-8.1,1.8c-2.3,1.1-4.3,2.7-5.9,4.7
			c-1.6,1.9-2.9,4.2-3.8,6.6c-0.9,2.4-1.5,5-1.8,7.6L530.2,102.3z"/>
		<path d="M643.3,47.5c-3.6,10.5-7.1,20.2-10.3,29.1c-3.3,8.9-6.5,17.4-9.7,25.4c-3.1,8-6.3,15.7-9.4,23c-3.1,7.3-6.3,14.6-9.5,21.7
			h-13c-3.2-7.2-6.4-14.4-9.5-21.7c-3.1-7.3-6.2-15-9.4-23c-3.2-8-6.5-16.5-9.8-25.4c-3.3-8.9-6.8-18.6-10.3-29.1h15.3
			c5.1,15.1,10.2,29.6,15.2,43.5s10.1,27,15.3,39.2c5.2-12.1,10.3-25.1,15.3-39.1s10-28.5,15-43.5L643.3,47.5z"/>
		<path d="M661.9,58.8c-2.3,0-4.4-0.8-6.1-2.4c-1.7-1.7-2.6-4-2.5-6.4c-0.1-2.4,0.8-4.7,2.5-6.4c3.4-3.2,8.7-3.2,12.2,0
			c1.7,1.7,2.6,4,2.5,6.4c0.1,2.4-0.8,4.7-2.5,6.4C666.4,58,664.2,58.9,661.9,58.8z M668.6,146.6h-13.3V72.3h13.3V146.6z"/>
		<path d="M718.1,70.7c1.1,0,2.5,0.1,3.9,0.2c1.5,0.1,2.9,0.3,4.4,0.6c1.4,0.2,2.7,0.5,3.9,0.7c0.9,0.2,1.8,0.4,2.7,0.6l-2.3,11.6
			c-4.7-1.5-9.6-2.3-14.6-2.1c-2.5,0-4.9,0.3-7.4,0.8c-2.4,0.5-4,0.9-4.8,1.1v62.5h-13.3V75.4c3.8-1.3,7.8-2.4,11.7-3.2
			C707.6,71.2,712.8,70.7,718.1,70.7z"/>
		<path d="M757.5,72.3h28.2v11.2h-28.2v34.3c-0.1,3.1,0.2,6.2,0.9,9.2c0.4,2.1,1.3,4,2.6,5.7c1.1,1.4,2.6,2.4,4.3,2.9
			c1.9,0.6,4,0.9,6,0.9c3.3,0.1,6.5-0.3,9.7-1.4c2.4-0.9,4.1-1.5,5.1-1.9l2.6,11c-2.3,1-4.6,1.8-7,2.5c-3.7,1.1-7.6,1.6-11.4,1.5
			c-4.3,0.1-8.5-0.5-12.5-1.9c-3.1-1.2-5.9-3.2-7.9-5.8c-2.1-2.8-3.6-6.1-4.2-9.5c-0.9-4.3-1.3-8.7-1.2-13.1V51.5l13.3-2.3
			L757.5,72.3z"/>
		<path class="st0" d="M23.1,35.5l0.1-0.1L23.1,35.5c-1.4,1.1-2.5,2.6-3.2,4.3C20.6,38.1,21.7,36.6,23.1,35.5z"/>
		<path class="st0" d="M19.4,41.6c0.1-0.6,0.3-1.2,0.6-1.8C19.7,40.4,19.5,41,19.4,41.6z"/>
		<path class="st0" d="M58.3,174.7L58.3,174.7c-0.4,0-0.9,0-1.3-0.1C57.5,174.6,57.9,174.7,58.3,174.7z"/>
		<path class="st1" d="M158.7,34.5L97.1,5c-0.2-0.1-0.4-0.2-0.6-0.3c-0.4-0.2-0.8-0.3-1.3-0.4c-0.4-0.1-0.8-0.2-1.2-0.2
			C93.4,4,92.7,4,92.1,4c-1.3,0-2.5,0-3.8,0.2c-0.4,0.1-0.8,0.1-1.3,0.2L25.4,34.1c-0.7,0.3-1.5,0.8-2.1,1.3l-0.1,0.1l31.9,64.2
			l-24-49h40.5l16.2,29.9L82.2,91L82,91.1L65.6,60.7H47.7l28.2,59.8l4-7.6c1.3-2.4,4.3-3.4,6.8-2.1c2.4,1.3,3.4,4.3,2.1,6.8
			l-7.3,13.7l-5.6,10.4l16.4,32.9l15.5-30.6c-1.6,2.2-4.8,2.7-7,1.1c-2-1.4-2.6-4.1-1.5-6.2l3.6-7.2c1.4-2.4,4.4-3.2,6.8-1.8
			c2.1,1.2,3,3.8,2.2,6.1l7.3-14.4c-1.6,2.2-4.8,2.7-7,1c-1.9-1.4-2.6-4-1.5-6.2l7.2-14.3c1.2-2.5,4.2-3.5,6.7-2.2s3.5,4.2,2.2,6.7
			l-1.8,3.5l9.2-18.2c-1.6,2.3-4.7,2.9-6.9,1.3c-2.1-1.4-2.8-4.1-1.7-6.3l7.1-14.3c1.2-2.5,4.2-3.5,6.7-2.2c2.5,1.2,3.5,4.2,2.2,6.7
			l-4,8.1l11.4-22.5c-1.4,2.4-4.4,3.3-6.8,1.9c-1.2-0.7-2.1-1.9-2.4-3.3h-6c-2.8,0-5-2.2-5-5s2.2-5,5-5h20.9l-5,9.9L162,36.9
			c-0.4-0.4-0.8-0.7-1.2-1C160.2,35.4,159.5,34.9,158.7,34.5z M106.1,87l-7.5,14.1c-1.3,2.4-4.3,3.4-6.8,2.1s-3.4-4.3-2.1-6.8l0,0
			l7.5-14.1c1.3-2.4,4.3-3.4,6.8-2.1S107.4,84.6,106.1,87z M121.5,57.8L114,72c-1.3,2.4-4.3,3.4-6.8,2.1c-2.4-1.3-3.4-4.3-2.1-6.8
			l8.8-16.8h3.2l0,0c0.8,0,1.6,0.2,2.3,0.6C121.9,52.4,122.8,55.4,121.5,57.8C121.5,57.8,121.5,57.8,121.5,57.8L121.5,57.8z"/>
		<path class="st2" d="M23.3,35.4c0.7-0.5,1.4-0.9,2.1-1.3L87,4.4c0.4-0.1,0.8-0.2,1.2-0.2C89.5,4,90.8,4,92.1,4
			c0.6,0,1.3,0,1.9,0.1c0.4,0.1,0.9,0.1,1.3,0.2c0.4,0.1,0.9,0.2,1.3,0.4C96.8,4.8,97,4.9,97.2,5l61.6,29.5c0.8,0.4,1.5,0.9,2.1,1.4
			c0.4,0.3,0.8,0.6,1.2,1l1.9-3.7c-1-0.8-2.1-1.6-3.3-2.2h-0.1h-0.1L98.9,1.4c-2.1-1-4.5-1.5-6.8-1.4c-2-0.1-4,0.1-6,0.5l-0.4,0.1
			l-0.4,0.2L23.7,30.5c-0.8,0.4-1.6,0.9-2.3,1.4l1.8,3.6L23.3,35.4z"/>
		<path class="st2" d="M184.5,107.6l-0.1-0.4l-15.4-66v-0.2v-0.1c-0.9-2.9-2.7-5.6-5.1-7.5l-1.9,3.7c1.1,1.1,2.1,2.4,2.7,3.8
			c0.2,0.4,0.3,0.8,0.4,1.2l15.3,66c0.1,0.9,0.1,1.7,0.1,2.6c0,0.8-0.2,1.5-0.3,2.3c0,0.2-0.1,0.4-0.1,0.6c-0.4,1.5-1.1,3-2,4.3
			l-18.4,22.8l-24.2,29.9c-1.6,2.2-4.1,3.6-6.8,4c-0.8,0.1-1.7,0.2-2.5,0.2H92.3l15.4,4h18.5c5.3,0,9.7-2.1,12.5-5.8l42.6-52.7
			l0.1-0.1l0.1-0.1C184,116.4,185.1,112,184.5,107.6z"/>
		<path class="st2" d="M58.3,174.7L58.3,174.7c-0.4,0-0.9-0.1-1.3-0.1c-0.6-0.1-1.1-0.2-1.7-0.4c-0.3-0.1-0.6-0.2-0.9-0.3
			c-0.6-0.2-1.2-0.5-1.7-0.7c-0.8-0.4-1.6-0.9-2.4-1.5c-0.5-0.4-1-0.8-1.4-1.2l-14.2-17.6L6.4,117.7c-1.2-1.7-2-3.7-2.3-5.9
			C4,111.4,4,111,4,110.6c0-0.9,0-1.7,0.2-2.6l15.2-66.4c0.1-0.6,0.3-1.2,0.6-1.8c0.7-1.7,1.8-3.1,3.2-4.3l-1.8-3.6
			c-3,2.1-5.1,5.2-5.9,8.8L0.3,107.1v0.1v0.1c-0.8,4.5,0.3,9,2.9,12.7l0.1,0.1l0.1,0.1L45.9,173l0.1,0.2l0.2,0.1
			c3.2,3.2,7.4,5.1,11.9,5.4h34.2v-4L58.3,174.7z"/>
		<polygon class="st2" points="92.3,174.7 92.3,178.7 107.7,178.7 92.3,174.7 		"/>
		<path class="st3" d="M75.8,142L55.1,99.8L23.1,35.5c-1.4,1.1-2.5,2.6-3.2,4.3c-0.2,0.6-0.4,1.2-0.6,1.8L4.2,108
			C4,108.9,4,109.7,4,110.6c0,0.4,0,0.8,0.1,1.3c0.3,2.1,1.1,4.1,2.3,5.9l28.4,35.2L49,170.4c0.4,0.4,0.9,0.8,1.4,1.2
			c0.7,0.6,1.5,1.1,2.4,1.5c0.6,0.3,1.1,0.5,1.7,0.7c0.3,0.1,0.6,0.2,0.9,0.3c0.5,0.2,1.1,0.3,1.7,0.4c0.4,0.1,0.9,0.1,1.3,0.1h34
			l-16.3-32.9L75.8,142z"/>
		<path class="st0" d="M4,110.6c0-0.9,0-1.7,0.2-2.6"/>
		<path class="st3" d="M50.4,171.7c-0.5-0.4-1-0.8-1.4-1.2C49.4,170.9,49.9,171.3,50.4,171.7z"/>
		<path class="st0" d="M52.8,173.1c-0.8-0.4-1.6-0.9-2.4-1.5"/>
		<line class="st0" x1="49" y1="170.4" x2="34.8" y2="152.9"/>
		<path class="st0" d="M55.4,174.2c-0.3-0.1-0.6-0.2-0.9-0.3"/>
		<path class="st3" d="M54.5,173.9c-0.6-0.2-1.2-0.5-1.7-0.7C53.3,173.4,53.9,173.7,54.5,173.9z"/>
		<path class="st4" d="M149.1,62.5L149.1,62.5l-11.4,22.5l-3.1,6.2c-0.1,0.2-0.2,0.4-0.3,0.5l-9.2,18.1l-5.4,10.8
			c-0.1,0.2-0.3,0.5-0.4,0.7l-7.3,14.5c0,0.1,0,0.1-0.1,0.2l-3.6,7.2c-0.1,0.2-0.3,0.5-0.4,0.7l-15.5,30.6h33.9
			c0.8,0,1.7-0.1,2.5-0.2c2.7-0.4,5.1-1.8,6.8-4l24.2-29.9l18.4-22.8c0.9-1.3,1.6-2.7,2-4.3c0.1-0.2,0.1-0.4,0.1-0.6
			c0.2-0.8,0.3-1.5,0.3-2.3c0-0.9,0-1.7-0.1-2.6L165.2,42c-0.1-0.4-0.3-0.8-0.4-1.2c-0.6-1.4-1.6-2.7-2.7-3.8l-12.3,24.2L149.1,62.5
			z"/>
		<path class="st0" d="M180.6,110.6c0,0.8-0.2,1.5-0.3,2.3"/>
		<path class="st0" d="M180.1,113.5c-0.2,0.7-0.4,1.4-0.7,2"/>
		<path class="st0" d="M128.7,174.5c2.7-0.4,5.1-1.8,6.8-4l24.2-29.9"/>
		<path class="st0" d="M180.6,108c0.1,0.9,0.1,1.7,0.1,2.6"/>
		<path class="st2" d="M104,80.2c-2.4-1.3-5.5-0.4-6.8,2.1c0,0,0,0,0,0l-7.5,14.1c-1.3,2.4-0.4,5.5,2.1,6.8c2.4,1.3,5.5,0.4,6.8-2.1
			l7.5-14.1C107.4,84.6,106.4,81.5,104,80.2C104,80.2,104,80.2,104,80.2z"/>
		<path class="st2" d="M109.6,129.4c-2.5-1.2-5.5-0.2-6.7,2.2c0,0,0,0,0,0l-3.6,7.2c-1.2,2.5-0.2,5.5,2.3,6.7
			c2.2,1.1,4.8,0.4,6.2-1.5l4.1-8.1C113,133.5,112,130.6,109.6,129.4z"/>
		<path class="st2" d="M111.9,136.1c0-0.1,0-0.1,0.1-0.2l-4.1,8.1c0.2-0.2,0.3-0.4,0.4-0.7L111.9,136.1z"/>
		<path class="st2" d="M81.5,131.4l7.3-13.7c1.3-2.4,0.4-5.5-2.1-6.8c-2.4-1.3-5.5-0.4-6.8,2.1l-4,7.6L47.7,60.7h17.9L82,91.1
			l0.2-0.1l5.5-10.3L71.5,50.7H31l24,49l20.9,42L81.5,131.4z"/>
		<polygon class="st2" points="75.9,141.8 55.1,99.8 75.8,142 		"/>
		<path class="st2" d="M154.7,51.3h-20.9c-2.8,0-5,2.2-5,5s2.2,5,5,5h6c0.6,2.7,3.3,4.4,6,3.8c1.4-0.3,2.6-1.2,3.3-2.4l0.7-1.4
			L154.7,51.3z"/>
		<path class="st2" d="M149.8,61.2l-0.7,1.4l0.1-0.1L149.8,61.2z"/>
		<path class="st2" d="M141.7,77c1.3-2.5,0.3-5.5-2.2-6.7s-5.5-0.3-6.7,2.2c0,0,0,0,0,0.1l-7.1,14.3c-1.2,2.5-0.2,5.5,2.3,6.7
			c2.2,1.1,4.9,0.4,6.3-1.7l3.4-6.8L141.7,77z"/>
		<path class="st2" d="M137.7,85.1l-3.4,6.8c0.1-0.2,0.2-0.4,0.3-0.5L137.7,85.1z"/>
		<path class="st2" d="M126.8,106.5c1.2-2.5,0.2-5.5-2.2-6.7s-5.5-0.2-6.7,2.2l-7.1,14.3c-1.2,2.5-0.2,5.5,2.3,6.7
			c2.2,1.1,4.8,0.4,6.2-1.5l5.8-11.5L126.8,106.5z"/>
		<path class="st2" d="M125.1,110l-5.8,11.5c0.2-0.2,0.3-0.5,0.4-0.7L125.1,110z"/>
		<path class="st2" d="M119.4,51.1c-0.7-0.4-1.5-0.6-2.3-0.6l0,0H114l-8.8,16.8c-1.6,2.3-1,5.4,1.3,7c2.3,1.6,5.4,1,7-1.3
			c0.2-0.3,0.4-0.6,0.5-1l7.5-14.1C122.8,55.4,121.9,52.4,119.4,51.1C119.5,51.1,119.4,51.1,119.4,51.1z"/>
	</g>
</g>
<path class="st0" d="M4.1,111.9c0.3,2.1,1.1,4.1,2.3,5.9l28.4,35.1L6.4,117.7C5.2,116,4.4,114,4.1,111.9z"/>
<path class="st0" d="M4.1,111.9C4,111.4,4,111,4,110.6C4,111,4,111.4,4.1,111.9z"/>
<path class="st0" d="M57,174.6c-0.6-0.1-1.1-0.2-1.7-0.4C55.9,174.3,56.4,174.5,57,174.6z"/>
<path class="st0" d="M94,4.1c0.4,0.1,0.9,0.1,1.3,0.2C94.9,4.2,94.4,4.2,94,4.1z"/>
<path class="st0" d="M158.7,34.5c0.8,0.4,1.5,0.9,2.1,1.4C160.2,35.4,159.5,34.9,158.7,34.5z"/>
<path class="st0" d="M180.3,112.9c0,0.2-0.1,0.4-0.1,0.6C180.2,113.3,180.2,113.1,180.3,112.9z"/>
<path class="st0" d="M95.2,4.3c0.4,0.1,0.9,0.2,1.3,0.4C96.1,4.6,95.7,4.4,95.2,4.3z"/>
<path class="st0" d="M158.7,34.5L97.1,5c-0.2-0.1-0.4-0.2-0.6-0.3c0.2,0.1,0.4,0.2,0.6,0.3L158.7,34.5z"/>
<path class="st0" d="M94,4.1C93.4,4,92.7,4,92.1,4c-1.3,0-2.5,0-3.8,0.2C89.5,4,90.8,4,92.1,4C92.7,4,93.4,4,94,4.1z"/>
<path class="st0" d="M87,4.4L25.4,34.1c-0.7,0.3-1.5,0.8-2.1,1.3c0.7-0.5,1.4-0.9,2.1-1.3L87,4.4z"/>
<path class="st0" d="M92.3,174.7h-34c-0.4,0-0.9,0-1.3-0.1c0.4,0.1,0.9,0.1,1.3,0.1h67.9c0.8,0,1.7-0.1,2.5-0.2
	c-0.8,0.1-1.7,0.2-2.5,0.2H92.3z"/>
<path class="st0" d="M180.6,108l-15.4-66c-0.1-0.4-0.3-0.8-0.4-1.2c0.2,0.4,0.3,0.8,0.4,1.2L180.6,108z"/>
<path class="st0" d="M167.3,131.1l10.8-13.4c0.5-0.7,0.9-1.4,1.3-2.2c-0.4,0.8-0.8,1.5-1.3,2.2L167.3,131.1z"/>
<path class="st0" d="M19.4,41.6L4.2,108L19.4,41.6c0.5-2.4,1.9-4.5,3.8-6.1l0.1-0.1C21.3,36.9,19.9,39.1,19.4,41.6z"/>
<path class="st1" d="M55.1,99.8l-24-49h40.5l16.2,29.9L82.2,91L82,91.1L65.6,60.7H47.7l28.2,59.8l4-7.6c1.3-2.4,4.3-3.4,6.8-2.1
	c2.4,1.3,3.4,4.3,2.1,6.8l-7.3,13.7l-5.6,10.4l16.4,32.9l15.5-30.6c-1.6,2.2-4.8,2.7-7,1.1c-2-1.4-2.6-4.1-1.5-6.2l3.6-7.2
	c1.4-2.4,4.4-3.2,6.8-1.8c2.1,1.2,3,3.8,2.2,6.1l7.3-14.4c-1.6,2.2-4.8,2.7-7,1c-1.9-1.4-2.6-4-1.5-6.2l7.2-14.3
	c1.2-2.5,4.2-3.5,6.7-2.2s3.5,4.2,2.2,6.7l-1.8,3.5l9.2-18.2c-1.6,2.3-4.7,2.9-6.9,1.3c-2.1-1.4-2.8-4.1-1.7-6.3l7.1-14.3
	c1.2-2.5,4.2-3.5,6.7-2.2c2.5,1.2,3.5,4.2,2.2,6.7l-4,8.1l11.4-22.5c-1.4,2.4-4.4,3.3-6.8,1.9c-1.2-0.7-2.1-1.9-2.4-3.3h-6
	c-2.8,0-5-2.2-5-5s2.2-5,5-5h20.9l-5,9.9L162,36.9c-0.4-0.4-0.8-0.7-1.2-1c-0.7-0.5-1.4-1-2.1-1.4L97.1,5c-0.2-0.1-0.4-0.2-0.6-0.3
	c-0.4-0.2-0.8-0.3-1.3-0.4c-0.4-0.1-0.8-0.2-1.2-0.2C93.4,4,92.7,4,92.1,4c-1.3,0-2.5,0-3.8,0.2c-0.4,0.1-0.8,0.1-1.3,0.2L25.4,34.1
	c-0.7,0.3-1.5,0.8-2.1,1.3l-0.1,0.1L55.1,99.8z M105.2,67.3l8.8-16.8h3.2l0,0c0.8,0,1.6,0.2,2.3,0.6c2.4,1.3,3.4,4.3,2.1,6.8
	c0,0,0,0,0,0L114,72c-1.3,2.4-4.3,3.4-6.8,2.1C104.8,72.8,103.9,69.8,105.2,67.3L105.2,67.3z M89.8,96.5l7.5-14.1
	c1.3-2.4,4.3-3.4,6.8-2.1s3.4,4.3,2.1,6.8l-7.5,14.1c-1.3,2.4-4.3,3.4-6.8,2.1S88.5,98.9,89.8,96.5L89.8,96.5z"/>
<path class="st2" d="M15.4,40.7L0.3,107.1v0.1v0.1c-0.8,4.5,0.3,9,2.9,12.7l0.1,0.1l0.1,0.1L45.9,173l0.1,0.2l0.2,0.1
	c3.2,3.2,7.4,5.1,11.9,5.4h68.1c5.3,0,9.7-2.1,12.5-5.8l42.6-52.7l0.1-0.1l0.1-0.1c2.6-3.6,3.7-8.1,3.1-12.5l-0.1-0.4l-15.4-66.1
	v-0.2v-0.1c-1.4-4.2-4.4-7.8-8.4-9.8h-0.1h-0.1L98.9,1.4c-2.1-1-4.5-1.5-6.8-1.4c-2-0.1-4,0.1-6,0.5l-0.4,0.1l-0.4,0.2L23.7,30.5
	C19.5,32.4,16.5,36.2,15.4,40.7z M25.5,34.1L87,4.4c0.4-0.1,0.8-0.2,1.2-0.2C89.5,4,90.8,4,92.1,4c0.6,0,1.3,0,1.9,0.1
	c0.4,0.1,0.9,0.1,1.3,0.2c0.4,0.1,0.9,0.2,1.3,0.4C96.8,4.8,97,4.9,97.2,5l61.6,29.5c0.8,0.4,1.5,0.9,2.1,1.4c0.4,0.3,0.8,0.6,1.2,1
	c1.1,1.1,2.1,2.4,2.7,3.8c0.2,0.4,0.3,0.8,0.4,1.2l15.4,66.1c0.2,1.6,0.1,3.3-0.3,4.9c0,0.2-0.1,0.4-0.1,0.6c-0.4,1.5-1.1,3-2,4.3
	l-10.8,13.4l-31.8,39.3c-1.6,2.2-4.1,3.6-6.8,4c-0.8,0.1-1.7,0.2-2.5,0.2H58.3c-0.4,0-0.9-0.1-1.3-0.1c-0.6-0.1-1.1-0.2-1.7-0.4
	c-2.4-0.7-4.6-2-6.4-3.7l-14.2-17.6L6.4,117.7c-1.2-1.7-2-3.7-2.3-5.9C4,111.4,4,111,4,110.6c0-0.9,0-1.7,0.2-2.6l15.2-66.4
	c0.6-2.5,2-4.6,4-6.2C24,34.9,24.7,34.4,25.5,34.1L25.5,34.1z"/>
<path class="st3" d="M92.3,174.7l-16.4-32.9l-0.2,0.3L55.1,99.8L23.1,35.5c-1.9,1.5-3.3,3.7-3.8,6.1L4.2,108
	C4,108.9,4,109.7,4,110.6c0,0.4,0,0.8,0.1,1.3c0.3,2.1,1.1,4.1,2.3,5.9l28.4,35.2L49,170.4c1.8,1.8,4,3,6.3,3.7
	c0.5,0.2,1.1,0.3,1.7,0.4c0.4,0.1,0.9,0.1,1.3,0.1H92.3z"/>
<path class="st4" d="M149.1,62.5L149.1,62.5l-11.4,22.5l-3.1,6.2c-0.1,0.2-0.2,0.4-0.3,0.5l-9.2,18.1l-5.4,10.8
	c-0.1,0.2-0.3,0.5-0.4,0.7l-7.3,14.5c0,0.1,0,0.1-0.1,0.2l-3.6,7.2c-0.1,0.2-0.3,0.5-0.4,0.7l-15.5,30.6h33.9c0.8,0,1.7-0.1,2.5-0.2
	c2.7-0.4,5.1-1.8,6.8-4l31.8-39.3l10.8-13.4c0.9-1.3,1.6-2.7,2-4.3c0.1-0.2,0.1-0.4,0.1-0.6c0.4-1.6,0.5-3.2,0.3-4.9l-15.3-66
	c-0.1-0.4-0.3-0.8-0.4-1.2c-0.6-1.4-1.6-2.7-2.7-3.8l-12.3,24.2L149.1,62.5z"/>
<path class="st2" d="M91.8,103.2c2.4,1.3,5.5,0.4,6.8-2.1c0,0,0,0,0,0l7.5-14.1c1.3-2.4,0.4-5.5-2.1-6.8c-2.4-1.3-5.5-0.4-6.8,2.1
	l0,0l-7.5,14.1C88.5,98.9,89.4,101.9,91.8,103.2C91.8,103.2,91.8,103.2,91.8,103.2z"/>
<path class="st2" d="M111.9,136.1c0-0.1,0-0.1,0.1-0.2c1-2.6-0.3-5.5-2.9-6.4c-2.3-0.9-4.9,0.1-6.1,2.2l-3.6,7.2
	c-1.2,2.5-0.2,5.5,2.3,6.7c2.5,1.2,5.4,0.2,6.7-2.2L111.9,136.1z"/>
<path class="st2" d="M75.9,141.8l5.6-10.4l7.3-13.7c1.3-2.4,0.4-5.5-2.1-6.8c-2.4-1.3-5.5-0.4-6.8,2.1l-4,7.6L47.7,60.7h17.9
	L82,91.1l0.2-0.1l5.5-10.3L71.5,50.7H31l24,49L75.8,142L75.9,141.8z"/>
<path class="st2" d="M149.8,61.2l5-9.9h-20.9c-2.8,0-5,2.2-5,5s2.2,5,5,5h6c0.6,2.7,3.3,4.4,6,3.8c1.4-0.3,2.6-1.2,3.3-2.4l0.1-0.1
	L149.8,61.2z"/>
<path class="st2" d="M137.7,85.1l4-8.1c1.3-2.5,0.3-5.5-2.2-6.7s-5.5-0.3-6.7,2.2c0,0,0,0,0,0.1l-7.1,14.3c-1.2,2.5-0.2,5.5,2.3,6.7
	c2.5,1.2,5.4,0.2,6.7-2.2L137.7,85.1z"/>
<path class="st2" d="M125.1,110l1.8-3.5c1.2-2.5,0.2-5.5-2.2-6.7s-5.5-0.2-6.7,2.2l-7.1,14.3c-1.2,2.5-0.2,5.5,2.3,6.7
	c2.5,1.2,5.4,0.2,6.7-2.2L125.1,110z"/>
<path class="st2" d="M107.3,74.1c2.4,1.3,5.4,0.4,6.7-2.1l7.5-14.1c1.3-2.4,0.4-5.5-2.1-6.8c0,0,0,0,0,0c-0.7-0.4-1.5-0.6-2.3-0.6
	l0,0H114l-8.8,16.8C104,69.8,104.9,72.7,107.3,74.1z"/>
</svg>
