<svg xmlns="http://www.w3.org/2000/svg" viewBox="0 0 864 864"><defs><style>.cls-1{fill:#ededed;}.cls-2{fill:none;}.cls-3{fill:#00aab2;}.cls-4{fill:#fff;}.cls-5{fill:#00797f;}.cls-6{fill:#3accc5;}</style></defs><title>Asset 3</title><g id="Layer_2" data-name="Layer 2"><g id="Layer_1-2" data-name="Layer 1"><circle class="cls-1" cx="432" cy="432" r="432"/><g id="Layer_2-2" data-name="Layer 2"><g id="svg10488"><path class="cls-2" d="M557.48,712.55a42.79,42.79,0,0,1-4.33.8A42.79,42.79,0,0,0,557.48,712.55Z"/><path class="cls-2" d="M727.42,496.41c0,1.57,0,3.13-.1,4.69C727.4,499.58,727.46,498,727.42,496.41Z"/><path class="cls-2" d="M140.62,505.65a43.16,43.16,0,0,1-.46-4.95A43.16,43.16,0,0,0,140.62,505.65Z"/><path class="cls-2" d="M433.78,713.79h-113a21.66,21.66,0,0,1-2.26-.24c.76,0,1.5.2,2.26.24H546.42a48.68,48.68,0,0,0,6.71-.44,48.68,48.68,0,0,1-6.71.44Z"/><path class="cls-2" d="M144.37,517.91a43.6,43.6,0,0,0,3.82,6.45l85,105.17-85-105.17A43.6,43.6,0,0,1,144.37,517.91Z"/><path class="cls-2" d="M634,629.57l85-105.21a44.8,44.8,0,0,0,7.2-16.17,44.8,44.8,0,0,1-7.2,16.17Z"/><path class="cls-2" d="M191.16,271.21l-13.64,59.91,13.64-59.91a36.08,36.08,0,0,1,12.62-20.14,37.32,37.32,0,0,1,7.52-4.7l204.85-98.73a70.07,70.07,0,0,1,16.79-1.34,45.1,45.1,0,0,1,10.55,1.12,45.1,45.1,0,0,0-10.55-1.12,70.07,70.07,0,0,0-16.79,1.34L211.32,246.37A36.1,36.1,0,0,0,191.16,271.21Z"/><path class="cls-2" d="M654.56,247.71a48.11,48.11,0,0,1,10.34,7.39,48.11,48.11,0,0,0-10.34-7.39L449.74,149.65A28.34,28.34,0,0,0,445.6,148a28.34,28.34,0,0,1,4.14,1.65Z"/><path class="cls-2" d="M676.07,272.55l44,189.53-44-189.53a38.48,38.48,0,0,0-3.36-7.67A38.48,38.48,0,0,1,676.07,272.55Z"/><path class="cls-3" d="M416.15,147.64,211.32,246.37a37.32,37.32,0,0,0-7.52,4.7L309.94,464.72,230.07,301.66H364.73l53.92,99.48-18.31,34.37-.68.38L345,334.91H285.32l93.85,199,13.3-25.12a16.63,16.63,0,1,1,29.8,14.78c-.13.26-.27.52-.41.77L397.72,570l-18.37,34.28,54.43,109.52,51.56-101.83A16.62,16.62,0,0,1,457,594.77l12-24a16.61,16.61,0,0,1,30.23,13.73l24-47.48a16.62,16.62,0,0,1-28.32-17.17l23.74-47.6a16.63,16.63,0,0,1,29.75,14.83l-5.83,11.68,30.55-60.36a16.61,16.61,0,0,1-28.69-16.63l23.74-47.6a16.7,16.7,0,1,1,30,14.77h0l-13.41,26.9,37.81-74.7a16.62,16.62,0,0,1-30.81-4.51H571.84a16.63,16.63,0,0,1,0-33.25h69.42l-16.47,33L665.6,255.8c-.24-.24-.46-.5-.7-.72a48.11,48.11,0,0,0-10.34-7.39l-204.82-98A28.34,28.34,0,0,0,445.6,148c-.7-.23-1.41-.42-2.11-.58a45.1,45.1,0,0,0-10.55-1.12A70.07,70.07,0,0,0,416.15,147.64Zm60.42,209,29.11-55.91h10.67a16.43,16.43,0,0,1,7.56,1.85A16.62,16.62,0,0,1,530.83,325h0l-24.9,47a16.63,16.63,0,1,1-30.62-13A16.27,16.27,0,0,1,476.57,356.64Zm-26.46,49.91a16.64,16.64,0,0,1,29.81,14.78c-.13.26-.27.52-.41.78l-24.88,47.14a16.63,16.63,0,0,1-29.8-14.78c.13-.26.26-.52.41-.77Z"/><path class="cls-4" d="M178.22,268.16,127.84,489.22v.64a55.64,55.64,0,0,0,9.66,42.27l.24.32.24.3L279.75,708l.44.54.5.5a61.91,61.91,0,0,0,39.52,18H546.64c17.47,0,32.17-6.83,41.41-19.27l141.53-175,.24-.3.24-.32A57.73,57.73,0,0,0,740.5,490.6l-.26-1.46-51-219.64-.12-.48-.14-.48a56.36,56.36,0,0,0-28-32.61l-.26-.14-.26-.12-204.9-98A49.92,49.92,0,0,0,432.94,133a82.1,82.1,0,0,0-20,1.74l-1.32.34-1.22.6L205.53,234.39A49.59,49.59,0,0,0,178.22,268.16Zm33.1-21.79,204.83-98.73a70.07,70.07,0,0,1,16.79-1.34,45.1,45.1,0,0,1,10.55,1.12c.7.17,1.41.36,2.11.58a28.34,28.34,0,0,1,4.14,1.65l204.82,98.06a48.11,48.11,0,0,1,10.34,7.39c.24.22.46.48.7.72h0a43.43,43.43,0,0,1,4.84,5.57c.81,1.13,1.56,2.31,2.25,3.51a38.48,38.48,0,0,1,3.36,7.67l44,189.53,7,30.07c.18,1.43.28,2.85.32,4.28s0,3.13-.1,4.69a45.78,45.78,0,0,1-1.06,7.09A44.8,44.8,0,0,1,719,524.4L634,629.57l-56.69,70.11A33.33,33.33,0,0,1,559.6,712c-.7.21-1.39.39-2.1.55a42.79,42.79,0,0,1-4.33.8,48.68,48.68,0,0,1-6.71.44H320.83a21.66,21.66,0,0,1-2.26-.24,49.12,49.12,0,0,1-28.65-13.85l-56.71-70.11-85-105.21a44,44,0,0,1-3.82-6.49,41.55,41.55,0,0,1-3.55-25.7L177.56,331l13.64-59.91A36.07,36.07,0,0,1,211.32,246.37Z"/><path class="cls-5" d="M433.78,713.79,379.35,604.23l-.5.92L309.94,464.64,203.8,251a36.08,36.08,0,0,0-12.62,20.14L177.54,331,140.82,492.17a42,42,0,0,0,3.57,25.74,43.48,43.48,0,0,0,3.8,6.45l85,105.17,56.69,70.11a49.15,49.15,0,0,0,28.63,13.91c.76,0,1.5.2,2.26.24Z"/><path class="cls-6" d="M622.55,340.92l-.18.28-37.81,74.7-10.31,20.6a14.65,14.65,0,0,1-1.06,1.8l-30.55,60.36-18,35.94a16.45,16.45,0,0,1-1.43,2.34l-24,47.48c-.15.38-.29.74-.47,1.12l-12,24a16.92,16.92,0,0,1-1.42,2.3L433.84,713.63H546.5a48.68,48.68,0,0,0,6.71-.44,42.79,42.79,0,0,0,4.33-.8c.71-.17,1.4-.35,2.1-.55a33.33,33.33,0,0,0,17.73-12.3l56.65-70,85-105.21a44.8,44.8,0,0,0,7.2-16.17,46.7,46.7,0,0,0,1.16-11.78c-.06-1.58-.14-2.86-.32-4.28l-7-30.07-44-189.51h0a38.48,38.48,0,0,0-3.36-7.67c-.69-1.2-1.44-2.38-2.25-3.51a43.43,43.43,0,0,0-4.84-5.57h0l-40.81,80.63Z"/><path class="cls-4" d="M432.14,476.16a16.61,16.61,0,0,0,22.46-6.9h0l24.9-47a16.63,16.63,0,1,0-29-16.33c-.15.25-.29.51-.42.77l-24.89,47A16.62,16.62,0,0,0,432.14,476.16Z"/><path class="cls-4" d="M498.76,585.6a9.14,9.14,0,0,0,.47-1.12A16.61,16.61,0,0,0,469,570.75l-12,24a16.64,16.64,0,0,0,29.76,14.83Z"/><path class="cls-4" d="M379.35,604.23l18.43-34.4,24.14-45.61a16.63,16.63,0,0,0-29-16.33c-.14.26-.28.52-.41.78l-13.3,25.12-93.85-199h59.55l54.65,101,.68-.38L418.57,401l-53.92-99.48H230L309.88,464.6l68.91,140.55Z"/><path class="cls-4" d="M624.79,336.45l16.47-33H571.84a16.63,16.63,0,0,0,0,33.25h19.82a16.61,16.61,0,0,0,30.73,4.51l.18-.28Z"/><path class="cls-4" d="M584.58,415.9,598.07,389a16.63,16.63,0,0,0-29.75-14.83l-23.74,47.6a16.63,16.63,0,0,0,29.75,14.83Z"/><path class="cls-4" d="M542.64,498.74l5.83-11.68a16.63,16.63,0,0,0-29.75-14.83L495,519.83a16.63,16.63,0,0,0,29.75,14.83Z"/><path class="cls-4" d="M483.48,379.2a16.62,16.62,0,0,0,22.46-6.9h0l24.9-47a16.61,16.61,0,0,0-6.78-22.5l-.13-.07a16.43,16.43,0,0,0-7.56-1.85H505.7l-29.11,55.9A16.65,16.65,0,0,0,483.48,379.2Z"/></g></g></g></g></svg>
