<?xml version="1.0" encoding="UTF-8" standalone="no"?>
<svg
   xmlns:dc="http://purl.org/dc/elements/1.1/"
   xmlns:cc="http://creativecommons.org/ns#"
   xmlns:rdf="http://www.w3.org/1999/02/22-rdf-syntax-ns#"
   xmlns:svg="http://www.w3.org/2000/svg"
   xmlns="http://www.w3.org/2000/svg"
   xmlns:sodipodi="http://sodipodi.sourceforge.net/DTD/sodipodi-0.dtd"
   xmlns:inkscape="http://www.inkscape.org/namespaces/inkscape"
   width="297mm"
   height="420mm"
   viewBox="0 0 1122.5197 1587.4016"
   version="1.1"
   id="svg2144"
   sodipodi:docname="KubeVirt_banner.svg"
   inkscape:version="0.92.4 (unknown)">
  <metadata
     id="metadata2148">
    <rdf:RDF>
      <cc:Work
         rdf:about="">
        <dc:format>image/svg+xml</dc:format>
        <dc:type
           rdf:resource="http://purl.org/dc/dcmitype/StillImage" />
        <dc:title>KubeVirt_logo</dc:title>
      </cc:Work>
    </rdf:RDF>
  </metadata>
  <sodipodi:namedview
     pagecolor="#ffffff"
     bordercolor="#666666"
     borderopacity="1"
     objecttolerance="10"
     gridtolerance="10"
     guidetolerance="10"
     inkscape:pageopacity="0"
     inkscape:pageshadow="2"
     inkscape:window-width="1916"
     inkscape:window-height="1161"
     id="namedview2146"
     showgrid="false"
     inkscape:zoom="0.65189873"
     inkscape:cx="550.53592"
     inkscape:cy="842.58972"
     inkscape:window-x="2176"
     inkscape:window-y="978"
     inkscape:window-maximized="0"
     inkscape:current-layer="svg2144"
     units="mm"
     inkscape:pagecheckerboard="false" />
  <!-- Generator: Sketch 51.2 (57519) - http://www.bohemiancoding.com/sketch -->
  <title
     id="title2003">KubeVirt_logo</title>
  <desc
     id="desc2005">Created with Sketch.</desc>
  <rect
     style="fill:#14bfbf;fill-opacity:1;stroke:none;stroke-width:4.12063456;stroke-linecap:round;stroke-linejoin:round;stroke-miterlimit:4;stroke-dasharray:none;paint-order:fill markers stroke"
     id="rect2712"
     width="1115.5706"
     height="726.23749"
     x="3.3311479"
     y="3.0615733" />
  <defs
     id="defs2007" />
  <g
     id="Page-1"
     transform="matrix(4.9136383,0,0,4.9136383,173.5564,85.81253)"
     style="fill:none;fill-rule:evenodd;stroke:none;stroke-width:1">
    <g
       id="KubeVirt_Logo"
       transform="translate(-2,-2)">
      <g
         id="KubeVirt_logo"
         transform="translate(2,2)">
        <g
           id="Layer_2_1_">
          <g
             id="svg10488">
            <path
               d="m 61.14,9.7 c -0.6,0.64 -1.26,1.36 -2,2.16 -0.74,0.8 -1.52,1.6 -2.34,2.44 -0.8,0.82 -1.6,1.64 -2.4,2.44 -0.8,0.8 -1.56,1.54 -2.26,2.24 0.92,0.64 1.78,1.36 2.6,2.12 0.92,0.84 1.82,1.74 2.68,2.68 0.88,0.96 1.7,1.92 2.48,2.92 0.7,0.9 1.36,1.84 1.92,2.84 h -3.26 c -0.6,-0.94 -1.26,-1.84 -1.98,-2.7 -0.74,-0.9 -1.54,-1.78 -2.36,-2.6 -0.82,-0.82 -1.66,-1.6 -2.52,-2.3 -0.78,-0.66 -1.6,-1.26 -2.48,-1.8 v 9.4 H 46.44 V 9.7 h 2.78 v 8.76 c 0.66,-0.62 1.4,-1.34 2.2,-2.14 0.8,-0.8 1.6,-1.58 2.38,-2.38 0.78,-0.8 1.52,-1.56 2.22,-2.3 0.7,-0.74 1.28,-1.38 1.76,-1.94 z"
               id="Shape"
               inkscape:connector-curvature="0"
               style="fill:#ffffff;fill-rule:nonzero" />
            <path
               d="m 75.58,29.1 c -0.62,0.16 -1.42,0.32 -2.42,0.48 -1.14,0.18 -2.32,0.26 -3.48,0.26 -0.98,0.02 -1.96,-0.14 -2.88,-0.5 -0.74,-0.3 -1.4,-0.78 -1.88,-1.42 -0.5,-0.64 -0.84,-1.38 -1.02,-2.16 -0.22,-0.9 -0.32,-1.84 -0.32,-2.76 v -8.34 h 2.66 v 7.78 c 0,1.82 0.28,3.1 0.86,3.9 0.58,0.78 1.54,1.18 2.88,1.18 0.28,0 0.58,0 0.88,-0.02 0.3,-0.02 0.6,-0.04 0.86,-0.08 0.26,-0.02 0.52,-0.06 0.72,-0.08 0.16,-0.02 0.32,-0.04 0.48,-0.1 V 14.66 h 2.66 z"
               id="path2010"
               inkscape:connector-curvature="0"
               style="fill:#ffffff;fill-rule:nonzero" />
            <path
               d="m 82.64,15.32 c 0.46,-0.28 0.96,-0.5 1.48,-0.66 0.74,-0.24 1.5,-0.36 2.28,-0.34 0.98,-0.02 1.96,0.18 2.84,0.58 0.82,0.36 1.54,0.92 2.1,1.6 0.6,0.72 1.04,1.56 1.3,2.46 0.3,1.02 0.46,2.08 0.44,3.14 0.02,1.1 -0.16,2.2 -0.52,3.24 -0.32,0.92 -0.84,1.74 -1.5,2.44 -0.66,0.68 -1.46,1.2 -2.34,1.54 -0.98,0.38 -2.04,0.56 -3.08,0.54 -1.1,0.02 -2.2,-0.08 -3.3,-0.26 C 81.38,29.42 80.6,29.26 80,29.08 V 7.8 l 2.66,-0.46 z m 0,11.9 c 0.38,0.1 0.74,0.16 1.12,0.22 0.6,0.08 1.2,0.1 1.82,0.1 1.44,0 2.58,-0.48 3.44,-1.42 0.86,-0.94 1.28,-2.28 1.28,-4.02 0,-0.72 -0.08,-1.44 -0.22,-2.14 -0.14,-0.62 -0.38,-1.2 -0.74,-1.74 -0.34,-0.48 -0.8,-0.88 -1.32,-1.14 -0.62,-0.3 -1.28,-0.44 -1.96,-0.42 -0.68,0 -1.36,0.12 -2,0.38 -0.5,0.18 -0.98,0.44 -1.4,0.78 z"
               id="path2012"
               inkscape:connector-curvature="0"
               style="fill:#ffffff;fill-rule:nonzero" />
            <path
               d="m 95.84,22.12 c -0.02,-1.18 0.16,-2.34 0.56,-3.44 0.34,-0.9 0.86,-1.74 1.52,-2.44 0.62,-0.64 1.36,-1.14 2.18,-1.46 0.8,-0.32 1.66,-0.48 2.52,-0.48 2,0 3.54,0.62 4.6,1.88 1.06,1.24 1.6,3.16 1.6,5.7 v 0.44 c 0,0.16 0,0.32 0,0.5 h -10.2 c 0.12,1.54 0.56,2.72 1.34,3.52 0.78,0.8 2,1.2 3.66,1.2 0.8,0.02 1.58,-0.06 2.36,-0.24 0.5,-0.12 0.98,-0.28 1.44,-0.48 l 0.38,2.22 c -0.54,0.24 -1.12,0.42 -1.7,0.54 -0.9,0.2 -1.84,0.3 -2.76,0.28 -1.14,0.02 -2.28,-0.18 -3.36,-0.58 -0.88,-0.36 -1.68,-0.9 -2.32,-1.62 -0.62,-0.7 -1.08,-1.54 -1.36,-2.44 -0.34,-1 -0.48,-2.06 -0.46,-3.1 z m 10.2,-1.46 c 0.02,-1.2 -0.28,-2.18 -0.9,-2.96 -0.62,-0.78 -1.48,-1.16 -2.56,-1.16 -0.56,-0.02 -1.12,0.12 -1.62,0.36 -0.46,0.22 -0.86,0.54 -1.18,0.94 -0.32,0.38 -0.58,0.84 -0.76,1.32 -0.18,0.48 -0.3,1 -0.36,1.52 z"
               id="path2014"
               inkscape:connector-curvature="0"
               style="fill:#ffffff;fill-rule:nonzero" />
            <path
               d="m 128.66,9.7 c -0.72,2.1 -1.42,4.04 -2.06,5.82 -0.66,1.78 -1.3,3.48 -1.94,5.08 -0.62,1.6 -1.26,3.14 -1.88,4.6 -0.62,1.46 -1.26,2.92 -1.9,4.34 h -2.6 c -0.64,-1.44 -1.28,-2.88 -1.9,-4.34 -0.62,-1.46 -1.24,-3 -1.88,-4.6 -0.64,-1.6 -1.3,-3.3 -1.96,-5.08 -0.66,-1.78 -1.36,-3.72 -2.06,-5.82 h 3.06 c 1.02,3.02 2.04,5.92 3.04,8.7 1,2.78 2.02,5.4 3.06,7.84 1.04,-2.42 2.06,-5.02 3.06,-7.82 1,-2.8 2,-5.7 3,-8.7 z"
               id="path2016"
               inkscape:connector-curvature="0"
               style="fill:#ffffff;fill-rule:nonzero" />
            <path
               d="m 132.38,11.96 c -0.46,0 -0.88,-0.16 -1.22,-0.48 -0.34,-0.34 -0.52,-0.8 -0.5,-1.28 -0.02,-0.48 0.16,-0.94 0.5,-1.28 0.68,-0.64 1.74,-0.64 2.44,0 0.34,0.34 0.52,0.8 0.5,1.28 0.02,0.48 -0.16,0.94 -0.5,1.28 -0.32,0.32 -0.76,0.5 -1.22,0.48 z m 1.34,17.56 h -2.66 V 14.66 h 2.66 z"
               id="path2018"
               inkscape:connector-curvature="0"
               style="fill:#ffffff;fill-rule:nonzero" />
            <path
               d="m 143.62,14.34 c 0.22,0 0.5,0.02 0.78,0.04 0.3,0.02 0.58,0.06 0.88,0.12 0.28,0.04 0.54,0.1 0.78,0.14 0.18,0.04 0.36,0.08 0.54,0.12 l -0.46,2.32 c -0.94,-0.3 -1.92,-0.46 -2.92,-0.42 -0.5,0 -0.98,0.06 -1.48,0.16 -0.48,0.1 -0.8,0.18 -0.96,0.22 v 12.5 h -2.66 V 15.28 c 0.76,-0.26 1.56,-0.48 2.34,-0.64 1.06,-0.2 2.1,-0.3 3.16,-0.3 z"
               id="path2020"
               inkscape:connector-curvature="0"
               style="fill:#ffffff;fill-rule:nonzero" />
            <path
               d="m 151.5,14.66 h 5.64 v 2.24 h -5.64 v 6.86 c -0.02,0.62 0.04,1.24 0.18,1.84 0.08,0.42 0.26,0.8 0.52,1.14 0.22,0.28 0.52,0.48 0.86,0.58 0.38,0.12 0.8,0.18 1.2,0.18 0.66,0.02 1.3,-0.06 1.94,-0.28 0.48,-0.18 0.82,-0.3 1.02,-0.38 l 0.52,2.2 c -0.46,0.2 -0.92,0.36 -1.4,0.5 -0.74,0.22 -1.52,0.32 -2.28,0.3 -0.86,0.02 -1.7,-0.1 -2.5,-0.38 -0.62,-0.24 -1.18,-0.64 -1.58,-1.16 -0.42,-0.56 -0.72,-1.22 -0.84,-1.9 -0.18,-0.86 -0.26,-1.74 -0.24,-2.62 V 10.5 l 2.66,-0.46 z"
               id="path2022"
               inkscape:connector-curvature="0"
               style="fill:#ffffff;fill-rule:nonzero" />
            <g
               id="Group-3">
              <path
                 d="M 4.62,7.3 4.64,7.28 4.62,7.3 C 4.34,7.52 4.12,7.82 3.98,8.16 4.12,7.82 4.34,7.52 4.62,7.3 Z"
                 id="path2024"
                 inkscape:connector-curvature="0" />
              <path
                 d="M 3.88,8.66 C 3.93,8.4933333 4.03,8.3266667 4.18,8.16 4.03,8.3266667 3.93,8.4933333 3.88,8.66 Z"
                 id="path2026"
                 inkscape:connector-curvature="0" />
              <path
                 d="m 11.9,35.17 c -0.153846,0 -0.346154,0 -0.5,-0.05 0.192308,0 0.346154,0.05 0.5,0.05 z"
                 id="path2028"
                 inkscape:connector-curvature="0" />
              <path
                 d="M 31.74,7.1 19.42,1.2 C 19.38,1.18 19.34,1.16 19.3,1.14 19.22,1.1 19.14,1.08 19.04,1.06 18.96,1.04 18.88,1.02 18.8,1.02 18.68,1 18.54,1 18.42,1 18.16,1 17.92,1 17.66,1.04 17.58,1.06 17.5,1.06 17.4,1.08 L 5.08,7.02 C 4.94,7.08 4.78,7.18 4.66,7.28 l -0.02,0.02 6.38,12.84 -4.8,-9.8 h 8.1 l 3.24,5.98 -1.12,2.08 -0.04,0.02 -3.28,-6.08 H 9.54 l 5.64,11.96 0.8,-1.52 c 0.26,-0.48 0.86,-0.68 1.36,-0.42 0.48,0.26 0.68,0.86 0.42,1.36 l -1.46,2.74 -1.12,2.08 3.28,6.58 3.1,-6.12 c -0.32,0.44 -0.96,0.54 -1.4,0.22 -0.4,-0.28 -0.52,-0.82 -0.3,-1.24 l 0.72,-1.44 c 0.28,-0.48 0.88,-0.64 1.36,-0.36 0.42,0.24 0.6,0.76 0.44,1.22 l 1.46,-2.88 c -0.32,0.44 -0.96,0.54 -1.4,0.2 -0.38,-0.28 -0.52,-0.8 -0.3,-1.24 l 1.44,-2.86 c 0.24,-0.5 0.84,-0.7 1.34,-0.44 0.5,0.26 0.7,0.84 0.44,1.34 l -0.36,0.7 1.84,-3.64 c -0.32,0.46 -0.94,0.58 -1.38,0.26 -0.42,-0.28 -0.56,-0.82 -0.34,-1.26 l 1.42,-2.86 c 0.24,-0.5 0.84,-0.7 1.34,-0.44 0.5,0.24 0.7,0.84 0.44,1.34 l -0.8,1.62 2.28,-4.5 c -0.28,0.48 -0.88,0.66 -1.36,0.38 -0.24,-0.14 -0.42,-0.38 -0.48,-0.66 h -1.2 c -0.56,0 -1,-0.44 -1,-1 0,-0.56 0.44,-1 1,-1 h 4.18 l -1,1.98 2.46,-4.86 C 32.32,7.5 32.24,7.44 32.16,7.38 32.04,7.28 31.9,7.18 31.74,7.1 Z m -10.52,10.5 -1.5,2.82 c -0.26,0.48 -0.86,0.68 -1.36,0.42 -0.5,-0.26 -0.68,-0.86 -0.42,-1.36 l 1.5,-2.82 c 0.26,-0.48 0.86,-0.68 1.36,-0.42 0.5,0.26 0.68,0.88 0.42,1.36 z m 3.08,-5.84 -1.5,2.84 c -0.26,0.48 -0.86,0.68 -1.36,0.42 -0.48,-0.26 -0.68,-0.86 -0.42,-1.36 l 1.76,-3.36 h 0.64 c 0.16,0 0.32,0.04 0.46,0.12 0.5,0.26 0.68,0.86 0.42,1.34 0,0 0,0 0,0 z"
                 id="path2030"
                 inkscape:connector-curvature="0"
                 style="fill:#00aab2;fill-rule:nonzero" />
              <path
                 d="M 4.66,7.28 C 4.8,7.18 4.94,7.1 5.08,7.02 L 17.4,1.08 C 17.48,1.06 17.56,1.04 17.64,1.04 17.9,1 18.16,1 18.42,1 c 0.12,0 0.26,0 0.38,0.02 0.08,0.02 0.18,0.02 0.26,0.04 0.08,0.02 0.18,0.04 0.26,0.08 0.04,0.02 0.08,0.04 0.12,0.06 l 12.32,5.9 c 0.16,0.08 0.3,0.18 0.42,0.28 0.08,0.06 0.16,0.12 0.24,0.2 L 32.8,6.84 C 32.6,6.68 32.38,6.52 32.14,6.4 H 32.12 32.1 L 19.78,0.48 c -0.42,-0.2 -0.9,-0.3 -1.36,-0.28 -0.4,-0.02 -0.8,0.02 -1.2,0.1 L 17.14,0.32 17.06,0.36 4.74,6.3 C 4.58,6.38 4.42,6.48 4.28,6.58 L 4.64,7.3 Z"
                 id="path2032"
                 inkscape:connector-curvature="0"
                 style="fill:#ffffff;fill-rule:nonzero" />
              <path
                 d="M 36.9,21.72 36.88,21.64 33.8,8.44 V 8.4 8.38 C 33.62,7.8 33.26,7.26 32.78,6.88 L 32.4,7.62 c 0.22,0.22 0.42,0.48 0.54,0.76 0.04,0.08 0.06,0.16 0.08,0.24 l 3.06,13.2 c 0.02,0.18 0.02,0.34 0.02,0.52 0,0.16 -0.04,0.3 -0.06,0.46 0,0.04 -0.02,0.08 -0.02,0.12 -0.08,0.3 -0.22,0.6 -0.4,0.86 l -3.68,4.56 -4.84,5.98 c -0.32,0.44 -0.82,0.72 -1.36,0.8 -0.16,0.02 -0.34,0.04 -0.5,0.04 h -6.78 l 3.08,0.8 h 3.7 c 1.06,0 1.94,-0.42 2.5,-1.16 l 8.52,-10.54 0.02,-0.02 0.02,-0.02 c 0.5,-0.74 0.72,-1.62 0.6,-2.5 z"
                 id="path2034"
                 inkscape:connector-curvature="0"
                 style="fill:#ffffff;fill-rule:nonzero" />
              <path
                 d="m 11.66,35.14 c -0.08,0 -0.18,-0.02 -0.26,-0.02 C 11.28,35.1 11.18,35.08 11.06,35.04 11,35.02 10.94,35 10.88,34.98 10.76,34.94 10.64,34.88 10.54,34.84 10.38,34.76 10.22,34.66 10.06,34.54 9.96,34.46 9.86,34.38 9.78,34.3 L 6.94,30.78 1.28,23.74 C 1.04,23.4 0.88,23 0.82,22.56 0.8,22.48 0.8,22.4 0.8,22.32 c 0,-0.18 0,-0.34 0.04,-0.52 L 3.88,8.52 C 3.9,8.4 3.94,8.28 4,8.16 4.14,7.82 4.36,7.54 4.64,7.3 L 4.28,6.58 C 3.68,7 3.26,7.62 3.1,8.34 L 0.06,21.62 v 0.02 0.02 c -0.16,0.9 0.06,1.8 0.58,2.54 l 0.02,0.02 0.02,0.02 8.5,10.56 0.02,0.04 0.04,0.02 c 0.64,0.64 1.48,1.02 2.38,1.08 h 6.84 v -0.8 z"
                 id="path2036"
                 inkscape:connector-curvature="0"
                 style="fill:#ffffff;fill-rule:nonzero" />
              <polygon
                 id="polygon2038"
                 points="18.46,35.14 18.46,35.94 21.54,35.94 "
                 style="fill:#ffffff;fill-rule:nonzero" />
              <path
                 d="M 15.16,28.6 11.02,20.16 4.62,7.3 C 4.34,7.52 4.12,7.82 3.98,8.16 3.94,8.28 3.9,8.4 3.86,8.52 L 0.84,21.8 C 0.8,21.98 0.8,22.14 0.8,22.32 c 0,0.08 0,0.16 0.02,0.26 0.06,0.42 0.22,0.82 0.46,1.18 l 5.68,7.04 2.84,3.48 c 0.08,0.08 0.18,0.16 0.28,0.24 0.14,0.12 0.3,0.22 0.48,0.3 0.12,0.06 0.22,0.1 0.34,0.14 0.06,0.02 0.12,0.04 0.18,0.06 0.1,0.04 0.22,0.06 0.34,0.08 0.08,0.02 0.18,0.02 0.26,0.02 h 6.8 l -3.26,-6.58 z"
                 id="path2040"
                 inkscape:connector-curvature="0"
                 style="fill:#00797f;fill-rule:nonzero" />
              <path
                 d="m 0.8,22.32 c 0,-0.18 0,-0.34 0.1,-0.52"
                 id="path2042"
                 inkscape:connector-curvature="0" />
              <path
                 d="m 10.3,34.8 c -0.178571,-0.166667 -0.3571429,-0.333333 -0.5,-0.5 0.1428571,0.166667 0.321429,0.333333 0.5,0.5 z"
                 id="path2044"
                 inkscape:connector-curvature="0"
                 style="fill:#00797f;fill-rule:nonzero" />
              <path
                 d="m 10.58,35.02 c -0.166667,-0.133333 -0.333333,-0.3 -0.5,-0.5"
                 id="path2046"
                 inkscape:connector-curvature="0" />
              <path
                 d="M 9.8,34.28 6.96,30.78"
                 id="path2048"
                 inkscape:connector-curvature="0" />
              <path
                 d="M 11.35,35.13 C 11.2,35.08 11.05,35.03 10.9,34.98"
                 id="path2050"
                 inkscape:connector-curvature="0" />
              <path
                 d="m 11.06,35.19 c -0.176471,-0.1 -0.352941,-0.25 -0.5,-0.35 0.147059,0.1 0.323529,0.25 0.5,0.35 z"
                 id="path2052"
                 inkscape:connector-curvature="0"
                 style="fill:#00797f;fill-rule:nonzero" />
              <path
                 d="m 29.82,12.7 -2.28,4.5 -0.62,1.24 c -0.02,0.04 -0.04,0.08 -0.06,0.1 l -1.84,3.62 -1.08,2.16 c -0.02,0.04 -0.06,0.1 -0.08,0.14 l -1.46,2.9 c 0,0.02 0,0.02 -0.02,0.04 l -0.72,1.44 c -0.02,0.04 -0.06,0.1 -0.08,0.14 l -3.1,6.12 h 6.78 c 0.16,0 0.34,-0.02 0.5,-0.04 0.54,-0.08 1.02,-0.36 1.36,-0.8 l 4.84,-5.98 3.68,-4.56 c 0.18,-0.26 0.32,-0.54 0.4,-0.86 0.02,-0.04 0.02,-0.08 0.02,-0.12 0.04,-0.16 0.06,-0.3 0.06,-0.46 0,-0.18 0,-0.34 -0.02,-0.52 L 33.04,8.6 C 33.02,8.52 32.98,8.44 32.96,8.36 32.84,8.08 32.64,7.82 32.42,7.6 l -2.46,4.84 z"
                 id="path2054"
                 inkscape:connector-curvature="0"
                 style="fill:#3accc5;fill-rule:nonzero" />
              <path
                 d="m 36.21,22.32 c 0,0.173913 -0.1,0.326087 -0.15,0.5"
                 id="path2056"
                 inkscape:connector-curvature="0" />
              <path
                 d="m 36.23,22.9 c -0.1,0.175 -0.2,0.35 -0.35,0.5"
                 id="path2058"
                 inkscape:connector-curvature="0" />
              <path
                 d="m 25.74,35.1 c 0.54,-0.08 1.02,-0.36 1.36,-0.8 l 4.84,-5.98"
                 id="path2060"
                 inkscape:connector-curvature="0" />
              <path
                 d="m 36.12,21.8 c 0.05,0.18 0.05,0.34 0.05,0.52"
                 id="path2062"
                 inkscape:connector-curvature="0" />
              <path
                 d="m 20.8,16.24 c -0.48,-0.26 -1.1,-0.08 -1.36,0.42 0,0 0,0 0,0 l -1.5,2.82 c -0.26,0.48 -0.08,1.1 0.42,1.36 0.48,0.26 1.1,0.08 1.36,-0.42 l 1.5,-2.82 c 0.26,-0.48 0.06,-1.1 -0.42,-1.36 0,0 0,0 0,0 z"
                 id="path2064"
                 inkscape:connector-curvature="0"
                 style="fill:#ffffff;fill-rule:nonzero" />
              <path
                 d="m 21.92,26.08 c -0.5,-0.24 -1.1,-0.04 -1.34,0.44 0,0 0,0 0,0 l -0.72,1.44 c -0.24,0.5 -0.04,1.1 0.46,1.34 0.44,0.22 0.96,0.08 1.24,-0.3 l 0.82,-1.62 c 0.22,-0.48 0.02,-1.06 -0.46,-1.3 z"
                 id="path2066"
                 inkscape:connector-curvature="0"
                 style="fill:#ffffff;fill-rule:nonzero" />
              <path
                 d="m 22.38,27.42 c 0,-0.02 0,-0.02 0.02,-0.04 L 21.58,29 c 0.04,-0.04 0.06,-0.08 0.08,-0.14 z"
                 id="path2068"
                 inkscape:connector-curvature="0"
                 style="fill:#ffffff;fill-rule:nonzero" />
              <path
                 d="m 16.3,26.48 1.46,-2.74 c 0.26,-0.48 0.08,-1.1 -0.42,-1.36 -0.48,-0.26 -1.1,-0.08 -1.36,0.42 l -0.8,1.52 -5.64,-11.98 h 3.58 l 3.28,6.08 0.04,-0.02 1.1,-2.06 -3.24,-6 H 6.2 l 4.8,9.8 4.18,8.4 z"
                 id="path2070"
                 inkscape:connector-curvature="0"
                 style="fill:#ffffff;fill-rule:nonzero" />
              <polygon
                 id="polygon2072"
                 points="15.18,28.56 11.02,20.16 15.16,28.6 "
                 style="fill:#ffffff;fill-rule:nonzero" />
              <path
                 d="m 30.94,10.46 h -4.18 c -0.56,0 -1,0.44 -1,1 0,0.56 0.44,1 1,1 h 1.2 c 0.12,0.54 0.66,0.88 1.2,0.76 0.28,-0.06 0.52,-0.24 0.66,-0.48 l 0.14,-0.28 z"
                 id="path2074"
                 inkscape:connector-curvature="0"
                 style="fill:#ffffff;fill-rule:nonzero" />
              <polygon
                 id="polygon2076"
                 points="30.17,12.44 29.82,12.94 29.87,12.904286 "
                 style="fill:#ffffff;fill-rule:nonzero" />
              <path
                 d="m 28.34,15.6 c 0.26,-0.5 0.06,-1.1 -0.44,-1.34 -0.5,-0.24 -1.1,-0.06 -1.34,0.44 0,0 0,0 0,0.02 l -1.42,2.86 c -0.24,0.5 -0.04,1.1 0.46,1.34 0.44,0.22 0.98,0.08 1.26,-0.34 l 0.68,-1.36 z"
                 id="path2078"
                 inkscape:connector-curvature="0"
                 style="fill:#ffffff;fill-rule:nonzero" />
              <path
                 d="m 27.54,17.22 -0.68,1.36 c 0.02,-0.04 0.04,-0.08 0.06,-0.1 z"
                 id="path2080"
                 inkscape:connector-curvature="0"
                 style="fill:#ffffff;fill-rule:nonzero" />
              <path
                 d="M 25.36,21.5 C 25.6,21 25.4,20.4 24.92,20.16 24.44,19.92 23.82,20.12 23.58,20.6 l -1.42,2.86 c -0.24,0.5 -0.04,1.1 0.46,1.34 0.44,0.22 0.96,0.08 1.24,-0.3 l 1.16,-2.3 z"
                 id="path2082"
                 inkscape:connector-curvature="0"
                 style="fill:#ffffff;fill-rule:nonzero" />
              <path
                 d="m 25.02,22.2 -1.16,2.3 c 0.04,-0.04 0.06,-0.1 0.08,-0.14 z"
                 id="path2084"
                 inkscape:connector-curvature="0"
                 style="fill:#ffffff;fill-rule:nonzero" />
              <path
                 d="M 23.88,10.42 C 23.74,10.34 23.58,10.3 23.42,10.3 H 22.8 l -1.76,3.36 c -0.32,0.46 -0.2,1.08 0.26,1.4 0.46,0.32 1.08,0.2 1.4,-0.26 0.04,-0.06 0.08,-0.12 0.1,-0.2 l 1.5,-2.82 c 0.26,-0.5 0.08,-1.1 -0.42,-1.36 0.02,0 0,0 0,0 z"
                 id="path2086"
                 inkscape:connector-curvature="0"
                 style="fill:#ffffff;fill-rule:nonzero" />
            </g>
          </g>
        </g>
        <path
           d="M 0.82,22.58 C 0.88,23 1.04,23.4 1.28,23.76 L 6.96,30.78 1.28,23.74 C 1.04,23.4 0.88,23 0.82,22.58 Z"
           id="path2091"
           inkscape:connector-curvature="0" />
        <path
           d="M 0.85,22.82 C 0.8,22.627692 0.8,22.473846 0.8,22.32 c 0,0.153846 0,0.307692 0.05,0.5 z"
           id="path2093"
           inkscape:connector-curvature="0" />
        <path
           d="m 11.56,35.24 c -0.176471,-0.05 -0.323529,-0.1 -0.5,-0.2 0.176471,0.05 0.323529,0.15 0.5,0.2 z"
           id="path2095"
           inkscape:connector-curvature="0" />
        <path
           d="m 18.8,1.02 c 0.153846,0.05 0.346154,0.05 0.5,0.1 -0.153846,-0.05 -0.346154,-0.05 -0.5,-0.1 z"
           id="path2097"
           inkscape:connector-curvature="0" />
        <path
           d="m 31.74,7.1 c 0.190476,0.1428571 0.357143,0.3214286 0.5,0.5 -0.142857,-0.1785714 -0.309524,-0.3571429 -0.5,-0.5 z"
           id="path2099"
           inkscape:connector-curvature="0" />
        <path
           d="m 36.09,22.78 c 0,0.1 -0.05,0.2 -0.05,0.3 0,-0.1 0,-0.2 0.05,-0.3 z"
           id="path2101"
           inkscape:connector-curvature="0" />
        <path
           d="m 19.04,1.06 c 0.153846,0.05 0.346154,0.1 0.5,0.2 -0.153846,-0.05 -0.307692,-0.15 -0.5,-0.2 z"
           id="path2103"
           inkscape:connector-curvature="0" />
        <path
           d="M 31.74,7.1 19.42,1.2 C 19.38,1.18 19.34,1.16 19.3,1.14 c 0.04,0.02 0.08,0.04 0.12,0.06 z"
           id="path2105"
           inkscape:connector-curvature="0" />
        <path
           d="M 18.8,1.05 C 18.68,1 18.54,1 18.42,1 18.16,1 17.92,1 17.66,1.1 17.9,1 18.16,1 18.42,1 c 0.12,0 0.26,0 0.38,0.05 z"
           id="path2107"
           inkscape:connector-curvature="0" />
        <path
           d="M 17.4,1.08 5.08,7.02 C 4.94,7.08 4.78,7.18 4.66,7.28 4.8,7.18 4.94,7.1 5.08,7.02 Z"
           id="path2109"
           inkscape:connector-curvature="0" />
        <path
           d="m 18.46,35.2 h -6.8 c -0.08,0 -0.18,0 -0.26,-0.05 0.08,0.05 0.18,0.05 0.26,0.05 h 13.58 c 0.16,0 0.34,-0.05 0.5,-0.1 -0.16,0.05 -0.34,0.1 -0.5,0.1 z"
           id="path2111"
           inkscape:connector-curvature="0" />
        <path
           d="M 36.12,21.8 33.04,8.6 C 33.02,8.52 32.98,8.44 32.96,8.36 33,8.44 33.02,8.52 33.04,8.6 Z"
           id="path2113"
           inkscape:connector-curvature="0" />
        <path
           d="m 33.46,26.42 2.16,-2.68 c 0.1,-0.14 0.18,-0.28 0.26,-0.44 -0.08,0.16 -0.16,0.3 -0.26,0.44 z"
           id="path2115"
           inkscape:connector-curvature="0" />
        <path
           d="M 3.88,8.52 0.84,21.8 3.88,8.52 C 3.98,8.04 4.26,7.62 4.64,7.3 L 4.66,7.28 C 4.26,7.58 3.98,8.02 3.88,8.52 Z"
           id="path2117"
           inkscape:connector-curvature="0" />
        <path
           d="m 11.02,20.16 -4.8,-9.8 h 8.1 l 3.24,5.98 -1.12,2.06 -0.04,0.02 -3.28,-6.08 H 9.54 l 5.64,11.96 0.8,-1.52 c 0.26,-0.48 0.86,-0.68 1.36,-0.42 0.48,0.26 0.68,0.86 0.42,1.36 l -1.46,2.74 -1.12,2.08 3.28,6.58 3.1,-6.12 c -0.32,0.44 -0.96,0.54 -1.4,0.22 -0.4,-0.28 -0.52,-0.82 -0.3,-1.24 l 0.72,-1.44 c 0.28,-0.48 0.88,-0.64 1.36,-0.36 0.42,0.24 0.6,0.76 0.44,1.22 l 1.46,-2.88 c -0.32,0.44 -0.96,0.54 -1.4,0.2 -0.38,-0.28 -0.52,-0.8 -0.3,-1.24 l 1.44,-2.86 c 0.24,-0.5 0.84,-0.7 1.34,-0.44 0.5,0.26 0.7,0.84 0.44,1.34 l -0.36,0.7 1.84,-3.64 c -0.32,0.46 -0.94,0.58 -1.38,0.26 -0.42,-0.28 -0.56,-0.82 -0.34,-1.26 l 1.42,-2.86 c 0.24,-0.5 0.84,-0.7 1.34,-0.44 0.5,0.24 0.7,0.84 0.44,1.34 l -0.8,1.62 2.28,-4.5 c -0.28,0.48 -0.88,0.66 -1.36,0.38 -0.24,-0.14 -0.42,-0.38 -0.48,-0.66 h -1.2 c -0.56,0 -1,-0.44 -1,-1 0,-0.56 0.44,-1 1,-1 h 4.18 l -1,1.98 2.46,-4.86 C 32.32,7.5 32.24,7.44 32.16,7.38 32.02,7.28 31.88,7.18 31.74,7.1 L 19.42,1.2 C 19.38,1.18 19.34,1.16 19.3,1.14 19.22,1.1 19.14,1.08 19.04,1.06 18.96,1.04 18.88,1.02 18.8,1.02 18.68,1 18.54,1 18.42,1 18.16,1 17.92,1 17.66,1.04 17.58,1.06 17.5,1.06 17.4,1.08 L 5.08,7.02 C 4.94,7.08 4.78,7.18 4.66,7.28 L 4.64,7.3 Z m 10.02,-6.5 1.76,-3.36 h 0.64 c 0.16,0 0.32,0.04 0.46,0.12 0.48,0.26 0.68,0.86 0.42,1.36 0,0 0,0 0,0 L 22.8,14.6 c -0.26,0.48 -0.86,0.68 -1.36,0.42 -0.48,-0.26 -0.66,-0.86 -0.4,-1.36 z m -3.08,5.84 1.5,-2.82 c 0.26,-0.48 0.86,-0.68 1.36,-0.42 0.5,0.26 0.68,0.86 0.42,1.36 l -1.5,2.82 c -0.26,0.48 -0.86,0.68 -1.36,0.42 -0.5,-0.26 -0.68,-0.88 -0.42,-1.36 z"
           id="path2119"
           inkscape:connector-curvature="0"
           style="fill:#00aab2;fill-rule:nonzero" />
        <path
           d="M 3.08,8.34 0.06,21.62 v 0.02 0.02 c -0.16,0.9 0.06,1.8 0.58,2.54 l 0.02,0.02 0.02,0.02 8.5,10.56 0.02,0.04 0.04,0.02 c 0.64,0.64 1.48,1.02 2.38,1.08 h 13.62 c 1.06,0 1.94,-0.42 2.5,-1.16 l 8.52,-10.54 0.02,-0.02 0.02,-0.02 c 0.52,-0.72 0.74,-1.62 0.62,-2.5 L 36.9,21.62 33.82,8.4 V 8.36 8.34 C 33.54,7.5 32.94,6.78 32.14,6.38 H 32.12 32.1 L 19.78,0.48 c -0.42,-0.2 -0.9,-0.3 -1.36,-0.28 -0.4,-0.02 -0.8,0.02 -1.2,0.1 L 17.14,0.32 17.06,0.36 4.74,6.3 C 3.9,6.68 3.3,7.44 3.08,8.34 Z M 5.1,7.02 17.4,1.08 C 17.48,1.06 17.56,1.04 17.64,1.04 17.9,1 18.16,1 18.42,1 c 0.12,0 0.26,0 0.38,0.02 0.08,0.02 0.18,0.02 0.26,0.04 0.08,0.02 0.18,0.04 0.26,0.08 0.04,0.02 0.08,0.04 0.12,0.06 l 12.32,5.9 c 0.16,0.08 0.3,0.18 0.42,0.28 0.08,0.06 0.16,0.12 0.24,0.2 0.22,0.22 0.42,0.48 0.54,0.76 0.04,0.08 0.06,0.16 0.08,0.24 l 3.08,13.22 c 0.04,0.32 0.02,0.66 -0.06,0.98 0,0.04 -0.02,0.08 -0.02,0.12 -0.08,0.3 -0.22,0.6 -0.4,0.86 l -2.16,2.68 -6.36,7.86 c -0.32,0.44 -0.82,0.72 -1.36,0.8 -0.16,0.02 -0.34,0.04 -0.5,0.04 h -13.6 c -0.08,0 -0.18,-0.02 -0.26,-0.02 C 11.28,35.1 11.18,35.08 11.06,35.04 10.58,34.9 10.14,34.64 9.78,34.3 L 6.94,30.78 1.28,23.74 C 1.04,23.4 0.88,23 0.82,22.56 0.8,22.48 0.8,22.4 0.8,22.32 c 0,-0.18 0,-0.34 0.04,-0.52 L 3.88,8.52 C 4,8.02 4.28,7.6 4.68,7.28 4.8,7.18 4.94,7.08 5.1,7.02 Z"
           id="path2121"
           inkscape:connector-curvature="0"
           style="fill:#ffffff;fill-rule:nonzero" />
        <path
           d="M 18.46,35.14 15.18,28.56 15.14,28.62 11.02,20.16 4.62,7.3 C 4.24,7.6 3.96,8.04 3.86,8.52 L 0.84,21.8 C 0.8,21.98 0.8,22.14 0.8,22.32 c 0,0.08 0,0.16 0.02,0.26 0.06,0.42 0.22,0.82 0.46,1.18 l 5.68,7.04 2.84,3.48 c 0.36,0.36 0.8,0.6 1.26,0.74 0.1,0.04 0.22,0.06 0.34,0.08 0.08,0.02 0.18,0.02 0.26,0.02 h 6.8 z"
           id="path2123"
           inkscape:connector-curvature="0"
           style="fill:#00797f;fill-rule:nonzero" />
        <path
           d="m 29.82,12.7 -2.28,4.5 -0.62,1.24 c -0.02,0.04 -0.04,0.08 -0.06,0.1 l -1.84,3.62 -1.08,2.16 c -0.02,0.04 -0.06,0.1 -0.08,0.14 l -1.46,2.9 c 0,0.02 0,0.02 -0.02,0.04 l -0.72,1.44 c -0.02,0.04 -0.06,0.1 -0.08,0.14 l -3.1,6.12 h 6.78 c 0.16,0 0.34,-0.02 0.5,-0.04 0.54,-0.08 1.02,-0.36 1.36,-0.8 l 6.36,-7.86 2.16,-2.68 c 0.18,-0.26 0.32,-0.54 0.4,-0.86 0.02,-0.04 0.02,-0.08 0.02,-0.12 0.08,-0.32 0.1,-0.64 0.06,-0.98 L 33.06,8.56 C 33.04,8.48 33,8.4 32.98,8.32 32.86,8.04 32.66,7.78 32.44,7.56 l -2.46,4.84 z"
           id="path2125"
           inkscape:connector-curvature="0"
           style="fill:#3accc5;fill-rule:nonzero" />
        <path
           d="m 18.36,20.84 c 0.48,0.26 1.1,0.08 1.36,-0.42 0,0 0,0 0,0 l 1.5,-2.82 c 0.26,-0.48 0.08,-1.1 -0.42,-1.36 -0.48,-0.26 -1.1,-0.08 -1.36,0.42 l -1.5,2.82 c -0.24,0.5 -0.06,1.1 0.42,1.36 0,0 0,0 0,0 z"
           id="path2127"
           inkscape:connector-curvature="0"
           style="fill:#ffffff;fill-rule:nonzero" />
        <path
           d="m 22.38,27.42 c 0,-0.02 0,-0.02 0.02,-0.04 0.2,-0.52 -0.06,-1.1 -0.58,-1.28 -0.46,-0.18 -0.98,0.02 -1.22,0.44 l -0.72,1.44 c -0.24,0.5 -0.04,1.1 0.46,1.34 0.5,0.24 1.08,0.04 1.34,-0.44 z"
           id="path2129"
           inkscape:connector-curvature="0"
           style="fill:#ffffff;fill-rule:nonzero" />
        <path
           d="m 15.18,28.56 1.12,-2.08 1.46,-2.74 c 0.26,-0.48 0.08,-1.1 -0.42,-1.36 -0.48,-0.26 -1.1,-0.08 -1.36,0.42 l -0.8,1.52 -5.64,-11.98 h 3.58 l 3.28,6.08 0.04,-0.02 1.1,-2.06 -3.24,-6 H 6.2 l 4.8,9.8 4.16,8.46 z"
           id="path2131"
           inkscape:connector-curvature="0"
           style="fill:#ffffff;fill-rule:nonzero" />
        <path
           d="m 29.96,12.44 1,-1.98 h -4.18 c -0.56,0 -1,0.44 -1,1 0,0.56 0.44,1 1,1 h 1.2 c 0.12,0.54 0.66,0.88 1.2,0.76 0.28,-0.06 0.52,-0.24 0.66,-0.48 l 0.02,-0.02 z"
           id="path2133"
           inkscape:connector-curvature="0"
           style="fill:#ffffff;fill-rule:nonzero" />
        <path
           d="m 27.54,17.22 0.8,-1.62 c 0.26,-0.5 0.06,-1.1 -0.44,-1.34 -0.5,-0.24 -1.1,-0.06 -1.34,0.44 0,0 0,0 0,0.02 l -1.42,2.86 c -0.24,0.5 -0.04,1.1 0.46,1.34 0.5,0.24 1.08,0.04 1.34,-0.44 z"
           id="path2135"
           inkscape:connector-curvature="0"
           style="fill:#ffffff;fill-rule:nonzero" />
        <path
           d="m 25.02,22.2 0.36,-0.7 c 0.24,-0.5 0.04,-1.1 -0.44,-1.34 -0.48,-0.24 -1.1,-0.04 -1.34,0.44 l -1.42,2.86 c -0.24,0.5 -0.04,1.1 0.46,1.34 0.5,0.24 1.08,0.04 1.34,-0.44 z"
           id="path2137"
           inkscape:connector-curvature="0"
           style="fill:#ffffff;fill-rule:nonzero" />
        <path
           d="m 21.46,15.02 c 0.48,0.26 1.08,0.08 1.34,-0.42 l 1.5,-2.82 c 0.26,-0.48 0.08,-1.1 -0.42,-1.36 0,0 0,0 0,0 -0.14,-0.08 -0.3,-0.12 -0.46,-0.12 H 22.8 l -1.76,3.36 c -0.24,0.5 -0.06,1.08 0.42,1.36 z"
           id="path2139"
           inkscape:connector-curvature="0"
           style="fill:#ffffff;fill-rule:nonzero" />
      </g>
    </g>
  </g>
  <text
     xml:space="preserve"
     style="font-style:normal;font-variant:normal;font-weight:normal;font-stretch:normal;font-size:39.066185px;line-height:1.25;font-family:'Nunito Sans';-inkscape-font-specification:'Nunito Sans, Normal';font-variant-ligatures:normal;font-variant-caps:normal;font-variant-numeric:normal;font-feature-settings:normal;text-align:start;letter-spacing:0px;word-spacing:0px;writing-mode:lr-tb;text-anchor:start;stroke-width:1.04641569"
     x="174.68137"
     y="390.72986"
     id="text4107"><tspan
       sodipodi:role="line"
       id="tspan4105"
       x="174.68137"
       y="390.72986"
       style="font-style:normal;font-variant:normal;font-weight:normal;font-stretch:normal;font-size:39.066185px;font-family:'Nunito Sans';-inkscape-font-specification:'Nunito Sans, Normal';font-variant-ligatures:normal;font-variant-caps:normal;font-variant-numeric:normal;font-feature-settings:normal;text-align:start;writing-mode:lr-tb;text-anchor:start;fill:#ffffff;fill-opacity:1;stroke-width:1.04641569">Virtual Machine Management on Kubernetes</tspan></text>
  <g
     id="g4214"
     transform="matrix(1.0464157,0,0,1.0464157,111.01195,373.90803)">
    <text
       id="text4107-6"
       y="177.50124"
       x="367.45679"
       style="font-style:normal;font-variant:normal;font-weight:normal;font-stretch:normal;font-size:37.33333206px;line-height:1.25;font-family:'Nunito Sans';-inkscape-font-specification:'Nunito Sans, Normal';font-variant-ligatures:normal;font-variant-caps:normal;font-variant-numeric:normal;font-feature-settings:normal;text-align:start;letter-spacing:0px;word-spacing:0px;writing-mode:lr-tb;text-anchor:start"
       xml:space="preserve"><tspan
         style="font-style:normal;font-variant:normal;font-weight:normal;font-stretch:normal;font-size:26.66666603px;font-family:'Nunito Sans';-inkscape-font-specification:'Nunito Sans, Normal';font-variant-ligatures:normal;font-variant-caps:normal;font-variant-numeric:normal;font-feature-settings:normal;text-align:start;writing-mode:lr-tb;text-anchor:start;fill:#ffffff;fill-opacity:1"
         y="177.50124"
         x="367.45679"
         id="tspan4105-8"
         sodipodi:role="line">kubevirt.io</tspan></text>
    <text
       id="text4107-4"
       y="242.79819"
       x="275.11365"
       style="font-style:normal;font-variant:normal;font-weight:normal;font-stretch:normal;font-size:37.33333206px;line-height:1.25;font-family:'Nunito Sans';-inkscape-font-specification:'Nunito Sans, Normal';font-variant-ligatures:normal;font-variant-caps:normal;font-variant-numeric:normal;font-feature-settings:normal;text-align:start;letter-spacing:0px;word-spacing:0px;writing-mode:lr-tb;text-anchor:start"
       xml:space="preserve"><tspan
         style="font-style:normal;font-variant:normal;font-weight:normal;font-stretch:normal;font-size:26.66666603px;font-family:'Nunito Sans';-inkscape-font-specification:'Nunito Sans, Normal';font-variant-ligatures:normal;font-variant-caps:normal;font-variant-numeric:normal;font-feature-settings:normal;text-align:start;writing-mode:lr-tb;text-anchor:start;fill:#ffffff;fill-opacity:1"
         y="242.79819"
         x="275.11365"
         id="tspan4105-6"
         sodipodi:role="line">Reimagining virtualization</tspan></text>
  </g>
</svg>
