<?xml version="1.0" encoding="UTF-8" standalone="no"?>
<svg
   xmlns:dc="http://purl.org/dc/elements/1.1/"
   xmlns:cc="http://creativecommons.org/ns#"
   xmlns:rdf="http://www.w3.org/1999/02/22-rdf-syntax-ns#"
   xmlns:svg="http://www.w3.org/2000/svg"
   xmlns="http://www.w3.org/2000/svg"
   xmlns:sodipodi="http://sodipodi.sourceforge.net/DTD/sodipodi-0.dtd"
   xmlns:inkscape="http://www.inkscape.org/namespaces/inkscape"
   width="297mm"
   height="420mm"
   viewBox="0 0 1122.5197 1587.4016"
   version="1.1"
   id="svg2144"
   sodipodi:docname="KubeVirt_banner_white.svg"
   inkscape:version="0.92.4 (unknown)">
  <metadata
     id="metadata2148">
    <rdf:RDF>
      <cc:Work
         rdf:about="">
        <dc:format>image/svg+xml</dc:format>
        <dc:type
           rdf:resource="http://purl.org/dc/dcmitype/StillImage" />
        <dc:title>KubeVirt_logo</dc:title>
      </cc:Work>
    </rdf:RDF>
  </metadata>
  <sodipodi:namedview
     pagecolor="#ffffff"
     bordercolor="#666666"
     borderopacity="1"
     objecttolerance="10"
     gridtolerance="10"
     guidetolerance="10"
     inkscape:pageopacity="0"
     inkscape:pageshadow="2"
     inkscape:window-width="1916"
     inkscape:window-height="1161"
     id="namedview2146"
     showgrid="false"
     inkscape:zoom="0.46096202"
     inkscape:cx="752.06279"
     inkscape:cy="1055.2429"
     inkscape:window-x="2176"
     inkscape:window-y="978"
     inkscape:window-maximized="0"
     inkscape:current-layer="svg2144"
     units="mm" />
  <!-- Generator: Sketch 51.2 (57519) - http://www.bohemiancoding.com/sketch -->
  <title
     id="title2003">KubeVirt_logo</title>
  <desc
     id="desc2005">Created with Sketch.</desc>
  <defs
     id="defs2007" />
  <g
     id="g4721"
     transform="translate(61.700524,-3801.7002)">
    <path
       d="m 416.28439,4121.7391 c -2.81741,3.0052 -5.91656,6.3861 -9.39137,10.1427 -3.4748,3.7565 -7.13744,7.5131 -10.9879,11.4574 -3.75655,3.8505 -7.51309,7.701 -11.26964,11.4575 -3.75655,3.7565 -7.32527,7.2314 -10.61225,10.5183 4.32003,3.0053 8.35832,6.3862 12.20878,9.9549 4.32003,3.9444 8.54615,8.1705 12.58444,12.5844 4.1322,4.5079 7.98266,9.0157 11.6453,13.7114 3.28697,4.2261 6.38613,8.6401 9.01571,13.3358 h -15.30793 c -2.81741,-4.414 -5.91657,-8.6401 -9.29746,-12.6784 -3.47481,-4.2261 -7.23135,-8.3583 -11.08181,-12.2088 -3.85047,-3.8504 -7.79484,-7.5131 -11.83313,-10.8 -3.66263,-3.0992 -7.5131,-5.9166 -11.6453,-8.4523 v 44.1395 h -13.054 v -93.1624 h 13.054 v 41.1342 c 3.09915,-2.9113 6.57396,-6.2922 10.33051,-10.0488 3.75655,-3.7565 7.51309,-7.4192 11.17573,-11.1757 3.66263,-3.7566 7.13744,-7.3253 10.42442,-10.8001 3.28698,-3.4748 6.01047,-6.48 8.2644,-9.1096 z"
       id="Shape"
       inkscape:connector-curvature="0"
       style="fill:#000000;fill-opacity:1;fill-rule:nonzero;stroke:none;stroke-width:4.69568491;stroke-opacity:1" />
    <path
       d="m 484.09008,4212.8354 c -2.91132,0.7513 -6.66787,1.5026 -11.36355,2.2539 -5.35308,0.8452 -10.89399,1.2209 -16.34099,1.2209 -4.60177,0.094 -9.20354,-0.6574 -13.52357,-2.3479 -3.47481,-1.4087 -6.57396,-3.6626 -8.82789,-6.6678 -2.34784,-3.0053 -3.94437,-6.4801 -4.78959,-10.1427 -1.03306,-4.2261 -1.50262,-8.6401 -1.50262,-12.9601 v -39.162 h 12.49052 v 36.5324 c 0,8.5462 1.31479,14.5566 4.03829,18.3132 2.72349,3.6626 7.23135,5.5409 13.52357,5.5409 1.31479,0 2.7235,0 4.1322,-0.094 1.40871,-0.094 2.81741,-0.1878 4.03829,-0.3757 1.22088,-0.094 2.44176,-0.2817 3.38089,-0.3756 0.75131,-0.094 1.50262,-0.1878 2.25393,-0.4696 v -59.0717 h 12.49052 z"
       id="path2010"
       inkscape:connector-curvature="0"
       style="fill:#000000;fill-opacity:1;fill-rule:nonzero;stroke:none;stroke-width:4.69568491;stroke-opacity:1" />
    <path
       d="m 517.24162,4148.1288 c 2.16002,-1.3148 4.50786,-2.3478 6.94961,-3.0991 3.47481,-1.127 7.04353,-1.6905 10.70617,-1.5966 4.60177,-0.094 9.20354,0.8453 13.33574,2.7235 3.85046,1.6905 7.23136,4.3201 9.86094,7.5131 2.81741,3.3809 4.88351,7.3253 6.10439,11.5514 1.4087,4.7896 2.16001,9.767 2.0661,14.7445 0.0939,5.1652 -0.75131,10.3305 -2.44176,15.214 -1.50261,4.32 -3.94437,8.1705 -7.04352,11.4575 -3.09916,3.193 -6.8557,5.6348 -10.98791,7.2313 -4.60177,1.7844 -9.57919,2.6296 -14.46271,2.5357 -5.16525,0.094 -10.3305,-0.3757 -15.49576,-1.2209 -4.50785,-0.8452 -8.17049,-1.5965 -10.9879,-2.4417 v -99.9242 l 12.49052,-2.16 z m 0,55.8787 c 1.78436,0.4695 3.47481,0.7513 5.25917,1.033 2.81741,0.3757 5.63482,0.4696 8.54614,0.4696 6.76179,0 12.11487,-2.2539 16.15316,-6.6679 4.03829,-4.4139 6.01048,-10.7061 6.01048,-18.8766 0,-3.3809 -0.37566,-6.7618 -1.03305,-10.0488 -0.6574,-2.9113 -1.78436,-5.6348 -3.47481,-8.1705 -1.59653,-2.2539 -3.75655,-4.1322 -6.19831,-5.3531 -2.91132,-1.4087 -6.01047,-2.0661 -9.20354,-1.9722 -3.19306,0 -6.38613,0.5635 -9.39137,1.7844 -2.34784,0.8452 -4.60177,2.0661 -6.57396,3.6626 z"
       id="path2012"
       inkscape:connector-curvature="0"
       style="fill:#000000;fill-opacity:1;fill-rule:nonzero;stroke:none;stroke-width:4.69568491;stroke-opacity:1" />
    <path
       d="m 579.22466,4180.0595 c -0.0939,-5.5409 0.75131,-10.9879 2.62958,-16.1532 1.59654,-4.2261 4.03829,-8.1705 7.13745,-11.4574 2.91132,-3.0053 6.38613,-5.3531 10.23659,-6.8557 3.75655,-1.5027 7.79484,-2.254 11.83312,-2.254 9.39137,0 16.62273,2.9114 21.60015,8.8279 4.97743,5.8227 7.5131,14.8384 7.5131,26.7654 v 2.0661 c 0,0.7513 0,1.5026 0,2.3479 h -47.89599 c 0.56349,7.2313 2.62959,12.7722 6.29222,16.5288 3.66264,3.7565 9.39137,5.6348 17.18621,5.6348 3.75655,0.094 7.41918,-0.2817 11.08182,-1.127 2.34784,-0.5634 4.60177,-1.3148 6.76178,-2.2539 l 1.78436,10.4244 c -2.53567,1.127 -5.25916,1.9722 -7.98266,2.5357 -4.22612,0.9391 -8.64006,1.4087 -12.96009,1.3148 -5.35308,0.094 -10.70616,-0.8452 -15.7775,-2.7235 -4.13221,-1.6905 -7.88875,-4.2261 -10.89399,-7.607 -2.91133,-3.287 -5.07134,-7.2314 -6.38613,-11.4575 -1.59654,-4.6957 -2.25393,-9.6731 -2.16002,-14.5566 z m 47.89599,-6.8557 c 0.0939,-5.6348 -1.31479,-10.2366 -4.22612,-13.8992 -2.91132,-3.6627 -6.94961,-5.447 -12.02095,-5.447 -2.62959,-0.094 -5.25917,0.5634 -7.60701,1.6904 -2.16002,1.0331 -4.03829,2.5357 -5.54091,4.414 -1.50262,1.7843 -2.7235,3.9443 -3.56872,6.1983 -0.84522,2.2539 -1.40871,4.6956 -1.69045,7.1374 z"
       id="path2014"
       inkscape:connector-curvature="0"
       style="fill:#000000;fill-opacity:1;fill-rule:nonzero;stroke:none;stroke-width:4.69568491;stroke-opacity:1" />
    <path
       d="m 733.33704,4121.7391 c -3.38089,9.8609 -6.66787,18.9705 -9.67311,27.3289 -3.09915,8.3583 -6.10439,16.3409 -9.10963,23.854 -2.91133,7.5131 -5.91656,14.7445 -8.82789,21.6002 -2.91132,6.8557 -5.91656,13.7114 -8.9218,20.3793 h -12.20878 c -3.00524,-6.7618 -6.01048,-13.5236 -8.9218,-20.3793 -2.91133,-6.8557 -5.82265,-14.0871 -8.82789,-21.6002 -3.00524,-7.5131 -6.10439,-15.4957 -9.20354,-23.854 -3.09915,-8.3584 -6.38613,-17.468 -9.67311,-27.3289 h 14.36879 c 4.7896,14.1809 9.5792,27.7984 14.27489,40.8524 4.69568,13.054 9.48528,25.3567 14.36879,36.8142 4.88351,-11.3636 9.67311,-23.5723 14.3688,-36.7202 4.69568,-13.148 9.39137,-26.7655 14.08705,-40.8525 z"
       id="path2016"
       inkscape:connector-curvature="0"
       style="fill:#000000;fill-opacity:1;fill-rule:nonzero;stroke:none;stroke-width:4.69568491;stroke-opacity:1" />
    <path
       d="m 750.80499,4132.3513 c -2.16002,0 -4.13221,-0.7513 -5.72874,-2.2539 -1.59653,-1.5965 -2.44175,-3.7566 -2.34784,-6.0105 -0.0939,-2.2539 0.75131,-4.4139 2.34784,-6.0105 3.19307,-3.0052 8.17049,-3.0052 11.45747,0 1.59654,1.5966 2.44176,3.7566 2.34785,6.0105 0.0939,2.2539 -0.75131,4.414 -2.34785,6.0105 -1.50262,1.5026 -3.56872,2.3478 -5.72873,2.2539 z m 6.29221,82.4563 h -12.49052 v -69.7779 h 12.49052 z"
       id="path2018"
       inkscape:connector-curvature="0"
       style="fill:#000000;fill-opacity:1;fill-rule:nonzero;stroke:none;stroke-width:4.69568491;stroke-opacity:1" />
    <path
       d="m 803.58449,4143.5271 c 1.03305,0 2.34784,0.094 3.66263,0.1878 1.40871,0.094 2.7235,0.2817 4.1322,0.5635 1.31479,0.1878 2.53567,0.4695 3.66264,0.6574 0.84522,0.1878 1.69044,0.3756 2.53567,0.5634 l -2.16002,10.894 c -4.41394,-1.4087 -9.01571,-2.16 -13.7114,-1.9722 -2.34784,0 -4.60177,0.2818 -6.94961,0.7514 -2.25393,0.4695 -3.75655,0.8452 -4.50786,1.033 v 58.6961 h -12.49052 v -66.9605 c 3.56872,-1.2209 7.32527,-2.2539 10.9879,-3.0052 4.97743,-0.9392 9.86094,-1.4087 14.83837,-1.4087 z"
       id="path2020"
       inkscape:connector-curvature="0"
       style="fill:#000000;fill-opacity:1;fill-rule:nonzero;stroke:none;stroke-width:4.69568491;stroke-opacity:1" />
    <path
       d="m 840.58648,4145.0297 h 26.48367 v 10.5183 h -26.48367 v 32.2124 c -0.0939,2.9113 0.18783,5.8227 0.84523,8.6401 0.37565,1.9722 1.22087,3.7565 2.44175,5.353 1.03305,1.3148 2.44176,2.254 4.03829,2.7235 1.78436,0.5635 3.75655,0.8453 5.63482,0.8453 3.09915,0.094 6.10439,-0.2818 9.10963,-1.3148 2.25393,-0.8452 3.85046,-1.4087 4.7896,-1.7844 l 2.44176,10.3305 c -2.16002,0.9392 -4.32003,1.6905 -6.57396,2.3479 -3.47481,1.033 -7.13744,1.5026 -10.70616,1.4087 -4.03829,0.094 -7.98267,-0.4696 -11.73922,-1.7844 -2.91132,-1.127 -5.5409,-3.0052 -7.41918,-5.447 -1.97219,-2.6296 -3.38089,-5.7287 -3.94437,-8.9218 -0.84523,-4.0383 -1.22088,-8.1705 -1.12697,-12.3027 v -62.3587 l 12.49052,-2.16 z"
       id="path2022"
       inkscape:connector-curvature="0"
       style="fill:#000000;fill-opacity:1;fill-rule:nonzero;stroke:none;stroke-width:4.69568491;stroke-opacity:1" />
    <g
       transform="matrix(4.6956849,0,0,4.6956849,129.19022,4076.1909)"
       id="Group-3"
       style="fill:none;fill-rule:evenodd;stroke:none;stroke-width:1">
      <path
         d="M 4.62,7.3 4.64,7.28 4.62,7.3 C 4.34,7.52 4.12,7.82 3.98,8.16 4.12,7.82 4.34,7.52 4.62,7.3 Z"
         id="path2024"
         inkscape:connector-curvature="0" />
      <path
         d="M 3.88,8.66 C 3.93,8.4933333 4.03,8.3266667 4.18,8.16 4.03,8.3266667 3.93,8.4933333 3.88,8.66 Z"
         id="path2026"
         inkscape:connector-curvature="0" />
      <path
         d="m 11.9,35.17 c -0.153846,0 -0.346154,0 -0.5,-0.05 0.192308,0 0.346154,0.05 0.5,0.05 z"
         id="path2028"
         inkscape:connector-curvature="0" />
      <path
         d="M 31.74,7.1 19.42,1.2 C 19.38,1.18 19.34,1.16 19.3,1.14 19.22,1.1 19.14,1.08 19.04,1.06 18.96,1.04 18.88,1.02 18.8,1.02 18.68,1 18.54,1 18.42,1 18.16,1 17.92,1 17.66,1.04 17.58,1.06 17.5,1.06 17.4,1.08 L 5.08,7.02 C 4.94,7.08 4.78,7.18 4.66,7.28 l -0.02,0.02 6.38,12.84 -4.8,-9.8 h 8.1 l 3.24,5.98 -1.12,2.08 -0.04,0.02 -3.28,-6.08 H 9.54 l 5.64,11.96 0.8,-1.52 c 0.26,-0.48 0.86,-0.68 1.36,-0.42 0.48,0.26 0.68,0.86 0.42,1.36 l -1.46,2.74 -1.12,2.08 3.28,6.58 3.1,-6.12 c -0.32,0.44 -0.96,0.54 -1.4,0.22 -0.4,-0.28 -0.52,-0.82 -0.3,-1.24 l 0.72,-1.44 c 0.28,-0.48 0.88,-0.64 1.36,-0.36 0.42,0.24 0.6,0.76 0.44,1.22 l 1.46,-2.88 c -0.32,0.44 -0.96,0.54 -1.4,0.2 -0.38,-0.28 -0.52,-0.8 -0.3,-1.24 l 1.44,-2.86 c 0.24,-0.5 0.84,-0.7 1.34,-0.44 0.5,0.26 0.7,0.84 0.44,1.34 l -0.36,0.7 1.84,-3.64 c -0.32,0.46 -0.94,0.58 -1.38,0.26 -0.42,-0.28 -0.56,-0.82 -0.34,-1.26 l 1.42,-2.86 c 0.24,-0.5 0.84,-0.7 1.34,-0.44 0.5,0.24 0.7,0.84 0.44,1.34 l -0.8,1.62 2.28,-4.5 c -0.28,0.48 -0.88,0.66 -1.36,0.38 -0.24,-0.14 -0.42,-0.38 -0.48,-0.66 h -1.2 c -0.56,0 -1,-0.44 -1,-1 0,-0.56 0.44,-1 1,-1 h 4.18 l -1,1.98 2.46,-4.86 C 32.32,7.5 32.24,7.44 32.16,7.38 32.04,7.28 31.9,7.18 31.74,7.1 Z m -10.52,10.5 -1.5,2.82 c -0.26,0.48 -0.86,0.68 -1.36,0.42 -0.5,-0.26 -0.68,-0.86 -0.42,-1.36 l 1.5,-2.82 c 0.26,-0.48 0.86,-0.68 1.36,-0.42 0.5,0.26 0.68,0.88 0.42,1.36 z m 3.08,-5.84 -1.5,2.84 c -0.26,0.48 -0.86,0.68 -1.36,0.42 -0.48,-0.26 -0.68,-0.86 -0.42,-1.36 l 1.76,-3.36 h 0.64 c 0.16,0 0.32,0.04 0.46,0.12 0.5,0.26 0.68,0.86 0.42,1.34 0,0 0,0 0,0 z"
         id="path2030"
         inkscape:connector-curvature="0"
         style="fill:#00aab2;fill-rule:nonzero" />
      <path
         d="M 4.66,7.28 C 4.8,7.18 4.94,7.1 5.08,7.02 L 17.4,1.08 C 17.48,1.06 17.56,1.04 17.64,1.04 17.9,1 18.16,1 18.42,1 c 0.12,0 0.26,0 0.38,0.02 0.08,0.02 0.18,0.02 0.26,0.04 0.08,0.02 0.18,0.04 0.26,0.08 0.04,0.02 0.08,0.04 0.12,0.06 l 12.32,5.9 c 0.16,0.08 0.3,0.18 0.42,0.28 0.08,0.06 0.16,0.12 0.24,0.2 L 32.8,6.84 C 32.6,6.68 32.38,6.52 32.14,6.4 H 32.12 32.1 L 19.78,0.48 c -0.42,-0.2 -0.9,-0.3 -1.36,-0.28 -0.4,-0.02 -0.8,0.02 -1.2,0.1 L 17.14,0.32 17.06,0.36 4.74,6.3 C 4.58,6.38 4.42,6.48 4.28,6.58 L 4.64,7.3 Z"
         id="path2032"
         inkscape:connector-curvature="0"
         style="fill:#ffffff;fill-rule:nonzero" />
      <path
         d="M 36.9,21.72 36.88,21.64 33.8,8.44 V 8.4 8.38 C 33.62,7.8 33.26,7.26 32.78,6.88 L 32.4,7.62 c 0.22,0.22 0.42,0.48 0.54,0.76 0.04,0.08 0.06,0.16 0.08,0.24 l 3.06,13.2 c 0.02,0.18 0.02,0.34 0.02,0.52 0,0.16 -0.04,0.3 -0.06,0.46 0,0.04 -0.02,0.08 -0.02,0.12 -0.08,0.3 -0.22,0.6 -0.4,0.86 l -3.68,4.56 -4.84,5.98 c -0.32,0.44 -0.82,0.72 -1.36,0.8 -0.16,0.02 -0.34,0.04 -0.5,0.04 h -6.78 l 3.08,0.8 h 3.7 c 1.06,0 1.94,-0.42 2.5,-1.16 l 8.52,-10.54 0.02,-0.02 0.02,-0.02 c 0.5,-0.74 0.72,-1.62 0.6,-2.5 z"
         id="path2034"
         inkscape:connector-curvature="0"
         style="fill:#ffffff;fill-rule:nonzero" />
      <path
         d="m 11.66,35.14 c -0.08,0 -0.18,-0.02 -0.26,-0.02 C 11.28,35.1 11.18,35.08 11.06,35.04 11,35.02 10.94,35 10.88,34.98 10.76,34.94 10.64,34.88 10.54,34.84 10.38,34.76 10.22,34.66 10.06,34.54 9.96,34.46 9.86,34.38 9.78,34.3 L 6.94,30.78 1.28,23.74 C 1.04,23.4 0.88,23 0.82,22.56 0.8,22.48 0.8,22.4 0.8,22.32 c 0,-0.18 0,-0.34 0.04,-0.52 L 3.88,8.52 C 3.9,8.4 3.94,8.28 4,8.16 4.14,7.82 4.36,7.54 4.64,7.3 L 4.28,6.58 C 3.68,7 3.26,7.62 3.1,8.34 L 0.06,21.62 v 0.02 0.02 c -0.16,0.9 0.06,1.8 0.58,2.54 l 0.02,0.02 0.02,0.02 8.5,10.56 0.02,0.04 0.04,0.02 c 0.64,0.64 1.48,1.02 2.38,1.08 h 6.84 v -0.8 z"
         id="path2036"
         inkscape:connector-curvature="0"
         style="fill:#ffffff;fill-rule:nonzero" />
      <polygon
         id="polygon2038"
         points="21.54,35.94 18.46,35.14 18.46,35.94 "
         style="fill:#ffffff;fill-rule:nonzero" />
      <path
         d="M 15.16,28.6 11.02,20.16 4.62,7.3 C 4.34,7.52 4.12,7.82 3.98,8.16 3.94,8.28 3.9,8.4 3.86,8.52 L 0.84,21.8 C 0.8,21.98 0.8,22.14 0.8,22.32 c 0,0.08 0,0.16 0.02,0.26 0.06,0.42 0.22,0.82 0.46,1.18 l 5.68,7.04 2.84,3.48 c 0.08,0.08 0.18,0.16 0.28,0.24 0.14,0.12 0.3,0.22 0.48,0.3 0.12,0.06 0.22,0.1 0.34,0.14 0.06,0.02 0.12,0.04 0.18,0.06 0.1,0.04 0.22,0.06 0.34,0.08 0.08,0.02 0.18,0.02 0.26,0.02 h 6.8 l -3.26,-6.58 z"
         id="path2040"
         inkscape:connector-curvature="0"
         style="fill:#00797f;fill-rule:nonzero" />
      <path
         d="m 0.8,22.32 c 0,-0.18 0,-0.34 0.1,-0.52"
         id="path2042"
         inkscape:connector-curvature="0" />
      <path
         d="m 10.3,34.8 c -0.178571,-0.166667 -0.3571429,-0.333333 -0.5,-0.5 0.1428571,0.166667 0.321429,0.333333 0.5,0.5 z"
         id="path2044"
         inkscape:connector-curvature="0"
         style="fill:#00797f;fill-rule:nonzero" />
      <path
         d="m 10.58,35.02 c -0.166667,-0.133333 -0.333333,-0.3 -0.5,-0.5"
         id="path2046"
         inkscape:connector-curvature="0" />
      <path
         d="M 9.8,34.28 6.96,30.78"
         id="path2048"
         inkscape:connector-curvature="0" />
      <path
         d="M 11.35,35.13 C 11.2,35.08 11.05,35.03 10.9,34.98"
         id="path2050"
         inkscape:connector-curvature="0" />
      <path
         d="m 11.06,35.19 c -0.176471,-0.1 -0.352941,-0.25 -0.5,-0.35 0.147059,0.1 0.323529,0.25 0.5,0.35 z"
         id="path2052"
         inkscape:connector-curvature="0"
         style="fill:#00797f;fill-rule:nonzero" />
      <path
         d="m 29.82,12.7 -2.28,4.5 -0.62,1.24 c -0.02,0.04 -0.04,0.08 -0.06,0.1 l -1.84,3.62 -1.08,2.16 c -0.02,0.04 -0.06,0.1 -0.08,0.14 l -1.46,2.9 c 0,0.02 0,0.02 -0.02,0.04 l -0.72,1.44 c -0.02,0.04 -0.06,0.1 -0.08,0.14 l -3.1,6.12 h 6.78 c 0.16,0 0.34,-0.02 0.5,-0.04 0.54,-0.08 1.02,-0.36 1.36,-0.8 l 4.84,-5.98 3.68,-4.56 c 0.18,-0.26 0.32,-0.54 0.4,-0.86 0.02,-0.04 0.02,-0.08 0.02,-0.12 0.04,-0.16 0.06,-0.3 0.06,-0.46 0,-0.18 0,-0.34 -0.02,-0.52 L 33.04,8.6 C 33.02,8.52 32.98,8.44 32.96,8.36 32.84,8.08 32.64,7.82 32.42,7.6 l -2.46,4.84 z"
         id="path2054"
         inkscape:connector-curvature="0"
         style="fill:#3accc5;fill-rule:nonzero" />
      <path
         d="m 36.21,22.32 c 0,0.173913 -0.1,0.326087 -0.15,0.5"
         id="path2056"
         inkscape:connector-curvature="0" />
      <path
         d="m 36.23,22.9 c -0.1,0.175 -0.2,0.35 -0.35,0.5"
         id="path2058"
         inkscape:connector-curvature="0" />
      <path
         d="m 25.74,35.1 c 0.54,-0.08 1.02,-0.36 1.36,-0.8 l 4.84,-5.98"
         id="path2060"
         inkscape:connector-curvature="0" />
      <path
         d="m 36.12,21.8 c 0.05,0.18 0.05,0.34 0.05,0.52"
         id="path2062"
         inkscape:connector-curvature="0" />
      <path
         d="m 20.8,16.24 c -0.48,-0.26 -1.1,-0.08 -1.36,0.42 0,0 0,0 0,0 l -1.5,2.82 c -0.26,0.48 -0.08,1.1 0.42,1.36 0.48,0.26 1.1,0.08 1.36,-0.42 l 1.5,-2.82 c 0.26,-0.48 0.06,-1.1 -0.42,-1.36 0,0 0,0 0,0 z"
         id="path2064"
         inkscape:connector-curvature="0"
         style="fill:#ffffff;fill-rule:nonzero" />
      <path
         d="m 21.92,26.08 c -0.5,-0.24 -1.1,-0.04 -1.34,0.44 0,0 0,0 0,0 l -0.72,1.44 c -0.24,0.5 -0.04,1.1 0.46,1.34 0.44,0.22 0.96,0.08 1.24,-0.3 l 0.82,-1.62 c 0.22,-0.48 0.02,-1.06 -0.46,-1.3 z"
         id="path2066"
         inkscape:connector-curvature="0"
         style="fill:#ffffff;fill-rule:nonzero" />
      <path
         d="m 22.38,27.42 c 0,-0.02 0,-0.02 0.02,-0.04 L 21.58,29 c 0.04,-0.04 0.06,-0.08 0.08,-0.14 z"
         id="path2068"
         inkscape:connector-curvature="0"
         style="fill:#ffffff;fill-rule:nonzero" />
      <path
         d="m 16.3,26.48 1.46,-2.74 c 0.26,-0.48 0.08,-1.1 -0.42,-1.36 -0.48,-0.26 -1.1,-0.08 -1.36,0.42 l -0.8,1.52 -5.64,-11.98 h 3.58 l 3.28,6.08 0.04,-0.02 1.1,-2.06 -3.24,-6 H 6.2 l 4.8,9.8 4.18,8.4 z"
         id="path2070"
         inkscape:connector-curvature="0"
         style="fill:#ffffff;fill-rule:nonzero" />
      <polygon
         id="polygon2072"
         points="15.16,28.6 15.18,28.56 11.02,20.16 "
         style="fill:#ffffff;fill-rule:nonzero" />
      <path
         d="m 30.94,10.46 h -4.18 c -0.56,0 -1,0.44 -1,1 0,0.56 0.44,1 1,1 h 1.2 c 0.12,0.54 0.66,0.88 1.2,0.76 0.28,-0.06 0.52,-0.24 0.66,-0.48 l 0.14,-0.28 z"
         id="path2074"
         inkscape:connector-curvature="0"
         style="fill:#ffffff;fill-rule:nonzero" />
      <polygon
         id="polygon2076"
         points="29.87,12.904286 30.17,12.44 29.82,12.94 "
         style="fill:#ffffff;fill-rule:nonzero" />
      <path
         d="m 28.34,15.6 c 0.26,-0.5 0.06,-1.1 -0.44,-1.34 -0.5,-0.24 -1.1,-0.06 -1.34,0.44 0,0 0,0 0,0.02 l -1.42,2.86 c -0.24,0.5 -0.04,1.1 0.46,1.34 0.44,0.22 0.98,0.08 1.26,-0.34 l 0.68,-1.36 z"
         id="path2078"
         inkscape:connector-curvature="0"
         style="fill:#ffffff;fill-rule:nonzero" />
      <path
         d="m 27.54,17.22 -0.68,1.36 c 0.02,-0.04 0.04,-0.08 0.06,-0.1 z"
         id="path2080"
         inkscape:connector-curvature="0"
         style="fill:#ffffff;fill-rule:nonzero" />
      <path
         d="M 25.36,21.5 C 25.6,21 25.4,20.4 24.92,20.16 24.44,19.92 23.82,20.12 23.58,20.6 l -1.42,2.86 c -0.24,0.5 -0.04,1.1 0.46,1.34 0.44,0.22 0.96,0.08 1.24,-0.3 l 1.16,-2.3 z"
         id="path2082"
         inkscape:connector-curvature="0"
         style="fill:#ffffff;fill-rule:nonzero" />
      <path
         d="m 25.02,22.2 -1.16,2.3 c 0.04,-0.04 0.06,-0.1 0.08,-0.14 z"
         id="path2084"
         inkscape:connector-curvature="0"
         style="fill:#ffffff;fill-rule:nonzero" />
      <path
         d="M 23.88,10.42 C 23.74,10.34 23.58,10.3 23.42,10.3 H 22.8 l -1.76,3.36 c -0.32,0.46 -0.2,1.08 0.26,1.4 0.46,0.32 1.08,0.2 1.4,-0.26 0.04,-0.06 0.08,-0.12 0.1,-0.2 l 1.5,-2.82 c 0.26,-0.5 0.08,-1.1 -0.42,-1.36 0.02,0 0,0 0,0 z"
         id="path2086"
         inkscape:connector-curvature="0"
         style="fill:#ffffff;fill-rule:nonzero" />
    </g>
    <path
       d="m 133.04068,4182.2195 c 0.28174,1.9722 1.03305,3.8505 2.16002,5.5409 l 26.67149,32.9637 -26.67149,-33.0576 c -1.12697,-1.5965 -1.87828,-3.4748 -2.16002,-5.447 z"
       id="path2091"
       inkscape:connector-curvature="0"
       style="fill:none;fill-rule:evenodd;stroke:none;stroke-width:4.69568491" />
    <path
       d="m 133.18155,4183.3465 c -0.23478,-0.9031 -0.23478,-1.6255 -0.23478,-2.3479 0,0.7224 0,1.4448 0.23478,2.3479 z"
       id="path2093"
       inkscape:connector-curvature="0"
       style="fill:none;fill-rule:evenodd;stroke:none;stroke-width:4.69568491" />
    <path
       d="m 183.47234,4241.6669 c -0.82865,-0.2348 -1.51919,-0.4696 -2.34785,-0.9392 0.82866,0.2348 1.5192,0.7044 2.34785,0.9392 z"
       id="path2095"
       inkscape:connector-curvature="0"
       style="fill:none;fill-rule:evenodd;stroke:none;stroke-width:4.69568491" />
    <path
       d="m 217.4691,4080.9805 c 0.72241,0.2348 1.62543,0.2348 2.34784,0.4696 -0.72241,-0.2348 -1.62543,-0.2348 -2.34784,-0.4696 z"
       id="path2097"
       inkscape:connector-curvature="0"
       style="fill:none;fill-rule:evenodd;stroke:none;stroke-width:4.69568491" />
    <path
       d="m 278.23126,4109.5303 c 0.89441,0.6708 1.67703,1.5093 2.34784,2.3478 -0.67081,-0.8385 -1.45343,-1.677 -2.34784,-2.3478 z"
       id="path2099"
       inkscape:connector-curvature="0"
       style="fill:none;fill-rule:evenodd;stroke:none;stroke-width:4.69568491" />
    <path
       d="m 298.65749,4183.1586 c 0,0.4696 -0.23479,0.9392 -0.23479,1.4087 0,-0.4695 0,-0.9391 0.23479,-1.4087 z"
       id="path2101"
       inkscape:connector-curvature="0"
       style="fill:none;fill-rule:evenodd;stroke:none;stroke-width:4.69568491" />
    <path
       d="m 218.59606,4081.1684 c 0.72241,0.2347 1.62543,0.4695 2.34784,0.9391 -0.72241,-0.2348 -1.44482,-0.7044 -2.34784,-0.9391 z"
       id="path2103"
       inkscape:connector-curvature="0"
       style="fill:none;fill-rule:evenodd;stroke:none;stroke-width:4.69568491" />
    <path
       d="m 278.23126,4109.5303 -57.85084,-27.7045 c -0.18783,-0.094 -0.37565,-0.1879 -0.56348,-0.2818 0.18783,0.094 0.37565,0.1878 0.56348,0.2818 z"
       id="path2105"
       inkscape:connector-curvature="0"
       style="fill:none;fill-rule:evenodd;stroke:none;stroke-width:4.69568491" />
    <path
       d="m 217.4691,4081.1214 c -0.56349,-0.2348 -1.22088,-0.2348 -1.78436,-0.2348 -1.22088,0 -2.34785,0 -3.56872,0.4696 1.12696,-0.4696 2.34784,-0.4696 3.56872,-0.4696 0.56348,0 1.22087,0 1.78436,0.2348 z"
       id="path2107"
       inkscape:connector-curvature="0"
       style="fill:none;fill-rule:evenodd;stroke:none;stroke-width:4.69568491" />
    <path
       d="m 210.89514,4081.2623 -57.85084,27.8923 c -0.6574,0.2818 -1.40871,0.7514 -1.97219,1.2209 0.6574,-0.4695 1.31479,-0.8452 1.97219,-1.2209 z"
       id="path2109"
       inkscape:connector-curvature="0"
       style="fill:none;fill-rule:evenodd;stroke:none;stroke-width:4.69568491" />
    <path
       d="m 215.87256,4241.479 h -31.93065 c -0.37566,0 -0.84523,0 -1.22088,-0.2347 0.37565,0.2347 0.84522,0.2347 1.22088,0.2347 h 63.7674 c 0.75131,0 1.59653,-0.2347 2.34784,-0.4695 -0.75131,0.2348 -1.59653,0.4695 -2.34784,0.4695 z"
       id="path2111"
       inkscape:connector-curvature="0"
       style="fill:none;fill-rule:evenodd;stroke:none;stroke-width:4.69568491" />
    <path
       d="m 298.79836,4178.5569 -14.46271,-61.9831 c -0.0939,-0.3756 -0.28174,-0.7513 -0.37566,-1.1269 0.18783,0.3756 0.28175,0.7513 0.37566,1.1269 z"
       id="path2113"
       inkscape:connector-curvature="0"
       style="fill:none;fill-rule:evenodd;stroke:none;stroke-width:4.69568491" />
    <path
       d="m 286.30784,4200.2509 10.14268,-12.5844 c 0.46956,-0.6574 0.84522,-1.3148 1.22087,-2.0661 -0.37565,0.7513 -0.75131,1.4087 -1.22087,2.0661 z"
       id="path2115"
       inkscape:connector-curvature="0"
       style="fill:none;fill-rule:evenodd;stroke:none;stroke-width:4.69568491" />
    <path
       d="m 147.40948,4116.1982 -14.27488,62.3587 14.27488,-62.3587 c 0.46957,-2.254 1.78436,-4.2261 3.56872,-5.7288 l 0.0939,-0.094 c -1.87827,1.4087 -3.19306,3.4748 -3.66263,5.8227 z"
       id="path2117"
       inkscape:connector-curvature="0"
       style="fill:none;fill-rule:evenodd;stroke:none;stroke-width:4.69568491" />
    <path
       d="m 180.93667,4170.8559 -22.53929,-46.0177 h 38.03505 l 15.21402,28.0802 -5.25917,9.6731 -0.18783,0.094 -15.40184,-28.5497 h -16.81056 l 26.48367,56.1604 3.75654,-7.1375 c 1.22088,-2.2539 4.03829,-3.193 6.38614,-1.9722 2.25392,1.2209 3.19306,4.0383 1.97218,6.3862 l -6.8557,12.8661 -5.25916,9.7671 15.40184,30.8976 14.55663,-28.7376 c -1.50262,2.0661 -4.50786,2.5356 -6.57396,1.033 -1.87828,-1.3148 -2.44176,-3.8504 -1.40871,-5.8226 l 3.3809,-6.7618 c 1.31479,-2.2539 4.1322,-3.0052 6.38613,-1.6905 1.97218,1.127 2.81741,3.5688 2.0661,5.7288 l 6.8557,-13.5236 c -1.50262,2.0661 -4.50786,2.5357 -6.57396,0.9391 -1.78436,-1.3147 -2.44176,-3.7565 -1.40871,-5.8226 l 6.76179,-13.4297 c 1.12696,-2.3478 3.94438,-3.2869 6.29222,-2.0661 2.34784,1.2209 3.28698,3.9444 2.0661,6.2923 l -1.69045,3.2869 8.64006,-17.0923 c -1.50262,2.1601 -4.41394,2.7235 -6.48004,1.2209 -1.97219,-1.3148 -2.62959,-3.8504 -1.59654,-5.9165 l 6.66788,-13.4297 c 1.12696,-2.3478 3.94437,-3.287 6.29222,-2.0661 2.34784,1.127 3.28697,3.9444 2.0661,6.2922 l -3.75655,7.607 10.70616,-21.1306 c -1.31479,2.254 -4.1322,3.0992 -6.38613,1.7844 -1.12697,-0.6574 -1.97219,-1.7844 -2.25393,-3.0992 h -5.63482 c -2.62959,0 -4.69569,-2.0661 -4.69569,-4.6956 0,-2.6296 2.0661,-4.6957 4.69569,-4.6957 h 19.62796 l -4.69568,9.2974 11.55138,-22.821 c -0.37565,-0.3756 -0.75131,-0.6574 -1.12696,-0.9391 -0.6574,-0.4696 -1.3148,-0.9392 -1.97219,-1.3148 l -57.85084,-27.7046 c -0.18783,-0.094 -0.37565,-0.1878 -0.56348,-0.2817 -0.37566,-0.1878 -0.75131,-0.2817 -1.22088,-0.3757 -0.37565,-0.094 -0.75131,-0.1878 -1.12696,-0.1878 -0.56349,-0.094 -1.22088,-0.094 -1.78436,-0.094 -1.22088,0 -2.34785,0 -3.56872,0.1878 -0.37566,0.094 -0.75131,0.094 -1.22088,0.1879 l -57.85084,27.8923 c -0.6574,0.2818 -1.40871,0.7514 -1.97219,1.2209 l -0.0939,0.094 z m 47.05076,-30.5219 8.26441,-15.7775 h 3.00523 c 0.75131,0 1.50262,0.1878 2.16002,0.5635 2.25393,1.2208 3.19306,4.0383 1.97219,6.3861 0,0 0,0 0,0 l -7.13744,13.2418 c -1.22088,2.254 -4.03829,3.1931 -6.38614,1.9722 -2.25392,-1.2209 -3.09915,-4.0383 -1.87827,-6.3861 z m -14.46271,27.4228 7.04353,-13.2418 c 1.22088,-2.254 4.03829,-3.1931 6.38613,-1.9722 2.34784,1.2208 3.19307,4.0383 1.97219,6.3861 l -7.04353,13.2418 c -1.22088,2.254 -4.03829,3.1931 -6.38613,1.9722 -2.34784,-1.2209 -3.19307,-4.1322 -1.97219,-6.3861 z"
       id="path2119"
       inkscape:connector-curvature="0"
       style="fill:#00aab2;fill-rule:nonzero;stroke:none;stroke-width:4.69568491" />
    <path
       d="m 143.65293,4115.3529 -14.18097,62.3587 v 0.094 0.094 c -0.75131,4.2262 0.28174,8.4523 2.7235,11.9271 l 0.0939,0.094 0.0939,0.094 39.91332,49.5864 0.0939,0.1878 0.18783,0.094 c 3.00524,3.0053 6.94961,4.7896 11.17573,5.0714 h 63.95523 c 4.97742,0 9.10963,-1.9722 11.73921,-5.447 l 40.00723,-49.4925 0.0939,-0.094 0.0939,-0.094 c 2.44176,-3.3809 3.47481,-7.607 2.91133,-11.7392 l -0.0939,-0.3757 -14.46271,-62.077 v -0.1878 -0.094 c -1.31479,-3.9443 -4.1322,-7.3252 -7.88875,-9.2035 h -0.0939 -0.0939 l -57.85084,-27.7046 c -1.97219,-0.9391 -4.22612,-1.4087 -6.38613,-1.3147 -1.87828,-0.094 -3.75655,0.094 -5.63483,0.4695 l -0.37565,0.094 -0.37566,0.1879 -57.85083,27.8923 c -3.94438,1.7844 -6.76179,5.3531 -7.79484,9.5792 z m 9.48528,-6.1983 57.75693,-27.8923 c 0.37565,-0.094 0.75131,-0.1879 1.12696,-0.1879 1.22088,-0.1878 2.44176,-0.1878 3.66264,-0.1878 0.56348,0 1.22087,0 1.78436,0.094 0.37565,0.094 0.84522,0.094 1.22087,0.1878 0.37566,0.094 0.84523,0.1879 1.22088,0.3757 0.18783,0.094 0.37566,0.1878 0.56348,0.2817 l 57.85084,27.7046 c 0.75131,0.3756 1.40871,0.8452 1.97219,1.3148 0.37565,0.2817 0.75131,0.5635 1.12696,0.9391 1.03306,1.0331 1.97219,2.2539 2.53567,3.5687 0.18783,0.3757 0.28175,0.7513 0.37566,1.127 l 14.46271,62.0769 c 0.18783,1.5027 0.0939,3.0992 -0.28174,4.6018 0,0.1878 -0.0939,0.3757 -0.0939,0.5635 -0.37565,1.4087 -1.03305,2.8174 -1.87827,4.0383 l -10.14268,12.5844 -29.86456,36.9081 c -1.50261,2.0661 -3.85046,3.3809 -6.38613,3.7566 -0.75131,0.094 -1.59653,0.1878 -2.34784,0.1878 h -63.86131 c -0.37566,0 -0.84523,-0.094 -1.22088,-0.094 -0.56348,-0.094 -1.03305,-0.1878 -1.59654,-0.3757 -2.25392,-0.6574 -4.32003,-1.8782 -6.01047,-3.4748 l -13.33575,-16.5288 -26.57757,-33.0576 c -1.12697,-1.5965 -1.87828,-3.4748 -2.16002,-5.5409 -0.0939,-0.3757 -0.0939,-0.7513 -0.0939,-1.127 0,-0.8452 0,-1.5965 0.18783,-2.4417 l 14.27488,-62.3587 c 0.56348,-2.3479 1.87827,-4.3201 3.75655,-5.8227 0.56348,-0.4695 1.22087,-0.9391 1.97218,-1.2209 z"
       id="path2121"
       inkscape:connector-curvature="0"
       style="fill:#ffffff;fill-rule:nonzero;stroke:none;stroke-width:4.69568491" />
    <path
       d="m 215.87256,4241.1973 -15.40184,-30.8976 -0.18783,0.2817 -19.34622,-39.7255 -30.05239,-60.3865 c -1.78436,1.4087 -3.09915,3.4748 -3.56872,5.7288 l -14.18096,62.3587 c -0.18783,0.8452 -0.18783,1.5965 -0.18783,2.4417 0,0.3757 0,0.7513 0.0939,1.2209 0.28174,1.9722 1.03305,3.8505 2.16002,5.5409 l 26.67149,33.0576 13.33574,16.341 c 1.69045,1.6905 3.75655,2.8174 5.91656,3.4748 0.46957,0.1878 1.03306,0.2818 1.59654,0.3757 0.37565,0.094 0.84522,0.094 1.22088,0.094 h 31.93065 z"
       id="path2123"
       inkscape:connector-curvature="0"
       style="fill:#00797f;fill-rule:nonzero;stroke:none;stroke-width:4.69568491" />
    <path
       d="m 269.21553,4135.8261 -10.70616,21.1306 -2.91132,5.8227 c -0.0939,0.1878 -0.18783,0.3756 -0.28174,0.4695 l -8.64006,16.9984 -5.07134,10.1427 c -0.0939,0.1878 -0.28174,0.4696 -0.37566,0.6574 l -6.8557,13.6175 c 0,0.094 0,0.094 -0.0939,0.1878 l -3.3809,6.7618 c -0.0939,0.1878 -0.28174,0.4696 -0.37565,0.6574 l -14.55662,28.7376 h 31.83674 c 0.75131,0 1.59653,-0.094 2.34784,-0.1879 2.53567,-0.3756 4.7896,-1.6904 6.38613,-3.7565 l 29.86456,-36.9081 10.14268,-12.5844 c 0.84522,-1.2209 1.50262,-2.5357 1.87827,-4.0383 0.0939,-0.1878 0.0939,-0.3757 0.0939,-0.5635 0.37565,-1.5026 0.46957,-3.0052 0.28174,-4.6018 l -14.3688,-61.983 c -0.0939,-0.3757 -0.28174,-0.7513 -0.37565,-1.127 -0.56348,-1.3148 -1.50262,-2.5356 -2.53567,-3.5687 l -11.55139,22.7271 z"
       id="path2125"
       inkscape:connector-curvature="0"
       style="fill:#3accc5;fill-rule:nonzero;stroke:none;stroke-width:4.69568491" />
    <path
       d="m 215.40299,4174.049 c 2.25393,1.2209 5.16526,0.3757 6.38614,-1.9722 0,0 0,0 0,0 l 7.04352,-13.2418 c 1.22088,-2.2539 0.37566,-5.1653 -1.97218,-6.3861 -2.25393,-1.2209 -5.16526,-0.3757 -6.38614,1.9721 l -7.04352,13.2419 c -1.12697,2.3478 -0.28174,5.1652 1.97218,6.3861 0,0 0,0 0,0 z"
       id="path2127"
       inkscape:connector-curvature="0"
       style="fill:#ffffff;fill-rule:nonzero;stroke:none;stroke-width:4.69568491" />
    <path
       d="m 234.27965,4204.9466 c 0,-0.094 0,-0.094 0.0939,-0.1878 0.93914,-2.4418 -0.28174,-5.1653 -2.7235,-6.0105 -2.16001,-0.8452 -4.60177,0.094 -5.72873,2.0661 l -3.38089,6.7618 c -1.12697,2.3478 -0.18783,5.1653 2.16001,6.2922 2.34784,1.127 5.07134,0.1878 6.29222,-2.0661 z"
       id="path2129"
       inkscape:connector-curvature="0"
       style="fill:#ffffff;fill-rule:nonzero;stroke:none;stroke-width:4.69568491" />
    <path
       d="m 200.47072,4210.2997 5.25916,-9.767 6.8557,-12.8662 c 1.22088,-2.2539 0.37566,-5.1653 -1.97218,-6.3861 -2.25393,-1.2209 -5.16526,-0.3757 -6.38614,1.9722 l -3.75654,7.1374 -26.48367,-56.2543 h 16.81056 l 15.40184,28.5498 0.18783,-0.094 5.16525,-9.6732 -15.21402,-28.1741 h -38.03504 l 22.53928,46.0177 19.53405,39.7255 z"
       id="path2131"
       inkscape:connector-curvature="0"
       style="fill:#ffffff;fill-rule:nonzero;stroke:none;stroke-width:4.69568491" />
    <path
       d="m 269.87294,4134.6053 4.69568,-9.2975 h -19.62796 c -2.62958,0 -4.69568,2.0661 -4.69568,4.6957 0,2.6296 2.0661,4.6957 4.69568,4.6957 h 5.63482 c 0.56349,2.5356 3.09916,4.1322 5.63483,3.5687 1.31479,-0.2818 2.44175,-1.127 3.09915,-2.2539 l 0.0939,-0.094 z"
       id="path2133"
       inkscape:connector-curvature="0"
       style="fill:#ffffff;fill-rule:nonzero;stroke:none;stroke-width:4.69568491" />
    <path
       d="m 258.50938,4157.0506 3.75655,-7.607 c 1.22088,-2.3478 0.28174,-5.1652 -2.0661,-6.2922 -2.34784,-1.127 -5.16525,-0.2817 -6.29222,2.0661 0,0 0,0 0,0.094 l -6.66787,13.4297 c -1.12697,2.3478 -0.18783,5.1652 2.16001,6.2922 2.34785,1.1269 5.07134,0.1878 6.29222,-2.0661 z"
       id="path2135"
       inkscape:connector-curvature="0"
       style="fill:#ffffff;fill-rule:nonzero;stroke:none;stroke-width:4.69568491" />
    <path
       d="m 246.67626,4180.4351 1.69044,-3.2869 c 1.12697,-2.3479 0.18783,-5.1653 -2.0661,-6.2923 -2.25393,-1.1269 -5.16525,-0.1878 -6.29222,2.0661 l -6.66787,13.4297 c -1.12696,2.3478 -0.18783,5.1653 2.16002,6.2922 2.34784,1.127 5.07134,0.1878 6.29221,-2.0661 z"
       id="path2137"
       inkscape:connector-curvature="0"
       style="fill:#ffffff;fill-rule:nonzero;stroke:none;stroke-width:4.69568491" />
    <path
       d="m 229.95962,4146.7201 c 2.25393,1.2209 5.07134,0.3757 6.29222,-1.9722 l 7.04352,-13.2418 c 1.22088,-2.2539 0.37566,-5.1653 -1.97218,-6.3861 0,0 0,0 0,0 -0.6574,-0.3757 -1.40871,-0.5635 -2.16002,-0.5635 h -2.91132 l -8.26441,15.7775 c -1.12696,2.3478 -0.28174,5.0713 1.97219,6.3861 z"
       id="path2139"
       inkscape:connector-curvature="0"
       style="fill:#ffffff;fill-rule:nonzero;stroke:none;stroke-width:4.69568491" />
  </g>
  <text
     xml:space="preserve"
     style="font-style:normal;font-variant:normal;font-weight:normal;font-stretch:normal;font-size:37.33333206px;line-height:1.25;font-family:'Nunito Sans';-inkscape-font-specification:'Nunito Sans, Normal';font-variant-ligatures:normal;font-variant-caps:normal;font-variant-numeric:normal;font-feature-settings:normal;text-align:start;letter-spacing:0px;word-spacing:0px;writing-mode:lr-tb;text-anchor:start;fill:#000000;fill-opacity:1"
     x="191.96582"
     y="565.88269"
     id="text4107"><tspan
       sodipodi:role="line"
       id="tspan4105"
       x="191.96582"
       y="565.88269"
       style="font-style:normal;font-variant:normal;font-weight:normal;font-stretch:normal;font-size:37.33333206px;font-family:'Nunito Sans';-inkscape-font-specification:'Nunito Sans, Normal';font-variant-ligatures:normal;font-variant-caps:normal;font-variant-numeric:normal;font-feature-settings:normal;text-align:start;writing-mode:lr-tb;text-anchor:start;fill:#000000;fill-opacity:1">Virtual Machine Management on Kubernetes</tspan></text>
  <g
     id="g4729"
     transform="translate(62.30334,-3801.7002)">
    <text
       id="text4107-6"
       y="4529.0088"
       x="436.27402"
       style="font-style:normal;font-variant:normal;font-weight:normal;font-stretch:normal;font-size:37.33333206px;line-height:1.25;font-family:'Nunito Sans';-inkscape-font-specification:'Nunito Sans, Normal';font-variant-ligatures:normal;font-variant-caps:normal;font-variant-numeric:normal;font-feature-settings:normal;text-align:start;letter-spacing:0px;word-spacing:0px;writing-mode:lr-tb;text-anchor:start;fill:#000000;fill-opacity:1"
       xml:space="preserve"><tspan
         style="font-style:normal;font-variant:normal;font-weight:normal;font-stretch:normal;font-size:26.66666603px;font-family:'Nunito Sans';-inkscape-font-specification:'Nunito Sans, Normal';font-variant-ligatures:normal;font-variant-caps:normal;font-variant-numeric:normal;font-feature-settings:normal;text-align:start;writing-mode:lr-tb;text-anchor:start;fill:#000000;fill-opacity:1"
         y="4529.0088"
         x="436.27402"
         id="tspan4105-8"
         sodipodi:role="line">kubevirt.io</tspan></text>
    <text
       id="text4107-4"
       y="4586.0493"
       x="386.20319"
       style="font-style:normal;font-variant:normal;font-weight:normal;font-stretch:normal;font-size:37.33333206px;line-height:1.25;font-family:'Nunito Sans';-inkscape-font-specification:'Nunito Sans, Normal';font-variant-ligatures:normal;font-variant-caps:normal;font-variant-numeric:normal;font-feature-settings:normal;text-align:start;letter-spacing:0px;word-spacing:0px;writing-mode:lr-tb;text-anchor:start;fill:#000000;fill-opacity:1"
       xml:space="preserve"><tspan
         style="font-style:normal;font-variant:normal;font-weight:normal;font-stretch:normal;font-size:26.66666603px;font-family:'Nunito Sans';-inkscape-font-specification:'Nunito Sans, Normal';font-variant-ligatures:normal;font-variant-caps:normal;font-variant-numeric:normal;font-feature-settings:normal;text-align:start;writing-mode:lr-tb;text-anchor:start;fill:#000000;fill-opacity:1"
         y="4586.0493"
         x="386.20319"
         id="tspan4105-6"
         sodipodi:role="line">KVM on containers</tspan></text>
    <text
       id="text4107-4-0"
       y="4640.6895"
       x="343.93088"
       style="font-style:normal;font-variant:normal;font-weight:normal;font-stretch:normal;font-size:37.33333206px;line-height:1.25;font-family:'Nunito Sans';-inkscape-font-specification:'Nunito Sans, Normal';font-variant-ligatures:normal;font-variant-caps:normal;font-variant-numeric:normal;font-feature-settings:normal;text-align:start;letter-spacing:0px;word-spacing:0px;writing-mode:lr-tb;text-anchor:start;fill:#000000;fill-opacity:1"
       xml:space="preserve"><tspan
         style="font-style:normal;font-variant:normal;font-weight:normal;font-stretch:normal;font-size:26.66666603px;font-family:'Nunito Sans';-inkscape-font-specification:'Nunito Sans, Normal';font-variant-ligatures:normal;font-variant-caps:normal;font-variant-numeric:normal;font-feature-settings:normal;text-align:start;writing-mode:lr-tb;text-anchor:start;fill:#000000;fill-opacity:1"
         y="4640.6895"
         x="343.93088"
         id="tspan4105-6-5"
         sodipodi:role="line">Reimagining virtualization</tspan></text>
  </g>
</svg>
