<?xml version="1.0" encoding="UTF-8" standalone="no"?>
<svg
   xmlns:dc="http://purl.org/dc/elements/1.1/"
   xmlns:cc="http://creativecommons.org/ns#"
   xmlns:rdf="http://www.w3.org/1999/02/22-rdf-syntax-ns#"
   xmlns:svg="http://www.w3.org/2000/svg"
   xmlns="http://www.w3.org/2000/svg"
   xmlns:sodipodi="http://sodipodi.sourceforge.net/DTD/sodipodi-0.dtd"
   xmlns:inkscape="http://www.inkscape.org/namespaces/inkscape"
   width="2409.45pt"
   height="6803.1499pt"
   viewBox="0 0 3212.5999 9070.8672"
   version="1.1"
   id="svg2144"
   sodipodi:docname="KubeVirt_banner_white.svg"
   inkscape:version="0.92.4 (unknown)">
  <metadata
     id="metadata2148">
    <rdf:RDF>
      <cc:Work
         rdf:about="">
        <dc:format>image/svg+xml</dc:format>
        <dc:type
           rdf:resource="http://purl.org/dc/dcmitype/StillImage" />
        <dc:title>KubeVirt_logo</dc:title>
      </cc:Work>
    </rdf:RDF>
  </metadata>
  <sodipodi:namedview
     pagecolor="#ffffff"
     bordercolor="#666666"
     borderopacity="1"
     objecttolerance="10"
     gridtolerance="10"
     guidetolerance="10"
     inkscape:pageopacity="0"
     inkscape:pageshadow="2"
     inkscape:window-width="1916"
     inkscape:window-height="1041"
     id="namedview2146"
     showgrid="false"
     inkscape:zoom="0.094147565"
     inkscape:cx="979.62418"
     inkscape:cy="4535.4333"
     inkscape:window-x="1080"
     inkscape:window-y="218"
     inkscape:window-maximized="0"
     inkscape:current-layer="svg2144"
     units="pt"
     inkscape:document-units="pt"
     height="6803.15px" />
  <!-- Generator: Sketch 51.2 (57519) - http://www.bohemiancoding.com/sketch -->
  <title
     id="title2003">KubeVirt_logo</title>
  <desc
     id="desc2005">Created with Sketch.</desc>
  <defs
     id="defs2007" />
  <g
     id="g968"
     transform="matrix(1.4478546,0,0,1.4478546,-498.62783,1202.8844)">
    <path
       d="m 990.06959,673.17396 c -6.79496,7.24786 -14.26941,15.40183 -22.64986,24.4619 -8.38043,9.05982 -17.21389,18.11989 -26.50033,27.63265 -9.05995,9.28654 -18.11987,18.57307 -27.17982,27.6329 -9.05995,9.05983 -17.6669,17.4405 -25.59435,25.36776 10.41894,7.2481 20.15838,15.40207 29.44482,24.00897 10.41893,9.513 20.61138,19.70539 30.35082,30.35072 9.96593,10.87203 19.25237,21.74383 28.08583,33.06879 7.92742,10.1924 15.4019,20.83797 21.74385,32.16294 h -36.91926 c -6.79496,-10.64557 -14.26943,-20.83797 -22.42337,-30.57744 -8.38046,-10.19239 -17.44038,-20.15832 -26.72682,-29.44486 -9.28646,-9.28629 -18.79939,-18.1199 -28.53883,-26.04715 -8.83344,-7.47457 -18.1199,-14.2695 -28.08583,-20.38504 v 106.45449 h -31.4833 V 673.17396 h 31.4833 v 99.20638 c 7.47445,-7.0214 15.8549,-15.17536 24.91485,-24.23543 9.05995,-9.05983 18.11987,-17.89343 26.95333,-26.95326 8.83344,-9.06007 17.21389,-17.66697 25.14134,-26.0474 7.92746,-8.38043 14.4959,-15.62829 19.93187,-21.97029 z"
       id="Shape"
       inkscape:connector-curvature="0"
       style="fill:#000000;fill-opacity:1;fill-rule:nonzero;stroke:none;stroke-width:11.32492924;stroke-opacity:1" />
    <path
       d="m 1153.6016,892.87762 c -7.0215,1.81197 -16.0814,3.62393 -27.4063,5.4359 -12.9105,2.03843 -26.2739,2.94453 -39.4108,2.94453 -11.0984,0.22671 -22.1969,-1.5855 -32.6158,-5.6626 -8.3805,-3.39747 -15.8549,-8.83336 -21.2909,-16.08123 -5.6624,-7.2481 -9.5129,-15.62853 -11.5514,-24.46189 -2.4915,-10.1924 -3.624,-20.83797 -3.624,-31.25683 v -94.44988 h 30.1243 v 88.10788 c 0,20.6115 3.171,35.10722 9.7395,44.16729 6.5684,8.83336 17.4404,13.3634 32.6158,13.3634 3.171,0 6.5684,0 9.9659,-0.22671 3.3975,-0.2267 6.795,-0.45293 9.7394,-0.9061 2.9445,-0.22671 5.889,-0.6794 8.154,-0.90586 1.812,-0.22671 3.624,-0.45293 5.436,-1.13257 V 729.34538 h 30.1243 z"
       id="path2010"
       inkscape:connector-curvature="0"
       style="fill:#000000;fill-opacity:1;fill-rule:nonzero;stroke:none;stroke-width:11.32492924;stroke-opacity:1" />
    <path
       d="m 1233.5556,736.81994 c 5.2095,-3.171 10.8719,-5.66236 16.7609,-7.47432 8.3804,-2.71807 16.9874,-4.07711 25.8208,-3.85064 11.0985,-0.22671 22.1969,2.03867 32.1628,6.56846 9.2864,4.07711 17.4404,10.41911 23.7824,18.1199 6.7949,8.15397 11.7779,17.66697 14.7224,27.85936 3.3974,11.55143 5.2094,23.5558 4.9829,35.5604 0.2265,12.45729 -1.8119,24.91483 -5.8889,36.69273 -3.624,10.41886 -9.513,19.70539 -16.9874,27.63289 -7.4745,7.7008 -16.5344,13.58987 -26.5004,17.44026 -11.0984,4.30357 -23.1028,6.342 -34.8807,6.11554 -12.4575,0.2267 -24.9149,-0.90611 -37.3723,-2.94454 -10.8719,-2.03843 -19.7054,-3.85039 -26.5003,-5.88883 V 651.6566 l 30.1243,-5.20943 z m 0,134.76678 c 4.3035,1.13233 8.3804,1.81197 12.6839,2.49137 6.795,0.9061 13.5899,1.13256 20.6114,1.13256 16.3079,0 29.2183,-5.43589 38.9577,-16.08146 9.7395,-10.64533 14.4959,-25.82069 14.4959,-45.52609 0,-8.15396 -0.906,-16.30793 -2.4914,-24.23543 -1.5855,-7.0214 -4.3035,-13.58986 -8.3805,-19.7054 -3.8505,-5.43589 -9.0599,-9.96593 -14.9489,-12.91046 -7.0215,-3.39747 -14.4959,-4.98297 -22.1969,-4.7565 -7.7009,0 -15.4019,1.35903 -22.6498,4.30357 -5.6625,2.03843 -11.0985,4.98296 -15.8549,8.83336 z"
       id="path2012"
       inkscape:connector-curvature="0"
       style="fill:#000000;fill-opacity:1;fill-rule:nonzero;stroke:none;stroke-width:11.32492924;stroke-opacity:1" />
    <path
       d="m 1383.0446,813.82957 c -0.2264,-13.3634 1.812,-26.50033 6.342,-38.95787 3.8505,-10.19239 9.7394,-19.70539 17.2139,-27.63265 7.0215,-7.24811 15.4019,-12.91047 24.6883,-16.5344 9.06,-3.62417 18.7994,-5.43614 28.5389,-5.43614 22.6498,0 40.0902,7.02164 52.0946,21.2909 12.0045,14.04303 18.1199,35.78686 18.1199,64.55209 v 4.98296 c 0,1.81197 0,3.62393 0,5.66261 h -115.5143 c 1.359,17.44026 6.342,30.80365 15.1754,39.86372 8.8335,9.05983 22.6499,13.58986 41.4493,13.58986 9.0599,0.22671 17.8934,-0.67939 26.7268,-2.71806 5.6625,-1.3588 11.0985,-3.171 16.3079,-5.4359 l 4.3035,25.14129 c -6.1155,2.71807 -12.6839,4.7565 -19.2524,6.11554 -10.1924,2.26489 -20.8378,3.39746 -31.2568,3.171 -12.9104,0.2267 -25.8208,-2.03843 -38.0517,-6.56847 -9.966,-4.0771 -19.0259,-10.1924 -26.2739,-18.34636 -7.0214,-7.9275 -12.2309,-17.4405 -15.4019,-27.6329 -3.8505,-11.32496 -5.4359,-23.32933 -5.2095,-35.10722 z m 115.5143,-16.5344 c 0.2265,-13.58986 -3.1709,-24.68836 -10.1924,-33.52173 -7.0215,-8.8336 -16.7609,-13.13693 -28.9918,-13.13693 -6.342,-0.2267 -12.684,1.3588 -18.3464,4.07687 -5.2095,2.4916 -9.7395,6.11553 -13.3634,10.64556 -3.624,4.30333 -6.5685,9.51276 -8.607,14.9489 -2.0385,5.4359 -3.3975,11.32473 -4.077,17.2138 z"
       id="path2014"
       inkscape:connector-curvature="0"
       style="fill:#000000;fill-opacity:1;fill-rule:nonzero;stroke:none;stroke-width:11.32492924;stroke-opacity:1" />
    <path
       d="m 1754.7288,673.17396 c -8.1539,23.78226 -16.0814,45.75255 -23.3293,65.91112 -7.4745,20.15833 -14.7224,39.41055 -21.9704,57.53045 -7.0215,18.1199 -14.2694,35.5604 -21.2909,52.0948 -7.0214,16.53439 -14.2694,33.06879 -21.5173,49.15026 h -29.4448 c -7.248,-16.30794 -14.496,-32.61587 -21.5174,-49.15026 -7.0215,-16.5344 -14.0429,-33.9749 -21.2909,-52.0948 -7.2479,-18.1199 -14.7224,-37.37212 -22.1968,-57.53045 -7.4745,-20.15857 -15.4019,-42.12886 -23.3294,-65.91112 h 34.6543 c 11.5514,34.20112 23.1028,67.04345 34.4278,98.52674 11.3249,31.4833 22.8763,61.15463 34.6543,88.78752 11.7779,-27.40643 23.3293,-56.85105 34.6543,-88.56081 11.3249,-31.71 22.6498,-64.55233 33.9747,-98.52698 z"
       id="path2016"
       inkscape:connector-curvature="0"
       style="fill:#000000;fill-opacity:1;fill-rule:nonzero;stroke:none;stroke-width:11.32492924;stroke-opacity:1" />
    <path
       d="m 1796.8576,698.76818 c -5.2095,0 -9.966,-1.81196 -13.8165,-5.43589 -3.8504,-3.8504 -5.8889,-9.06007 -5.6624,-14.49597 -0.2265,-5.43589 1.812,-10.64533 5.6624,-14.49596 7.701,-7.24787 19.7054,-7.24787 27.6329,0 3.8505,3.85063 5.8889,9.06007 5.6625,14.49596 0.2264,5.4359 -1.812,10.64557 -5.6625,14.49597 -3.624,3.62393 -8.607,5.66236 -13.8164,5.43589 z m 15.1754,198.86594 h -30.1243 v -168.2885 h 30.1243 z"
       id="path2018"
       inkscape:connector-curvature="0"
       style="fill:#000000;fill-opacity:1;fill-rule:nonzero;stroke:none;stroke-width:11.32492924;stroke-opacity:1" />
    <path
       d="m 1924.1498,725.72169 c 2.4915,0 5.6624,0.2267 8.8334,0.45293 3.3975,0.2267 6.5685,0.67939 9.9659,1.35903 3.171,0.45293 6.1155,1.13233 8.8335,1.5855 2.0385,0.45293 4.077,0.90586 6.1155,1.35879 l -5.2095,26.27387 c -10.6454,-3.39747 -21.7439,-5.20943 -33.0688,-4.7565 -5.6625,0 -11.0984,0.67963 -16.7609,1.8122 -5.436,1.13233 -9.0599,2.03843 -10.8719,2.49137 v 141.56171 h -30.1243 V 736.36701 c 8.6069,-2.94453 17.6669,-5.43589 26.5003,-7.24786 12.0044,-2.26514 23.7823,-3.39746 35.7868,-3.39746 z"
       id="path2020"
       inkscape:connector-curvature="0"
       style="fill:#000000;fill-opacity:1;fill-rule:nonzero;stroke:none;stroke-width:11.32492924;stroke-opacity:1" />
    <path
       d="m 2013.3902,729.34562 h 63.8726 v 25.36776 h -63.8726 v 77.68901 c -0.2265,7.0214 0.453,14.04304 2.0385,20.83797 0.906,4.7565 2.9445,9.05983 5.889,12.91023 2.4914,3.171 5.8889,5.43613 9.7394,6.56846 4.3035,1.35904 9.06,2.03867 13.5899,2.03867 7.4745,0.22671 14.7224,-0.67963 21.9704,-3.171 5.4359,-2.03843 9.2864,-3.39746 11.5514,-4.30357 l 5.889,24.91483 c -5.2095,2.26514 -10.419,4.07711 -15.8549,5.66261 -8.3805,2.49136 -17.2139,3.62393 -25.8209,3.39746 -9.7394,0.22671 -19.2524,-1.13257 -28.3123,-4.30357 -7.0214,-2.71807 -13.3634,-7.24786 -17.8934,-13.13693 -4.7565,-6.342 -8.1539,-13.81633 -9.5129,-21.51736 -2.0385,-9.73947 -2.9445,-19.7054 -2.718,-29.67133 V 682.23379 l 30.1243,-5.20943 z"
       id="path2022"
       inkscape:connector-curvature="0"
       style="fill:#000000;fill-opacity:1;fill-rule:nonzero;stroke:none;stroke-width:11.32492924;stroke-opacity:1" />
  </g>
  <g
     id="g1028"
     transform="matrix(3.6814125,0,0,3.6814125,-259.99911,-1568.0785)">
    <g
       transform="matrix(11.324929,0,0,11.324929,297.66342,563.32201)"
       id="Group-3"
       style="fill:none;fill-rule:evenodd;stroke:none;stroke-width:1">
      <path
         d="M 4.62,7.3 4.64,7.28 4.62,7.3 C 4.34,7.52 4.12,7.82 3.98,8.16 4.12,7.82 4.34,7.52 4.62,7.3 Z"
         id="path2024"
         inkscape:connector-curvature="0" />
      <path
         d="M 3.88,8.66 C 3.93,8.4933333 4.03,8.3266667 4.18,8.16 4.03,8.3266667 3.93,8.4933333 3.88,8.66 Z"
         id="path2026"
         inkscape:connector-curvature="0" />
      <path
         d="m 11.9,35.17 c -0.153846,0 -0.346154,0 -0.5,-0.05 0.192308,0 0.346154,0.05 0.5,0.05 z"
         id="path2028"
         inkscape:connector-curvature="0" />
      <path
         d="M 31.74,7.1 19.42,1.2 C 19.38,1.18 19.34,1.16 19.3,1.14 19.22,1.1 19.14,1.08 19.04,1.06 18.96,1.04 18.88,1.02 18.8,1.02 18.68,1 18.54,1 18.42,1 18.16,1 17.92,1 17.66,1.04 17.58,1.06 17.5,1.06 17.4,1.08 L 5.08,7.02 C 4.94,7.08 4.78,7.18 4.66,7.28 l -0.02,0.02 6.38,12.84 -4.8,-9.8 h 8.1 l 3.24,5.98 -1.12,2.08 -0.04,0.02 -3.28,-6.08 H 9.54 l 5.64,11.96 0.8,-1.52 c 0.26,-0.48 0.86,-0.68 1.36,-0.42 0.48,0.26 0.68,0.86 0.42,1.36 l -1.46,2.74 -1.12,2.08 3.28,6.58 3.1,-6.12 c -0.32,0.44 -0.96,0.54 -1.4,0.22 -0.4,-0.28 -0.52,-0.82 -0.3,-1.24 l 0.72,-1.44 c 0.28,-0.48 0.88,-0.64 1.36,-0.36 0.42,0.24 0.6,0.76 0.44,1.22 l 1.46,-2.88 c -0.32,0.44 -0.96,0.54 -1.4,0.2 -0.38,-0.28 -0.52,-0.8 -0.3,-1.24 l 1.44,-2.86 c 0.24,-0.5 0.84,-0.7 1.34,-0.44 0.5,0.26 0.7,0.84 0.44,1.34 l -0.36,0.7 1.84,-3.64 c -0.32,0.46 -0.94,0.58 -1.38,0.26 -0.42,-0.28 -0.56,-0.82 -0.34,-1.26 l 1.42,-2.86 c 0.24,-0.5 0.84,-0.7 1.34,-0.44 0.5,0.24 0.7,0.84 0.44,1.34 l -0.8,1.62 2.28,-4.5 c -0.28,0.48 -0.88,0.66 -1.36,0.38 -0.24,-0.14 -0.42,-0.38 -0.48,-0.66 h -1.2 c -0.56,0 -1,-0.44 -1,-1 0,-0.56 0.44,-1 1,-1 h 4.18 l -1,1.98 2.46,-4.86 C 32.32,7.5 32.24,7.44 32.16,7.38 32.04,7.28 31.9,7.18 31.74,7.1 Z m -10.52,10.5 -1.5,2.82 c -0.26,0.48 -0.86,0.68 -1.36,0.42 -0.5,-0.26 -0.68,-0.86 -0.42,-1.36 l 1.5,-2.82 c 0.26,-0.48 0.86,-0.68 1.36,-0.42 0.5,0.26 0.68,0.88 0.42,1.36 z m 3.08,-5.84 -1.5,2.84 c -0.26,0.48 -0.86,0.68 -1.36,0.42 -0.48,-0.26 -0.68,-0.86 -0.42,-1.36 l 1.76,-3.36 h 0.64 c 0.16,0 0.32,0.04 0.46,0.12 0.5,0.26 0.68,0.86 0.42,1.34 0,0 0,0 0,0 z"
         id="path2030"
         inkscape:connector-curvature="0"
         style="fill:#00aab2;fill-rule:nonzero" />
      <path
         d="M 4.66,7.28 C 4.8,7.18 4.94,7.1 5.08,7.02 L 17.4,1.08 C 17.48,1.06 17.56,1.04 17.64,1.04 17.9,1 18.16,1 18.42,1 c 0.12,0 0.26,0 0.38,0.02 0.08,0.02 0.18,0.02 0.26,0.04 0.08,0.02 0.18,0.04 0.26,0.08 0.04,0.02 0.08,0.04 0.12,0.06 l 12.32,5.9 c 0.16,0.08 0.3,0.18 0.42,0.28 0.08,0.06 0.16,0.12 0.24,0.2 L 32.8,6.84 C 32.6,6.68 32.38,6.52 32.14,6.4 H 32.12 32.1 L 19.78,0.48 c -0.42,-0.2 -0.9,-0.3 -1.36,-0.28 -0.4,-0.02 -0.8,0.02 -1.2,0.1 L 17.14,0.32 17.06,0.36 4.74,6.3 C 4.58,6.38 4.42,6.48 4.28,6.58 L 4.64,7.3 Z"
         id="path2032"
         inkscape:connector-curvature="0"
         style="fill:#ffffff;fill-rule:nonzero" />
      <path
         d="M 36.9,21.72 36.88,21.64 33.8,8.44 V 8.4 8.38 C 33.62,7.8 33.26,7.26 32.78,6.88 L 32.4,7.62 c 0.22,0.22 0.42,0.48 0.54,0.76 0.04,0.08 0.06,0.16 0.08,0.24 l 3.06,13.2 c 0.02,0.18 0.02,0.34 0.02,0.52 0,0.16 -0.04,0.3 -0.06,0.46 0,0.04 -0.02,0.08 -0.02,0.12 -0.08,0.3 -0.22,0.6 -0.4,0.86 l -3.68,4.56 -4.84,5.98 c -0.32,0.44 -0.82,0.72 -1.36,0.8 -0.16,0.02 -0.34,0.04 -0.5,0.04 h -6.78 l 3.08,0.8 h 3.7 c 1.06,0 1.94,-0.42 2.5,-1.16 l 8.52,-10.54 0.02,-0.02 0.02,-0.02 c 0.5,-0.74 0.72,-1.62 0.6,-2.5 z"
         id="path2034"
         inkscape:connector-curvature="0"
         style="fill:#ffffff;fill-rule:nonzero" />
      <path
         d="m 11.66,35.14 c -0.08,0 -0.18,-0.02 -0.26,-0.02 C 11.28,35.1 11.18,35.08 11.06,35.04 11,35.02 10.94,35 10.88,34.98 10.76,34.94 10.64,34.88 10.54,34.84 10.38,34.76 10.22,34.66 10.06,34.54 9.96,34.46 9.86,34.38 9.78,34.3 L 6.94,30.78 1.28,23.74 C 1.04,23.4 0.88,23 0.82,22.56 0.8,22.48 0.8,22.4 0.8,22.32 c 0,-0.18 0,-0.34 0.04,-0.52 L 3.88,8.52 C 3.9,8.4 3.94,8.28 4,8.16 4.14,7.82 4.36,7.54 4.64,7.3 L 4.28,6.58 C 3.68,7 3.26,7.62 3.1,8.34 L 0.06,21.62 v 0.02 0.02 c -0.16,0.9 0.06,1.8 0.58,2.54 l 0.02,0.02 0.02,0.02 8.5,10.56 0.02,0.04 0.04,0.02 c 0.64,0.64 1.48,1.02 2.38,1.08 h 6.84 v -0.8 z"
         id="path2036"
         inkscape:connector-curvature="0"
         style="fill:#ffffff;fill-rule:nonzero" />
      <polygon
         id="polygon2038"
         points="18.46,35.14 18.46,35.94 21.54,35.94 "
         style="fill:#ffffff;fill-rule:nonzero" />
      <path
         d="M 15.16,28.6 11.02,20.16 4.62,7.3 C 4.34,7.52 4.12,7.82 3.98,8.16 3.94,8.28 3.9,8.4 3.86,8.52 L 0.84,21.8 C 0.8,21.98 0.8,22.14 0.8,22.32 c 0,0.08 0,0.16 0.02,0.26 0.06,0.42 0.22,0.82 0.46,1.18 l 5.68,7.04 2.84,3.48 c 0.08,0.08 0.18,0.16 0.28,0.24 0.14,0.12 0.3,0.22 0.48,0.3 0.12,0.06 0.22,0.1 0.34,0.14 0.06,0.02 0.12,0.04 0.18,0.06 0.1,0.04 0.22,0.06 0.34,0.08 0.08,0.02 0.18,0.02 0.26,0.02 h 6.8 l -3.26,-6.58 z"
         id="path2040"
         inkscape:connector-curvature="0"
         style="fill:#00797f;fill-rule:nonzero" />
      <path
         d="m 0.8,22.32 c 0,-0.18 0,-0.34 0.1,-0.52"
         id="path2042"
         inkscape:connector-curvature="0" />
      <path
         d="m 10.3,34.8 c -0.178571,-0.166667 -0.3571429,-0.333333 -0.5,-0.5 0.1428571,0.166667 0.321429,0.333333 0.5,0.5 z"
         id="path2044"
         inkscape:connector-curvature="0"
         style="fill:#00797f;fill-rule:nonzero" />
      <path
         d="m 10.58,35.02 c -0.166667,-0.133333 -0.333333,-0.3 -0.5,-0.5"
         id="path2046"
         inkscape:connector-curvature="0" />
      <path
         d="M 9.8,34.28 6.96,30.78"
         id="path2048"
         inkscape:connector-curvature="0" />
      <path
         d="M 11.35,35.13 C 11.2,35.08 11.05,35.03 10.9,34.98"
         id="path2050"
         inkscape:connector-curvature="0" />
      <path
         d="m 11.06,35.19 c -0.176471,-0.1 -0.352941,-0.25 -0.5,-0.35 0.147059,0.1 0.323529,0.25 0.5,0.35 z"
         id="path2052"
         inkscape:connector-curvature="0"
         style="fill:#00797f;fill-rule:nonzero" />
      <path
         d="m 29.82,12.7 -2.28,4.5 -0.62,1.24 c -0.02,0.04 -0.04,0.08 -0.06,0.1 l -1.84,3.62 -1.08,2.16 c -0.02,0.04 -0.06,0.1 -0.08,0.14 l -1.46,2.9 c 0,0.02 0,0.02 -0.02,0.04 l -0.72,1.44 c -0.02,0.04 -0.06,0.1 -0.08,0.14 l -3.1,6.12 h 6.78 c 0.16,0 0.34,-0.02 0.5,-0.04 0.54,-0.08 1.02,-0.36 1.36,-0.8 l 4.84,-5.98 3.68,-4.56 c 0.18,-0.26 0.32,-0.54 0.4,-0.86 0.02,-0.04 0.02,-0.08 0.02,-0.12 0.04,-0.16 0.06,-0.3 0.06,-0.46 0,-0.18 0,-0.34 -0.02,-0.52 L 33.04,8.6 C 33.02,8.52 32.98,8.44 32.96,8.36 32.84,8.08 32.64,7.82 32.42,7.6 l -2.46,4.84 z"
         id="path2054"
         inkscape:connector-curvature="0"
         style="fill:#3accc5;fill-rule:nonzero" />
      <path
         d="m 36.21,22.32 c 0,0.173913 -0.1,0.326087 -0.15,0.5"
         id="path2056"
         inkscape:connector-curvature="0" />
      <path
         d="m 36.23,22.9 c -0.1,0.175 -0.2,0.35 -0.35,0.5"
         id="path2058"
         inkscape:connector-curvature="0" />
      <path
         d="m 25.74,35.1 c 0.54,-0.08 1.02,-0.36 1.36,-0.8 l 4.84,-5.98"
         id="path2060"
         inkscape:connector-curvature="0" />
      <path
         d="m 36.12,21.8 c 0.05,0.18 0.05,0.34 0.05,0.52"
         id="path2062"
         inkscape:connector-curvature="0" />
      <path
         d="m 20.8,16.24 c -0.48,-0.26 -1.1,-0.08 -1.36,0.42 0,0 0,0 0,0 l -1.5,2.82 c -0.26,0.48 -0.08,1.1 0.42,1.36 0.48,0.26 1.1,0.08 1.36,-0.42 l 1.5,-2.82 c 0.26,-0.48 0.06,-1.1 -0.42,-1.36 0,0 0,0 0,0 z"
         id="path2064"
         inkscape:connector-curvature="0"
         style="fill:#ffffff;fill-rule:nonzero" />
      <path
         d="m 21.92,26.08 c -0.5,-0.24 -1.1,-0.04 -1.34,0.44 0,0 0,0 0,0 l -0.72,1.44 c -0.24,0.5 -0.04,1.1 0.46,1.34 0.44,0.22 0.96,0.08 1.24,-0.3 l 0.82,-1.62 c 0.22,-0.48 0.02,-1.06 -0.46,-1.3 z"
         id="path2066"
         inkscape:connector-curvature="0"
         style="fill:#ffffff;fill-rule:nonzero" />
      <path
         d="m 22.38,27.42 c 0,-0.02 0,-0.02 0.02,-0.04 L 21.58,29 c 0.04,-0.04 0.06,-0.08 0.08,-0.14 z"
         id="path2068"
         inkscape:connector-curvature="0"
         style="fill:#ffffff;fill-rule:nonzero" />
      <path
         d="m 16.3,26.48 1.46,-2.74 c 0.26,-0.48 0.08,-1.1 -0.42,-1.36 -0.48,-0.26 -1.1,-0.08 -1.36,0.42 l -0.8,1.52 -5.64,-11.98 h 3.58 l 3.28,6.08 0.04,-0.02 1.1,-2.06 -3.24,-6 H 6.2 l 4.8,9.8 4.18,8.4 z"
         id="path2070"
         inkscape:connector-curvature="0"
         style="fill:#ffffff;fill-rule:nonzero" />
      <polygon
         id="polygon2072"
         points="15.18,28.56 11.02,20.16 15.16,28.6 "
         style="fill:#ffffff;fill-rule:nonzero" />
      <path
         d="m 30.94,10.46 h -4.18 c -0.56,0 -1,0.44 -1,1 0,0.56 0.44,1 1,1 h 1.2 c 0.12,0.54 0.66,0.88 1.2,0.76 0.28,-0.06 0.52,-0.24 0.66,-0.48 l 0.14,-0.28 z"
         id="path2074"
         inkscape:connector-curvature="0"
         style="fill:#ffffff;fill-rule:nonzero" />
      <polygon
         id="polygon2076"
         points="30.17,12.44 29.82,12.94 29.87,12.904286 "
         style="fill:#ffffff;fill-rule:nonzero" />
      <path
         d="m 28.34,15.6 c 0.26,-0.5 0.06,-1.1 -0.44,-1.34 -0.5,-0.24 -1.1,-0.06 -1.34,0.44 0,0 0,0 0,0.02 l -1.42,2.86 c -0.24,0.5 -0.04,1.1 0.46,1.34 0.44,0.22 0.98,0.08 1.26,-0.34 l 0.68,-1.36 z"
         id="path2078"
         inkscape:connector-curvature="0"
         style="fill:#ffffff;fill-rule:nonzero" />
      <path
         d="m 27.54,17.22 -0.68,1.36 c 0.02,-0.04 0.04,-0.08 0.06,-0.1 z"
         id="path2080"
         inkscape:connector-curvature="0"
         style="fill:#ffffff;fill-rule:nonzero" />
      <path
         d="M 25.36,21.5 C 25.6,21 25.4,20.4 24.92,20.16 24.44,19.92 23.82,20.12 23.58,20.6 l -1.42,2.86 c -0.24,0.5 -0.04,1.1 0.46,1.34 0.44,0.22 0.96,0.08 1.24,-0.3 l 1.16,-2.3 z"
         id="path2082"
         inkscape:connector-curvature="0"
         style="fill:#ffffff;fill-rule:nonzero" />
      <path
         d="m 25.02,22.2 -1.16,2.3 c 0.04,-0.04 0.06,-0.1 0.08,-0.14 z"
         id="path2084"
         inkscape:connector-curvature="0"
         style="fill:#ffffff;fill-rule:nonzero" />
      <path
         d="M 23.88,10.42 C 23.74,10.34 23.58,10.3 23.42,10.3 H 22.8 l -1.76,3.36 c -0.32,0.46 -0.2,1.08 0.26,1.4 0.46,0.32 1.08,0.2 1.4,-0.26 0.04,-0.06 0.08,-0.12 0.1,-0.2 l 1.5,-2.82 c 0.26,-0.5 0.08,-1.1 -0.42,-1.36 0.02,0 0,0 0,0 z"
         id="path2086"
         inkscape:connector-curvature="0"
         style="fill:#ffffff;fill-rule:nonzero" />
    </g>
    <path
       d="m 306.94986,819.039 c 0.67949,4.7565 2.49148,9.28653 5.20948,13.36339 l 64.32559,79.50099 -64.32559,-79.72745 c -2.718,-3.8504 -4.52999,-8.38043 -5.20948,-13.13693 z"
       id="path2091"
       inkscape:connector-curvature="0"
       style="fill:none;fill-rule:evenodd;stroke:none;stroke-width:11.32492924" />
    <path
       d="m 307.2896,821.75707 c -0.56623,-2.17808 -0.56623,-3.92034 -0.56623,-5.66261 0,1.74227 0,3.48453 0.56623,5.66261 z"
       id="path2093"
       inkscape:connector-curvature="0"
       style="fill:none;fill-rule:evenodd;stroke:none;stroke-width:11.32492924" />
    <path
       d="m 428.57961,962.41267 c -1.99852,-0.56628 -3.66395,-1.13257 -5.66249,-2.26513 1.99854,0.56628 3.66397,1.69885 5.66249,2.26513 z"
       id="path2095"
       inkscape:connector-curvature="0"
       style="fill:none;fill-rule:evenodd;stroke:none;stroke-width:11.32492924" />
    <path
       d="m 510.5721,574.87344 c 1.74229,0.56628 3.92017,0.56628 5.66246,1.13257 -1.74229,-0.56629 -3.92017,-0.56629 -5.66246,-1.13257 z"
       id="path2097"
       inkscape:connector-curvature="0"
       style="fill:none;fill-rule:evenodd;stroke:none;stroke-width:11.32492924" />
    <path
       d="m 657.11668,643.7291 c 2.15711,1.61781 4.04462,3.64009 5.66246,5.66236 -1.61784,-2.02227 -3.50535,-4.04455 -5.66246,-5.66236 z"
       id="path2099"
       inkscape:connector-curvature="0"
       style="fill:none;fill-rule:evenodd;stroke:none;stroke-width:11.32492924" />
    <path
       d="m 706.38012,821.30389 c 0,1.13257 -0.56626,2.26514 -0.56626,3.39747 0,-1.13233 0,-2.2649 0.56626,-3.39747 z"
       id="path2101"
       inkscape:connector-curvature="0"
       style="fill:none;fill-rule:evenodd;stroke:none;stroke-width:11.32492924" />
    <path
       d="m 513.29007,575.32661 c 1.74229,0.56605 3.92017,1.13233 5.66246,2.2649 -1.74229,-0.56629 -3.48458,-1.69885 -5.66246,-2.2649 z"
       id="path2103"
       inkscape:connector-curvature="0"
       style="fill:none;fill-rule:evenodd;stroke:none;stroke-width:11.32492924" />
    <path
       d="M 657.11668,643.7291 517.59354,576.91211 c -0.453,-0.2267 -0.90598,-0.45317 -1.35898,-0.67964 0.453,0.22671 0.90598,0.45294 1.35898,0.67964 z"
       id="path2105"
       inkscape:connector-curvature="0"
       style="fill:none;fill-rule:evenodd;stroke:none;stroke-width:11.32492924" />
    <path
       d="m 510.5721,575.21326 c -1.35901,-0.56629 -2.94449,-0.56629 -4.30347,-0.56629 -2.94449,0 -5.66249,0 -8.60695,1.13257 2.71797,-1.13257 5.66246,-1.13257 8.60695,-1.13257 1.35898,0 2.94446,0 4.30347,0.56629 z"
       id="path2107"
       inkscape:connector-curvature="0"
       style="fill:none;fill-rule:evenodd;stroke:none;stroke-width:11.32492924" />
    <path
       d="m 494.7172,575.55308 -139.52314,67.26991 c -1.5855,0.67964 -3.39749,1.81221 -4.75648,2.94454 1.5855,-1.13233 3.17098,-2.03843 4.75648,-2.94454 z"
       id="path2109"
       inkscape:connector-curvature="0"
       style="fill:none;fill-rule:evenodd;stroke:none;stroke-width:11.32492924" />
    <path
       d="M 506.72161,961.9595 H 429.7121 c -0.906,0 -2.0385,0 -2.94448,-0.56604 0.90598,0.56604 2.03848,0.56604 2.94448,0.56604 h 153.79254 c 1.81199,0 3.85047,-0.56604 5.66246,-1.13233 -1.81199,0.56629 -3.85047,1.13233 -5.66246,1.13233 z"
       id="path2111"
       inkscape:connector-curvature="0"
       style="fill:none;fill-rule:evenodd;stroke:none;stroke-width:11.32492924" />
    <path
       d="M 706.71987,810.20564 671.83909,660.71642 c -0.22647,-0.90586 -0.6795,-1.81196 -0.90601,-2.71782 0.453,0.90586 0.67952,1.81196 0.90601,2.71782 z"
       id="path2113"
       inkscape:connector-curvature="0"
       style="fill:none;fill-rule:evenodd;stroke:none;stroke-width:11.32492924" />
    <path
       d="m 676.59556,862.52665 24.46185,-30.35072 c 1.13247,-1.5855 2.03848,-3.171 2.94446,-4.98297 -0.90598,1.81197 -1.81199,3.39747 -2.94446,4.98297 z"
       id="path2115"
       inkscape:connector-curvature="0"
       style="fill:none;fill-rule:evenodd;stroke:none;stroke-width:11.32492924" />
    <path
       d="m 341.60415,659.81056 -34.42778,150.39508 34.42778,-150.39508 c 1.1325,-5.43614 4.30347,-10.19239 8.60695,-13.81657 l 0.22646,-0.2267 c -4.52996,3.39746 -7.70094,8.38043 -8.83343,14.04303 z"
       id="path2117"
       inkscape:connector-curvature="0"
       style="fill:none;fill-rule:evenodd;stroke:none;stroke-width:11.32492924" />
    <path
       d="M 422.46415,791.63257 368.10448,680.64829 h 91.73193 l 36.69277,67.72309 -12.68392,23.32932 -0.45301,0.22671 -37.14575,-68.85542 h -40.54327 l 63.87262,135.44618 9.05993,-17.21403 c 2.94448,-5.4359 9.73944,-7.7008 15.40192,-4.7565 5.43595,2.94453 7.70094,9.73946 4.75645,15.40206 l -16.53439,31.03013 -12.68391,23.55603 37.14576,74.51802 35.10729,-69.30859 c -3.62398,4.98297 -10.87194,6.1153 -15.8549,2.49136 -4.52999,-3.171 -5.88897,-9.28629 -3.39749,-14.04279 l 8.15397,-16.30793 c 3.17097,-5.4359 9.96593,-7.24786 15.4019,-4.0771 4.75645,2.71807 6.79495,8.60713 4.98296,13.81657 l 16.5344,-32.61587 c -3.62398,4.98297 -10.87194,6.11554 -15.85491,2.2649 -4.30347,-3.17076 -5.88897,-9.05983 -3.39749,-14.04279 l 16.30791,-32.3894 c 2.71797,-5.66236 9.51295,-7.92726 15.17541,-4.98297 5.66246,2.94454 7.92745,9.513 4.98297,15.17561 l -4.07698,7.92726 20.83786,-41.22276 c -3.62397,5.20967 -10.64542,6.56846 -15.62839,2.94453 -4.75647,-3.171 -6.34197,-9.28629 -3.85049,-14.26926 l 16.08142,-32.3894 c 2.71797,-5.66236 9.51293,-7.9275 15.17541,-4.98296 5.66246,2.71807 7.92743,9.513 4.98297,15.17536 l -9.05995,18.34636 25.82083,-50.96222 c -3.17097,5.43614 -9.96593,7.47457 -15.4019,4.30357 -2.71799,-1.5855 -4.75647,-4.30357 -5.43597,-7.47457 h -13.58991 c -6.34197,0 -11.32494,-4.98297 -11.32494,-11.32473 0,-6.342 4.98297,-11.32496 11.32494,-11.32496 h 47.3382 l -11.32492,22.42322 27.85932,-55.03909 c -0.90599,-0.90586 -1.81199,-1.5855 -2.71798,-2.26489 -1.5855,-1.13257 -3.171,-2.26514 -4.75647,-3.171 L 517.59354,576.91211 c -0.453,-0.2267 -0.90598,-0.45293 -1.35898,-0.67939 -0.90601,-0.45294 -1.81199,-0.6794 -2.94449,-0.90611 -0.90598,-0.2267 -1.81199,-0.45293 -2.71797,-0.45293 -1.35901,-0.22671 -2.94449,-0.22671 -4.30347,-0.22671 -2.94449,0 -5.66249,0 -8.60695,0.45294 -0.90601,0.2267 -1.81199,0.2267 -2.94448,0.45317 l -139.52314,67.26991 c -1.5855,0.67964 -3.39749,1.81221 -4.75648,2.94454 l -0.22646,0.2267 z m 113.47578,-73.61192 19.93189,-38.05176 h 7.24793 c 1.81199,0 3.62398,0.45293 5.20948,1.35904 5.43597,2.94429 7.70094,9.73946 4.75648,15.40182 0,0 0,0 0,0 l -17.21389,31.93623 c -2.94449,5.43614 -9.73944,7.70103 -15.40193,4.7565 -5.43594,-2.94454 -7.47445,-9.73947 -4.52996,-15.40183 z m -34.88078,66.13759 16.9874,-31.93623 c 2.94448,-5.43613 9.73944,-7.70103 15.4019,-4.7565 5.66246,2.9443 7.70096,9.73947 4.75647,15.40183 l -16.9874,31.93623 c -2.94448,5.43613 -9.73944,7.70103 -15.4019,4.7565 -5.66246,-2.94454 -7.70096,-9.96594 -4.75647,-15.40183 z"
       id="path2119"
       inkscape:connector-curvature="0"
       style="fill:#00aab2;fill-rule:nonzero;stroke:none;stroke-width:11.32492924" />
    <path
       d="m 332.5442,657.77189 -34.20129,150.39507 v 0.22671 0.22671 c -1.81199,10.19263 0.67949,20.38503 6.56847,28.76546 l 0.22646,0.22671 0.22647,0.22671 96.26189,119.59117 0.22647,0.45293 0.453,0.22671 c 7.24796,7.2481 16.76089,11.55143 26.95333,12.23107 h 154.24555 c 12.00441,0 21.97036,-4.7565 28.31231,-13.13693 l 96.48839,-119.36471 0.22646,-0.22671 0.22647,-0.22671 c 5.88897,-8.15396 8.38046,-18.34636 7.02147,-28.31229 l -0.22647,-0.9061 -34.88078,-149.71568 v -0.45293 -0.22671 c -3.17098,-9.51276 -9.96593,-17.66672 -19.02588,-22.19676 h -0.22647 -0.22646 L 521.67045,568.75839 c -4.75647,-2.2649 -10.19244,-3.39747 -15.4019,-3.17076 -4.52998,-0.22671 -9.05994,0.22671 -13.58993,1.13233 l -0.90598,0.2267 -0.90601,0.45318 -139.52311,67.26991 c -9.51295,4.30357 -16.30791,12.91047 -18.79939,23.10286 z m 22.87635,-14.9489 139.29665,-67.26991 c 0.90598,-0.22671 1.81198,-0.45317 2.71797,-0.45317 2.94448,-0.45294 5.88897,-0.45294 8.83346,-0.45294 1.35898,0 2.94446,0 4.30347,0.22671 0.90598,0.22671 2.03848,0.22671 2.94446,0.45293 0.90601,0.22671 2.0385,0.45317 2.94449,0.90611 0.453,0.2267 0.906,0.45293 1.35898,0.67939 l 139.52314,66.81723 c 1.81199,0.90586 3.39749,2.03843 4.75647,3.171 0.90599,0.67939 1.81199,1.35903 2.71798,2.26489 2.4915,2.49161 4.75647,5.4359 6.11546,8.6069 0.453,0.9061 0.67952,1.81197 0.90601,2.71807 l 34.88078,149.71544 c 0.453,3.62417 0.22646,7.47456 -0.67949,11.0985 0,0.45293 -0.22647,0.9061 -0.22647,1.35903 -0.90598,3.39747 -2.49148,6.79493 -4.52996,9.73947 l -24.46185,30.35072 -72.02656,89.01399 c -3.62396,4.98296 -9.28644,8.15396 -15.4019,9.06006 -1.81199,0.22671 -3.85047,0.45294 -5.66246,0.45294 H 429.71215 c -0.906,0 -2.0385,-0.22671 -2.94448,-0.22671 -1.35899,-0.22671 -2.49149,-0.45293 -3.8505,-0.9061 -5.43594,-1.5855 -10.41893,-4.5298 -14.49589,-8.38044 l -32.16281,-39.86372 -64.09909,-79.72745 c -2.71799,-3.8504 -4.52998,-8.38043 -5.20948,-13.3634 -0.22646,-0.9061 -0.22646,-1.81196 -0.22646,-2.71807 0,-2.03843 0,-3.85039 0.453,-5.88882 l 34.42778,-150.39508 c 1.35899,-5.6626 4.52996,-10.4191 9.05995,-14.04303 1.35899,-1.13233 2.94446,-2.2649 4.75645,-2.94454 z"
       id="path2121"
       inkscape:connector-curvature="0"
       style="fill:#ffffff;fill-rule:nonzero;stroke:none;stroke-width:11.32492924" />
    <path
       d="m 506.72161,961.2801 -37.14576,-74.51801 -0.453,0.67939 -46.6587,-95.80891 -72.47957,-145.63858 c -4.30347,3.39747 -7.47445,8.38043 -8.60694,13.81657 l -34.20127,150.39508 c -0.453,2.03843 -0.453,3.85039 -0.453,5.88882 0,0.90611 0,1.81197 0.22646,2.94454 0.6795,4.7565 2.49148,9.28653 5.20948,13.36339 l 64.3256,79.72745 32.16279,39.4108 c 4.07698,4.0771 9.05994,6.79493 14.2694,8.38043 1.1325,0.45293 2.49151,0.67964 3.85049,0.9061 0.90599,0.22671 2.03848,0.22671 2.94449,0.22671 h 77.0095 z"
       id="path2123"
       inkscape:connector-curvature="0"
       style="fill:#00797f;fill-rule:nonzero;stroke:none;stroke-width:11.32492924" />
    <path
       d="m 635.37278,707.14862 -25.82084,50.96222 -7.02144,14.04304 c -0.22647,0.45293 -0.45301,0.90586 -0.6795,1.13232 l -20.83786,40.9963 -12.23093,24.46189 c -0.22646,0.45294 -0.67949,1.13257 -0.90601,1.5855 l -16.53439,32.84233 c 0,0.22671 0,0.22671 -0.22647,0.45293 l -8.15396,16.30794 c -0.22647,0.45293 -0.6795,1.13256 -0.90599,1.5855 l -35.10727,69.30858 h 76.78301 c 1.81199,0 3.85047,-0.2267 5.66246,-0.45317 6.11546,-0.90586 11.55143,-4.07686 15.4019,-9.05983 l 72.02656,-89.01398 24.46185,-30.35073 c 2.03848,-2.94453 3.62398,-6.11553 4.52996,-9.73946 0.22647,-0.45293 0.22647,-0.90611 0.22647,-1.35904 0.90598,-3.62393 1.13249,-7.24786 0.67949,-11.0985 L 672.06553,660.26349 c -0.22647,-0.9061 -0.6795,-1.81196 -0.90599,-2.71807 -1.35898,-3.171 -3.62398,-6.11529 -6.11546,-8.60689 l -27.85934,54.81262 z"
       id="path2125"
       inkscape:connector-curvature="0"
       style="fill:#3accc5;fill-rule:nonzero;stroke:none;stroke-width:11.32492924" />
    <path
       d="m 505.58911,799.3336 c 5.43597,2.94454 12.45744,0.9061 15.40192,-4.7565 0,0 0,0 0,0 l 16.98738,-31.93622 c 2.94449,-5.4359 0.90601,-12.45754 -4.75645,-15.40183 -5.43597,-2.94454 -12.45744,-0.90611 -15.40193,4.75626 l -16.98737,31.93646 c -2.718,5.66236 -0.6795,12.4573 4.75645,15.40183 0,0 0,0 0,0 z"
       id="path2127"
       inkscape:connector-curvature="0"
       style="fill:#ffffff;fill-rule:nonzero;stroke:none;stroke-width:11.32492924" />
    <path
       d="m 551.11534,873.85162 c 0,-0.22671 0,-0.22671 0.22647,-0.45293 2.26499,-5.88907 -0.6795,-12.45754 -6.56847,-14.49597 -5.20945,-2.03843 -11.09843,0.22671 -13.8164,4.98297 l -8.15394,16.30793 c -2.718,5.66236 -0.453,12.45753 5.20945,15.17536 5.66246,2.71807 12.23093,0.45293 15.17542,-4.98296 z"
       id="path2129"
       inkscape:connector-curvature="0"
       style="fill:#ffffff;fill-rule:nonzero;stroke:none;stroke-width:11.32492924" />
    <path
       d="m 469.57585,886.76209 12.68391,-23.5558 16.53439,-31.03036 c 2.94449,-5.4359 0.90601,-12.45754 -4.75645,-15.40183 -5.43597,-2.94453 -12.45744,-0.9061 -15.40192,4.7565 l -9.05993,17.21379 -63.87262,-135.67264 h 40.54327 l 37.14575,68.85566 0.45301,-0.22671 12.45741,-23.32957 -36.69277,-67.94955 h -91.73191 l 54.35964,110.98428 47.11171,95.80892 z"
       id="path2131"
       inkscape:connector-curvature="0"
       style="fill:#ffffff;fill-rule:nonzero;stroke:none;stroke-width:11.32492924" />
    <path
       d="m 636.9583,704.20432 11.32492,-22.42346 h -47.3382 c -6.34195,0 -11.32492,4.98296 -11.32492,11.32496 0,6.342 4.98297,11.32497 11.32492,11.32497 h 13.58991 c 1.35901,6.11529 7.47448,9.96593 13.58994,8.60689 3.17097,-0.67963 5.88895,-2.71806 7.47445,-5.43589 l 0.22646,-0.22671 z"
       id="path2133"
       inkscape:connector-curvature="0"
       style="fill:#ffffff;fill-rule:nonzero;stroke:none;stroke-width:11.32492924" />
    <path
       d="m 609.55197,758.33731 9.05995,-18.34637 c 2.94448,-5.66236 0.67949,-12.45729 -4.98297,-15.17536 -5.66246,-2.71807 -12.45741,-0.6794 -15.17541,4.98297 0,0 0,0 0,0.2267 l -16.08139,32.3894 c -2.718,5.66236 -0.45301,12.45729 5.20945,15.17536 5.66248,2.71783 12.23093,0.45293 15.17541,-4.98296 z"
       id="path2135"
       inkscape:connector-curvature="0"
       style="fill:#ffffff;fill-rule:nonzero;stroke:none;stroke-width:11.32492924" />
    <path
       d="m 581.01316,814.73543 4.07696,-7.92726 c 2.71799,-5.6626 0.453,-12.45753 -4.98297,-15.1756 -5.43597,-2.71783 -12.45741,-0.45293 -15.17541,4.98296 l -16.08139,32.3894 c -2.71797,5.66236 -0.45301,12.45753 5.20948,15.17536 5.66246,2.71807 12.23092,0.45293 15.17538,-4.98296 z"
       id="path2137"
       inkscape:connector-curvature="0"
       style="fill:#ffffff;fill-rule:nonzero;stroke:none;stroke-width:11.32492924" />
    <path
       d="m 540.69641,733.42248 c 5.43597,2.94453 12.23092,0.9061 15.17541,-4.7565 l 16.98737,-31.93623 c 2.94449,-5.43589 0.90601,-12.45753 -4.75645,-15.40182 0,0 0,0 0,0 -1.5855,-0.90611 -3.39749,-1.35904 -5.20948,-1.35904 h -7.02144 l -19.93189,38.05176 c -2.71797,5.66236 -0.67949,12.23083 4.75648,15.40183 z"
       id="path2139"
       inkscape:connector-curvature="0"
       style="fill:#ffffff;fill-rule:nonzero;stroke:none;stroke-width:11.32492924" />
  </g>
  <text
     xml:space="preserve"
     style="font-style:normal;font-variant:normal;font-weight:normal;font-stretch:normal;font-size:160.00000988px;line-height:1.25;font-family:'Nunito Sans';-inkscape-font-specification:'Nunito Sans, Normal';font-variant-ligatures:normal;font-variant-caps:normal;font-variant-numeric:normal;font-feature-settings:normal;text-align:center;letter-spacing:0px;word-spacing:0px;writing-mode:lr;text-anchor:middle;fill:#000000;fill-opacity:1;"
     x="1606.765"
     y="3120.9851"
     id="text4107"><tspan
       sodipodi:role="line"
       id="tspan4105"
       x="1606.765"
       y="3120.9851"
       style="font-style:normal;font-variant:normal;font-weight:normal;font-stretch:normal;font-size:160.00000988px;font-family:'Nunito Sans';-inkscape-font-specification:'Nunito Sans, Normal';font-variant-ligatures:normal;font-variant-caps:normal;font-variant-numeric:normal;font-feature-settings:normal;text-align:center;writing-mode:lr;text-anchor:middle;fill:#000000;fill-opacity:1;">Virtual Machine Management</tspan><tspan
       sodipodi:role="line"
       x="1606.765"
       y="3360.9851"
       style="font-style:normal;font-variant:normal;font-weight:normal;font-stretch:normal;font-size:160.00000988px;font-family:'Nunito Sans';-inkscape-font-specification:'Nunito Sans, Normal';font-variant-ligatures:normal;font-variant-caps:normal;font-variant-numeric:normal;font-feature-settings:normal;text-align:center;writing-mode:lr;text-anchor:middle;fill:#000000;fill-opacity:1;"
       id="tspan892"> on Kubernetes</tspan></text>
  <g
     id="g1042"
     transform="translate(2.6469281e-6,-216.31949)">
    <text
       id="text4107-6"
       y="4570.6914"
       x="1292.8876"
       style="font-style:normal;font-variant:normal;font-weight:normal;font-stretch:normal;font-size:133.33334351px;line-height:1.25;font-family:'Nunito Sans';-inkscape-font-specification:'Nunito Sans, Normal';font-variant-ligatures:normal;font-variant-caps:normal;font-variant-numeric:normal;font-feature-settings:normal;text-align:start;letter-spacing:0px;word-spacing:0px;writing-mode:lr-tb;text-anchor:start;fill:#000000;fill-opacity:1"
       xml:space="preserve"><tspan
         style="font-style:normal;font-variant:normal;font-weight:normal;font-stretch:normal;font-size:133.33334351px;font-family:'Nunito Sans';-inkscape-font-specification:'Nunito Sans, Normal';font-variant-ligatures:normal;font-variant-caps:normal;font-variant-numeric:normal;font-feature-settings:normal;text-align:start;writing-mode:lr-tb;text-anchor:start;fill:#000000;fill-opacity:1"
         y="4570.6914"
         x="1292.8876"
         id="tspan4105-8"
         sodipodi:role="line">kubevirt.io</tspan></text>
    <text
       id="text4107-4"
       y="4790.6064"
       x="1042.5333"
       style="font-style:normal;font-variant:normal;font-weight:normal;font-stretch:normal;font-size:133.33334351px;line-height:1.25;font-family:'Nunito Sans';-inkscape-font-specification:'Nunito Sans, Normal';font-variant-ligatures:normal;font-variant-caps:normal;font-variant-numeric:normal;font-feature-settings:normal;text-align:start;letter-spacing:0px;word-spacing:0px;writing-mode:lr-tb;text-anchor:start;fill:#000000;fill-opacity:1"
       xml:space="preserve"><tspan
         style="font-style:normal;font-variant:normal;font-weight:normal;font-stretch:normal;font-size:133.33334351px;font-family:'Nunito Sans';-inkscape-font-specification:'Nunito Sans, Normal';font-variant-ligatures:normal;font-variant-caps:normal;font-variant-numeric:normal;font-feature-settings:normal;text-align:start;writing-mode:lr-tb;text-anchor:start;fill:#000000;fill-opacity:1"
         y="4790.6064"
         x="1042.5333"
         id="tspan4105-6"
         sodipodi:role="line">KVM on containers</tspan></text>
    <text
       id="text4107-4-0"
       y="5001.8813"
       x="831.17188"
       style="font-style:normal;font-variant:normal;font-weight:normal;font-stretch:normal;font-size:133.33334351px;line-height:1.25;font-family:'Nunito Sans';-inkscape-font-specification:'Nunito Sans, Normal';font-variant-ligatures:normal;font-variant-caps:normal;font-variant-numeric:normal;font-feature-settings:normal;text-align:start;letter-spacing:0px;word-spacing:0px;writing-mode:lr-tb;text-anchor:start;fill:#000000;fill-opacity:1"
       xml:space="preserve"><tspan
         style="font-style:normal;font-variant:normal;font-weight:normal;font-stretch:normal;font-size:133.33334351px;font-family:'Nunito Sans';-inkscape-font-specification:'Nunito Sans, Normal';font-variant-ligatures:normal;font-variant-caps:normal;font-variant-numeric:normal;font-feature-settings:normal;text-align:start;writing-mode:lr-tb;text-anchor:start;fill:#000000;fill-opacity:1"
         y="5001.8813"
         x="831.17188"
         id="tspan4105-6-5"
         sodipodi:role="line">Reimagining virtualization</tspan></text>
  </g>
</svg>
