<svg xmlns="http://www.w3.org/2000/svg" viewBox="0 0 784.48 170.69"><defs><style>.cls-1{fill:none;}</style></defs><title>KubeVirt_logo_black</title><g id="Layer_2" data-name="Layer 2"><g id="svg10488"><path d="M301.72,43.54q-4.43,4.86-10,10.8T280.05,66.5Q274,72.72,268,78.72t-11.3,11.15a127.55,127.55,0,0,1,13,10.58q6.86,6.29,13.44,13.44t12.37,14.59a123.12,123.12,0,0,1,9.65,14.16h-16.3A140.78,140.78,0,0,0,279,129.13q-5.58-6.79-11.8-13T254.6,104.61a110.77,110.77,0,0,0-12.37-9v47H228.36V43.54h13.87V87.3q5-4.72,11-10.65t11.87-11.94q5.86-6,11.08-11.51T285,43.54Z"/><path d="M373.93,140.5q-4.58,1.15-12.08,2.43a103.92,103.92,0,0,1-17.37,1.29,36.84,36.84,0,0,1-14.44-2.5,23.28,23.28,0,0,1-9.44-7.08,28.71,28.71,0,0,1-5.15-10.8,56.18,56.18,0,0,1-1.57-13.8V68.28h13.3v38.9q0,13.59,4.29,19.45t14.44,5.86q2.14,0,4.43-.14t4.29-.36q2-.22,3.65-.43a10.68,10.68,0,0,0,2.36-.5V68.28h13.3Z"/><path d="M409.25,71.57a36,36,0,0,1,7.36-3.29A34.56,34.56,0,0,1,428,66.57a33.72,33.72,0,0,1,14.23,2.86,29.59,29.59,0,0,1,10.51,8,35.3,35.3,0,0,1,6.51,12.3,53,53,0,0,1,2.22,15.73,46.93,46.93,0,0,1-2.65,16.23,34.15,34.15,0,0,1-7.51,12.23,33.06,33.06,0,0,1-11.73,7.72,41.7,41.7,0,0,1-15.44,2.72,93.57,93.57,0,0,1-16.45-1.29q-7.15-1.29-11.73-2.57V34l13.3-2.29Zm0,59.49a42.8,42.8,0,0,0,5.65,1.07,68.31,68.31,0,0,0,9.08.5q10.73,0,17.16-7.08t6.44-20.09a48.13,48.13,0,0,0-1.14-10.73,24.19,24.19,0,0,0-3.72-8.65,18,18,0,0,0-6.65-5.72,21.41,21.41,0,0,0-9.8-2.07,26.38,26.38,0,0,0-10,1.86,27.38,27.38,0,0,0-7,3.86Z"/><path d="M475.17,105.61A47.44,47.44,0,0,1,478,88.37a36,36,0,0,1,7.58-12.23,30.81,30.81,0,0,1,10.87-7.29,34,34,0,0,1,12.58-2.43q15,0,23,9.37t8,28.53v2.22A20.53,20.53,0,0,1,540,109H489q.86,11.58,6.72,17.59t18.3,6a48.73,48.73,0,0,0,11.8-1.22,42.34,42.34,0,0,0,7.22-2.36l1.86,11.15a39.55,39.55,0,0,1-8.51,2.72,60.56,60.56,0,0,1-13.8,1.43,43.79,43.79,0,0,1-16.8-2.93,31.32,31.32,0,0,1-11.65-8.08,32.93,32.93,0,0,1-6.79-12.23A51.65,51.65,0,0,1,475.17,105.61Zm51.05-7.29q.14-9-4.5-14.8t-12.8-5.79a17.55,17.55,0,0,0-8.08,1.79,19.06,19.06,0,0,0-5.93,4.65,21.39,21.39,0,0,0-3.79,6.58,32.4,32.4,0,0,0-1.79,7.58Z"/><path d="M639.34,43.54Q633.9,59.28,629,72.65T619.32,98q-4.72,12-9.37,23t-9.51,21.66h-13q-4.86-10.73-9.51-21.66t-9.44-23q-4.79-12-9.8-25.38t-10.3-29.1h15.3q7.72,22.6,15.16,43.47t15.3,39.18Q602,108,609.45,87.09t15-43.54Z"/><path d="M657.93,54.84a8.53,8.53,0,0,1-6.08-2.36,8.33,8.33,0,0,1-2.5-6.36,8.33,8.33,0,0,1,2.5-6.36,9,9,0,0,1,12.16,0,8.34,8.34,0,0,1,2.5,6.36,8.33,8.33,0,0,1-2.5,6.36A8.54,8.54,0,0,1,657.93,54.84Zm6.72,87.8h-13.3V68.28h13.3Z"/><path d="M714.12,66.71q1.72,0,3.93.21t4.36.57q2.14.36,3.93.71a24.47,24.47,0,0,1,2.65.64l-2.29,11.58a45.24,45.24,0,0,0-5.22-1.36,45.9,45.9,0,0,0-9.37-.79,35,35,0,0,0-7.36.79q-3.65.79-4.79,1.07v62.49h-13.3V71.43a90.25,90.25,0,0,1,11.73-3.22A75.32,75.32,0,0,1,714.12,66.71Z"/><path d="M753.45,68.28h28.17V79.44H753.45v34.32a41.24,41.24,0,0,0,.86,9.22,13.83,13.83,0,0,0,2.57,5.72,9.25,9.25,0,0,0,4.29,2.93,19,19,0,0,0,6,.86,28.21,28.21,0,0,0,9.65-1.36q3.65-1.36,5.08-1.93l2.57,11a49.4,49.4,0,0,1-7,2.5,39.86,39.86,0,0,1-11.44,1.5,34.67,34.67,0,0,1-12.51-1.93,18.22,18.22,0,0,1-7.94-5.79,23.16,23.16,0,0,1-4.22-9.51,62.6,62.6,0,0,1-1.22-13.08V47.55l13.3-2.29Z"/><path class="cls-1" d="M158.05,32.94l-.21-.22.21.22Z"/><path class="cls-1" d="M159.5,34.62a13,13,0,0,0-1.45-1.68h0A13,13,0,0,1,159.5,34.62Z"/><path class="cls-1" d="M154.73,30.5,93.12,1q-.3-.15-.61-.28.31.12.61.28Z"/><path class="cls-1" d="M83,.4,21.41,30.1a11.25,11.25,0,0,0-2.11,1.28,11.25,11.25,0,0,1,2.11-1.28Z"/><path class="cls-1" d="M90,.11A15.6,15.6,0,0,0,88.07,0a28.84,28.84,0,0,0-3.81.17A28.89,28.89,0,0,1,88.07,0,15.6,15.6,0,0,1,90,.11Z"/><path class="cls-1" d="M176.55,104,161.19,38a11.55,11.55,0,0,0-1-2.3,11.55,11.55,0,0,1,1,2.3Z"/><path class="cls-1" d="M90,.11a11.44,11.44,0,0,1,1.29.23A11.44,11.44,0,0,0,90,.11Z"/><path class="cls-1" d="M91.24.34a9.26,9.26,0,0,1,1.27.4A9.26,9.26,0,0,0,91.24.34Z"/><path class="cls-1" d="M163.28,127.14l10.84-13.41a13.44,13.44,0,0,0,1.29-2.23,13.44,13.44,0,0,1-1.29,2.23Z"/><path class="cls-1" d="M54.33,170.69h0a12.93,12.93,0,0,1-1.29-.14A12.92,12.92,0,0,0,54.33,170.69Z"/><path class="cls-1" d="M154.73,30.5a14.72,14.72,0,0,1,2.15,1.4A14.72,14.72,0,0,0,154.73,30.5Z"/><path class="cls-1" d="M176.28,108.9c0,.19-.1.38-.15.57C176.19,109.28,176.24,109.09,176.28,108.9Z"/><path class="cls-1" d="M19.3,31.38l-.15.13h0Z"/><path class="cls-1" d="M19.14,31.51h0a10.85,10.85,0,0,0-3.8,6.06L.2,104,15.35,37.57A10.85,10.85,0,0,1,19.14,31.51Z"/><path class="cls-1" d="M.1,107.86a12.87,12.87,0,0,0,2.32,5.86l28.42,35.15L2.42,113.73A12.87,12.87,0,0,1,.1,107.86Z"/><path d="M176.55,104,161.19,38a11.55,11.55,0,0,0-1-2.3,12.2,12.2,0,0,0-.68-1.05,13,13,0,0,0-1.45-1.68l-.21-.22q-.46-.43-1-.83a14.72,14.72,0,0,0-2.15-1.4L93.12,1q-.3-.15-.61-.28a9.26,9.26,0,0,0-1.27-.4A11.44,11.44,0,0,0,90,.11,15.6,15.6,0,0,0,88.07,0a28.89,28.89,0,0,0-3.81.17A11.32,11.32,0,0,0,83,.4L21.41,30.1a11.25,11.25,0,0,0-2.11,1.28l-.15.13a10.85,10.85,0,0,0-3.8,6.06L.2,104a12.73,12.73,0,0,0,2.22,9.7l28.42,35.15L45,166.45a14.86,14.86,0,0,0,8,4.1,12.93,12.93,0,0,0,1.29.14h67.87q.68,0,1.35-.06a10.6,10.6,0,0,0,7.94-4.18l31.78-39.31,10.84-13.41a13,13,0,0,0,2-4.26c.05-.19.1-.38.15-.57a14,14,0,0,0,.34-2.3A14.56,14.56,0,0,0,176.55,104ZM101.19,65.29,110,48.49h3.21v0a5,5,0,0,1,2.27.56,5,5,0,0,1,2.08,6.76L110,70a5,5,0,1,1-8.84-4.68ZM84.76,115.69,77.5,129.4,71.8,140,27,48.71h40.5l16.2,29.92L78.22,89l-.21.11L61.58,58.71H43.67l28.25,59.85,4-7.56a5,5,0,1,1,8.84,4.68Zm5.41-13.89a5,5,0,0,1-4.42-7.34l7.49-14.14A5,5,0,1,1,102.08,85L94.59,99.14A5,5,0,0,1,90.17,101.8Zm17.7,32.34-3.61,7.23a5,5,0,0,1-8.95-4.47l3.61-7.23a5,5,0,0,1,8.95,4.46Zm15-29.64-7.14,14.32a5,5,0,0,1-8.95-4.46L113.87,100a5,5,0,0,1,8.95,4.47ZM137.72,75l-7.14,14.32a5,5,0,0,1-8.95-4.47l7.14-14.32A5,5,0,0,1,137.72,75Zm7.39-14.46a5,5,0,0,1-9.3-1.27h-6a5,5,0,0,1,0-10h20.88Z"/></g></g></svg>