<svg xmlns="http://www.w3.org/2000/svg" viewBox="0 0 864 864"><defs><style>.cls-1{fill:#ededed;}.cls-2{fill:none;}.cls-3{fill:#00aab2;}.cls-4{fill:#fff;}.cls-5{fill:#00797f;}.cls-6{fill:#3accc5;}</style></defs><title>Asset 4</title><g id="Layer_2" data-name="Layer 2"><g id="Layer_1-2" data-name="Layer 1"><rect class="cls-1" width="864" height="864"/><g id="Layer_2-2" data-name="Layer 2"><g id="svg10488"><path class="cls-2" d="M567.62,742.33a45.28,45.28,0,0,1-4.76.88A45.28,45.28,0,0,0,567.62,742.33Z"/><path class="cls-2" d="M754.27,504.94c0,1.73,0,3.44-.11,5.15C754.25,508.42,754.31,506.71,754.27,504.94Z"/><path class="cls-2" d="M109.78,515.09a45.09,45.09,0,0,1-.51-5.44A45.09,45.09,0,0,0,109.78,515.09Z"/><path class="cls-2" d="M431.76,743.69H307.66a22.91,22.91,0,0,1-2.48-.26c.83,0,1.64.22,2.48.26H555.47a53.45,53.45,0,0,0,7.37-.48,53.45,53.45,0,0,1-7.37.48Z"/><path class="cls-2" d="M113.9,528.55a47.68,47.68,0,0,0,4.19,7.09l93.38,115.51L118.09,535.64A47.68,47.68,0,0,1,113.9,528.55Z"/><path class="cls-2" d="M651.68,651.19l93.38-115.55A49.33,49.33,0,0,0,753,517.87a49.33,49.33,0,0,1-7.92,17.77Z"/><path class="cls-2" d="M165.28,257.6l-15,65.8,15-65.8a39.63,39.63,0,0,1,13.86-22.12,40.47,40.47,0,0,1,8.27-5.16l225-108.44a77.06,77.06,0,0,1,18.44-1.47,49.6,49.6,0,0,1,11.58,1.22,49.6,49.6,0,0,0-11.58-1.22,77.06,77.06,0,0,0-18.44,1.47l-225,108.44A39.65,39.65,0,0,0,165.28,257.6Z"/><path class="cls-2" d="M674.25,231.79a53.13,53.13,0,0,1,11.36,8.12,53.13,53.13,0,0,0-11.36-8.12l-225-107.7a30.72,30.72,0,0,0-4.54-1.82,30.72,30.72,0,0,1,4.54,1.82Z"/><path class="cls-2" d="M697.86,259.07l48.38,208.17L697.86,259.07a42,42,0,0,0-3.68-8.42A42,42,0,0,1,697.86,259.07Z"/><path class="cls-3" d="M412.4,121.88l-225,108.44a40.74,40.74,0,0,0-8.27,5.16L295.75,470.13,208,291.05H355.92l59.22,109.26L395,438.05l-.75.41-60-110.9H268.71L371.78,546.12l14.61-27.59a18.27,18.27,0,0,1,32.73,16.23c-.14.29-.29.58-.45.86l-26.52,50.09L372,623.36l59.78,120.29L488.38,631.8A18.24,18.24,0,0,1,457.27,613l13.15-26.32a18.25,18.25,0,0,1,33.21,15.09l26.31-52.15a18.24,18.24,0,0,1-31.09-18.86l26.07-52.29a18.27,18.27,0,0,1,32.68,16.3l-6.41,12.83,33.56-66.3A18.25,18.25,0,0,1,553.23,423l26.08-52.28A18.34,18.34,0,0,1,612.2,387h0l-14.73,29.54,41.53-82a18.25,18.25,0,0,1-33.84-5H583.39a18.27,18.27,0,0,1,0-36.51h76.25l-18.09,36.25,44.82-88.56c-.26-.26-.5-.54-.76-.79a53.43,53.43,0,0,0-11.36-8.11l-225-107.68a30.72,30.72,0,0,0-4.54-1.82c-.77-.25-1.55-.46-2.32-.64a49.6,49.6,0,0,0-11.58-1.22A77.06,77.06,0,0,0,412.4,121.88Zm66.36,229.54,32-61.4h11.71a17.91,17.91,0,0,1,8.31,2,18.25,18.25,0,0,1,7.6,24.66h0L511,368.35a18.27,18.27,0,0,1-33.64-14.27A17.75,17.75,0,0,1,478.76,351.42ZM449.7,406.25a18.27,18.27,0,0,1,32.73,16.23c-.14.29-.29.57-.45.85l-27.32,51.78a18.27,18.27,0,0,1-32.74-16.23l.45-.85Z"/><path class="cls-4" d="M151.07,254.25,95.74,497v.7a61.06,61.06,0,0,0,10.62,46.43l.26.35.26.33L262.59,737.38l.48.59.55.55A68,68,0,0,0,307,758.25H555.71c19.19,0,35.33-7.5,45.49-21.16L756.64,544.83l.26-.33.26-.35a63.35,63.35,0,0,0,11.47-45.6l-.28-1.6L712.3,255.72l-.14-.53-.15-.53a61.88,61.88,0,0,0-30.7-35.81l-.29-.15-.28-.13L455.69,111a54.83,54.83,0,0,0-24.85-5.18,90.22,90.22,0,0,0-21.93,1.91l-1.45.37-1.34.66-225,108.42A54.46,54.46,0,0,0,151.07,254.25Zm36.36-23.93,225-108.44a77.06,77.06,0,0,1,18.44-1.47,49.6,49.6,0,0,1,11.58,1.22c.77.19,1.55.41,2.32.64a30.72,30.72,0,0,1,4.54,1.82l225,107.7a53.13,53.13,0,0,1,11.36,8.12c.26.24.5.52.76.79h0a47.47,47.47,0,0,1,5.31,6.11q1.34,1.88,2.48,3.86a42,42,0,0,1,3.68,8.42l48.38,208.17,7.68,33c.19,1.56.3,3.13.35,4.69,0,1.73,0,3.44-.11,5.15a52.47,52.47,0,0,1-1.16,7.79,49.21,49.21,0,0,1-7.92,17.76L651.68,651.19l-62.26,77a36.51,36.51,0,0,1-19.48,13.51c-.76.23-1.52.44-2.3.61a48,48,0,0,1-4.76.88,56.66,56.66,0,0,1-7.37.48H307.7a23.17,23.17,0,0,1-2.48-.26,54,54,0,0,1-31.47-15.22l-62.28-77L118.09,535.64a48.08,48.08,0,0,1-4.19-7.13,47.47,47.47,0,0,1-4.63-18.9,46.16,46.16,0,0,1,.73-9.32l40.35-177,15-65.79A39.64,39.64,0,0,1,187.43,230.32Z"/><path class="cls-5" d="M431.76,743.69,372,623.36l-.55,1L295.75,470,179.16,235.39a39.69,39.69,0,0,0-13.86,22.13l-15,65.79L110,500.29a46.59,46.59,0,0,0-.71,9.36,47.47,47.47,0,0,0,4.63,18.9,48.44,48.44,0,0,0,4.17,7.09l93.38,115.51,62.26,77a53.93,53.93,0,0,0,31.45,15.29c.83,0,1.64.22,2.48.26Z"/><path class="cls-6" d="M639.09,334.16l-.2.31-41.53,82L586,439.14a16.28,16.28,0,0,1-1.16,2l-33.55,66.29-19.74,39.48a19.14,19.14,0,0,1-1.58,2.56l-26.32,52.16c-.17.41-.33.81-.52,1.22L490,629.15a17.63,17.63,0,0,1-1.56,2.52L431.83,743.52H555.56a56.88,56.88,0,0,0,7.37-.48c1.6-.22,3.18-.51,4.76-.88.77-.19,1.54-.4,2.3-.62A36.47,36.47,0,0,0,589.46,728l62.22-76.84,93.38-115.55A49.33,49.33,0,0,0,753,517.87a52.34,52.34,0,0,0,1.16-7.78c.11-1.71.17-3.42.11-5.15s-.16-3.14-.35-4.7l-7.68-33L697.86,259.07h0a42,42,0,0,0-3.68-8.42c-.76-1.33-1.59-2.61-2.48-3.86a49,49,0,0,0-5.3-6.12h0l-44.83,88.56Z"/><path class="cls-4" d="M430,482.7a18.25,18.25,0,0,0,24.67-7.58h0L482,423.49a18.27,18.27,0,1,0-31.83-17.94c-.16.28-.31.56-.45.85L422.35,458A18.27,18.27,0,0,0,430,482.7Z"/><path class="cls-4" d="M503.12,602.9c.2-.4.37-.81.53-1.23a18.25,18.25,0,0,0-33.2-15.09L457.29,612.9A18.26,18.26,0,0,0,490,629.19Z"/><path class="cls-4" d="M372,623.36l20.24-37.79,26.51-50.08a18.27,18.27,0,1,0-31.83-17.94c-.16.28-.31.56-.45.85L371.85,546,268.77,327.43h65.4l60,110.9.75-.41,20.11-37.75L355.84,290.92H208L295.68,470l75.68,154.37Z"/><path class="cls-4" d="M641.55,329.25,659.64,293H583.39a18.27,18.27,0,0,0,0,36.51h21.77a18.25,18.25,0,0,0,33.76,5l.19-.31Z"/><path class="cls-4" d="M597.38,416.51,612.2,387a18.26,18.26,0,0,0-32.67-16.29l-26.08,52.28a18.27,18.27,0,0,0,32.68,16.29Z"/><path class="cls-4" d="M551.33,507.5l6.4-12.83a18.27,18.27,0,0,0-32.68-16.29L499,530.66A18.26,18.26,0,0,0,531.65,547Z"/><path class="cls-4" d="M486.35,376.2A18.24,18.24,0,0,0,511,368.63h0L538.36,317a18.23,18.23,0,0,0-7.44-24.7l-.14-.08a18,18,0,0,0-8.32-2H510.75l-32,61.41A18.26,18.26,0,0,0,486.35,376.2Z"/></g></g></g></g></svg>